<?xml version="1.0" encoding="UTF-8"?>
<svg id="Layer_1" data-name="Layer 1" xmlns="http://www.w3.org/2000/svg" viewBox="0 0 792.01 427.81">
  <path d="M563.45,10.87l12.75,397.16c.04,1.1-.84,2.01-1.94,2.02l-56.95.58c-.66,0-1.29-.32-1.65-.88h0c-.18-.28-.29-.6-.32-.93l-15.15-194.62c-.18-2.32-3.53-2.45-3.89-.15l-31.32,200.05c-.09.57-.42,1.09-.92,1.38-2.58,1.49-9.76,1.92-12.6,2.17-12.57,1.11-25.38,1.24-37.99,1.96-.67.04-1.31-.27-1.7-.81l-.71-.99c-.31-.44-.43-.99-.33-1.51L487.6,18.73c.8-4.15,4.18-7.32,8.38-7.85l58.81-7.41c4.5-.57,8.52,2.86,8.66,7.4Z"/>
  <path d="M206.66,22.18l33.77,383.82c-.83,3.59-13.19,4.44-16.88,4.96-7.19,1.01-14.53.87-21.65,2.37l-2.52-1.87-17.09-225.96-44.32,225.97-1.6,1.67-25.47-3.13L167.54,29.32c.77-3.37,34.01-8.31,39.12-7.15Z"/>
  <path d="M255.83,333.24l33.62,6.12c.84,9.98,1.24,18.02,6.16,27.09,9.3,17.13,27.09,19.47,44.64,14.09,7.35-2.25,17.48-10.06,15.68-18.76-2.32-11.17-47.54-41.86-58.14-53.1-25.51-27.05-42.05-68.49,2-87.4,48.15-20.67,101.08,13.18,117.35,59.52-7.5,13.28-13.39,25.67-22.05,38.15-.65.94-2.35,4.75-4.09,3.88-12.94-25.6-19.2-57.77-48.78-69.48-15.48-6.13-42.24-4.35-36.59,18.07,4.73,18.77,44.06,40.01,58.13,55.21,19.44,20.99,28.74,41.84,16.85,70.31-18.56,44.43-82.03,36.59-108.4,3.81-8.04-9.99-19.64-36.49-19.64-49.02v-15.77c0-1.72,1.56-3.02,3.25-2.71Z"/>
  <path d="M663.87,288.01l61.48,103.65c.75,1.26.16,2.91-1.24,3.38-6.12,2.06-21.61,5.13-24.52,5.54-2.09.29-7.27,1.4-9.76.69-.62-.18-1.11-.65-1.38-1.23l-48.34-104.45c-.16-.34-.66-.22-.65.15l2.21,106.69c.03,1.24-.92,2.27-2.16,2.36-12.03.85-24.12,2.34-36.21,1.31-1.19-.1-2.1-1.12-2.1-2.32l.24-195.53c0-.85.46-1.64,1.21-2.03,6.64-3.47,36.95-10.45,41.96-10.98,22.14-2.33,62.96,2.3,71.95,26.63,10.65,28.82-26.29,55.41-51.35,62.76-1.46.43-2.13,2.1-1.36,3.41ZM633.62,252.26c.19,1.36,1.51,2.25,2.85,1.93,11.26-2.72,33.15-4.67,38.05-13.83,3.92-7.34,1.53-10.38-5.68-13.28-11.29-4.54-25.34-2.86-37.09-1.15-1.3.88-.92,1.75-.81,2.99.69,7.79,1.61,15.6,2.68,23.35Z"/>
  <path d="M453.18,10.6c1.01-.27,1.96.57,1.82,1.6l-26.43,202.72c-.97,1.38-1.27,1.33-2.72.57-4.3-2.24-9.84-7.81-14.49-10.68-.47-.29-.75-.8-.71-1.35l5.92-91.96c.11-1.65-2.18-2.18-2.81-.65l-22.41,54.12c-.23.55-.77.91-1.37.9h-1.12c-.63-.02-1.19-.44-1.38-1.04l-16.64-53.63c-.24-.79-1.41-.58-1.37.24l3.95,84.78c.04.81-.58,1.49-1.39,1.53-6.1.28-28.65-3.92-30.7-5.61-.91-.75-1.41-1.65-1.52-2.84-.42-9.7-.42-19.73-1.13-29.39-3.03-40.94-7.39-82.33-6.54-123.17.14-6.5-.45-13.1.4-19.56.07-.53.43-1,.93-1.17,5.6-1.97,34.62.64,42.38,1.04.62.03,1.15.46,1.32,1.05l18.05,62.33c.04.13.22.13.26,0l17.33-58.45c.15-.49.54-.87,1.03-1l39.35-10.38Z"/>
  <path d="M6.43,406.6c-.94-1.81-1.15-3.78-1.29-5.79-3.58-49.25.64-104.44-1.03-154.82-.12-3.76-1.46-16.79,2.61-16.83,4.3-.04,12.43,1.76,17.01,2.66,57.08,11.3,84.6,33.76,75.01,95.74-8.21,53.02-41.12,74.06-92.3,79.04ZM32.44,343.54c12.57-3.98,23.94-11.94,25.13-25.66,1.27-14.48-5.76-27.49-22.4-29.93l-2.73,55.59Z"/>
  <path d="M284.06,54.49l-.88-35.5c-.02-.68.49-1.25,1.17-1.32,5.57-.54,20.76-4.33,22.49-.59.06.13.08.27.09.41l14.73,170.52c.05.62-.34,1.19-.94,1.35-4.17,1.16-13.81,3.36-19.88,1.65-.39-.11-.69-.41-.83-.79l-37.62-101.69,5.51,118.88c.12,2.48-1.4,4.75-3.74,5.59l-17.78,6.42c-1.3.49-3.78-1.74-3.71-6.21l-6.29-195.59c0-.19.02-.38.1-.55,1.82-3.89,14.17-2.9,18.77-2.19.37.06.69.27.89.58l25.53,39.77c.7,1.1,2.41.58,2.38-.73Z"/>
  <path d="M122.17,79.47l-47-4.86c-1.34-.14-2.55.81-2.72,2.15l-16.83,126.07c-.17,1.29-1.31,2.23-2.62,2.16l-31.88-1.92c-1.5-.09-2.58-1.47-2.3-2.95l25.08-132.81c.28-1.47-.8-2.86-2.29-2.95L.77,61.85c-1.46-.98-.42-1.58-.32-2.5.26-2.4,3.51-17.97,5.2-23.36.34-1.08,1.36-1.79,2.49-1.74l125.67,5.75c1.39,1.03.96,1.64.86,3-.2,2.7-7.15,28.06-9.94,34.95-.41,1.02-1.46,1.64-2.56,1.52Z"/>
  <path d="M630.61,166.66l-4.66-84.07c-.02-.44-.15-.88-.36-1.26l-36.3-66.28c-1.01-1.85.16-4.13,2.25-4.38,10.28-1.23,20.73-2.93,31.01-2.37,1.04.06,1.97.68,2.45,1.6l18.42,35.41c.13.25.3.48.5.69l2.09,2.17c.51.53,1.4.36,1.67-.32l17.18-42c.43-1.05,1.42-1.77,2.55-1.84,8.62-.5,25.14-5.41,31.3-3.6.79.23,2.13,1.18,1.37,2.1l-38.35,92.87c-.13.33-.21.67-.22,1.03l-2.57,69.9c-.37,1.41-1.32,1.57-2.57,1.79-2.51.44-16.68,1.46-22.81,1.39-1.57-.02-2.86-1.24-2.94-2.81Z"/>
  <path d="M756.12,405.94l-.93-1.55c-.14-.24-.22-.51-.24-.79l-8.63-207.52c-.04-.99.79-1.8,1.78-1.73l28.04,1.95c.86.06,1.55.77,1.55,1.64-.02,2.71,1.18,5.32,1.3,7.78,2.38,47.74-7.24,98.43,3.54,145.67,1.64,7.19,4.42,13.92,5.91,21.33,2.06,10.22,3.38,21.83,3.56,32.34.02.93-.74,1.68-1.67,1.68h-32.79c-.59,0-1.13-.31-1.43-.81Z"/>
  <path d="M769.17.24c-4.55,31.33-13.52,62.09-18.21,93.5-2.13,14.24-2.56,28.98-4.85,43.11-2.18,13.51-7.11,26.52-7.61,40.35-.85,2.7-8.82,1.96-11.34,1.83-7.57-.39-15.64-2.71-23.43-2.71l-2.75-1.69c8.9-43.02,17.56-86.68,27.31-129.71,1.8-7.93,5.16-27.18,8.09-33.33,3.31-6.98,25.27-10.45,32.8-11.35Z"/>
</svg>