<?xml version="1.0" encoding="utf-8"?>
<!-- Generator: Adobe Illustrator 29.5.1, SVG Export Plug-In . SVG Version: 9.03 Build 0)  -->
<svg version="1.0" id="Layer_1" xmlns="http://www.w3.org/2000/svg" xmlns:xlink="http://www.w3.org/1999/xlink" x="0px" y="0px"
	 viewBox="0 0 724.85 599.03" style="enable-background:new 0 0 724.85 599.03;" xml:space="preserve">
<g transform="translate(0.000000,1640.000000) scale(0.100000,-0.100000)">
	<path d="M3327.58,15013.24c-6-11-7-20-3-20c12,0,10-50-2-50c-5,0-2-5,9-11c15-9,16-13,5-20c-12-8-12-10,0-18c10-7,9-12-8-23
		c-19-14-20-16-5-22c13-5,14-9,4-21c-8-10-9-15-2-15s9-7,5-17s-2-14,4-10c8,5,7-12-2-50s-10-63-4-75c7-14,6-16-6-12
		c-16,7-22-21-6-30c16-10,41,5,41,25c0,10,5,19,11,19c5,0,7-4,4-10c-3-5,0-10,9-10c8,0,17,6,20,13c4,6,4,2,2-10s-1-24,3-26
		c3-2,1-3-6-1c-22,5-21-7,3-31c13-13,24-30,24-37c0-9-3-9-10,2c-9,13-13,12-30-8c-18-22-18-58,1-46c5,3,6-1,3-9c-3-10-17-14-37-12
		c-36,2-57-3-57-16c0-4,6-6,13-3c9,3,13-2,13-13c-1-10,4-18,9-18c6,0,9,3,8,6c-1,4,6,5,17,2s17-9,14-14s-10-7-15-4c-5,4-9-1-9-11
		c0-13-3-14-15-4c-8,6-20,10-27,8c-8-3-3-10,12-18c14-7,29-19,33-27c5-7,13-11,19-7s5-3-2-16c-10-18-14-20-21-9c-6,10-9,11-9,2
		c0-7-5-13-10-13c-7,0-7,7,1,21c7,14,8,24,1,31c-12,12-35,1-27-12c3-5,1-11-5-15c-7-4-7-12,0-25c14-27,12-40-5-34c-8,4-15,1-15-5
		s4-11,9-11s16-2,23-5c9-4,19,4,26,17l11,23v-22c1-13-3-23-9-23c-16,0-11-18,10-38c16-14,17-19,5-19c-8,0-15,4-15,9s-4,6-10,3
		c-5-3-10,1-10,9c0,17-15,22-24,8c-3-5-2-18,1-30c4-18,11-21,34-17c17,3,29,1,29-5c0-23-33-60-54-60c-17,0-18-2-6-11c12-8,10-9-10-7
		c-32,4-59-40-35-58c20-15,19-27-4-74c-12-24-15-42-9-46c5-3,7-12,4-20c-3-7-1-16,5-20c7-4,6-10-1-19c-6-8-10-19-9-27
		c5-41-16-54-25-15c-2,12-4,5-2-15c2-35-4-43-29-38c-5,1-17,2-27,3c-9,1-14,5-12,9c6,10-20,21-55,22c-14,1-32,5-38,9c-8,5-13,3-13-5
		c0-10-2-10-9,1c-5,7-13,11-18,8c-6-4-16,5-23,18c-14,27-54,34-64,13c-3-7-3,2,0,21c5,29,4,33-11,28c-9-4-25-7-35-7s-20-8-23-17
		c-3-14-7-11-18,12c-7,17-22,39-31,49c-18,19-18,19-18-2c0-13-6-22-15-22c-11,0-12,5-5,24c8,21,6,24-16,24c-13,0-27-4-30-9
		c-9-16-23-9-26,13c-2,12-10,23-18,25c-12,4-12,2-2-5s10-11-2-21c-11-10-16-6-27,18c-19,41-38,43-79,7c-19-17-29-24-22-14
		c11,14,8,18-18,31c-16,9-30,11-30,6s-7-9-15-9s-15,5-15,11s-6,9-14,6c-7-3-23,1-35,9c-19,14-21,13-21-4c0-11-12-25-27-33
		c-16-7-31-15-35-17c-3-2-4,6-1,18c4,15,11,20,24,17c21-6,27,18,7,26c-10,4-10,6,0,6c15,1,16,31,1,31c-6,0-13-9-16-20s-9-20-13-20
		c-13,0-30,27-22,36c4,5-2,2-13-7c-31-25-55-31-55-14c0,8-4,15-9,15s-12,10-15,23l-7,22l-11-22c-14-28-34-29-50-3c-7,11-17,20-22,20
		c-4,0-3-6,3-14c9-11,9-16,0-22c-8-5-9-3-4,6s2,10-14,5c-12-3-21-2-21,3c0,10-72,28-100,25c-7-1-27,5-42,13c-22,11-28,12-28,2
		c0-8-5-6-11,4c-13,23-36,13-42-18c-5-28,3-36,23-24c7,4,20,6,28,3c11-5,9-10-9-24c-19-14-22-20-11-30c9-10,12-10,12-1
		c0,7,4,12,10,12c5,0,7-6,4-14s0-17,6-21s8-16,4-27c-5-18-3-20,15-15c12,3,19,1,15-4c-3-5,2-9,10-9s22-7,30-16c9-8,22-12,28-8
		c7,4,10,4,6,0c-4-5-2-20,3-34c13-34-5-54-24-27c-10,13-16,15-21,6c-5-7-5-15-2-18s0-13-7-21c-10-13-8-14,16-10c21,4,27,1,27-13
		c0-10,5-21,10-24c6-3,10,4,10,17c0,19,3,18,17-12c21-44,34-53,51-36c7,7,26,11,41,8c23-3,30-10,33-31c5-33,0-51-14-51
		c-6,0-7,7-4,16c13,34-40,75-58,45c-6-8,21-70,26-63c7,8,38-12,38-25c0-10,6-12,23-8c18,6,20,5,10-6c-7-7-13-16-13-20
		c0-10,40-18,41-8c1,5,2,13,3,18c0,5,4,13,9,17c9,10,12-43,4-90c-1-5,4-11,11-13c6-3,12,2,12,11s7,16,15,16c18,0,20,21,3,38
		c-7,7-8,12-4,12c5,0,3,7-4,15c-11,13-10,14,4,9c9-3,16-10,16-14c0-13,39-19,44-6c2,6,5,4,5-6c1-11,9-15,30-14s27-2,23-12
		c-6-17,23-37,53-37c11,0,24-10,30-22c5-13,16-22,25-20c12,1,14-7,12-38l-3-40l19,24c16,20,20,21,25,7c4-9,2-16-3-16
		c-6,0-10-5-10-11s9-8,21-4c16,5,20,4,15-6c-4-8-1-6,7,4c13,15,16,16,27,2c7-8,20-14,29-13c9,2,15-3,14-9c-2-7,3-13,10-13
		s19,6,26,13c10,10,11,9,6-5c-4-10-14-18-22-18c-10,0-14-7-10-19c3-14-2-21-17-25c-19-5-18-7,14-25c19-10,40-17,46-14
		c6,2,17-3,24-12c7-8,19-15,27-15s11-5,8-11c-4-6-13-8-21-5s-23-2-34-12c-12-9-23-16-26-14s-11-4-18-13c-6-9-25-17-41-19
		c-21-3-29-8-27-20c2-9-4-16-12-16s-24-10-35-21c-12-14-26-19-37-15c-13,5-15,2-10-18c4-18,1-25-13-29c-12-3-22,1-26,11
		c-5,13-8,14-14,3c-6-9-11-10-15-2c-4,6-11,11-17,11c-12,0-12-27,1-32c6-2-5-18-25-36c-26-25-35-29-35-17c0,11-5,15-15,12
		c-8-4-17-2-21,4c-3,5-15,7-27,3c-26-8-23-4-31-31c-6-18-4-22,8-17c11,4,13,0,9-14c-4-17-9-19-34-12c-34,10-59,4-59-15
		c0-7-7-16-16-19c-8-3-12-10-9-16c9-15-4-12-21,5c-19,18-49,5-59-25c-4-11-15-20-26-20s-31-11-45-25s-30-26-37-26c-7-1-19-2-27-3
		c-8,0-20-12-27-26c-10-20-13-21-13-6s-3,16-15,6c-8-7-15-19-15-27c0-12-3-12-16,1c-17,18-39,22-29,6c3-5-7-22-22-36
		c-23-21-29-23-31-10c-2,9-8,16-13,16c-6,0-7-9-4-20c4-12,2-20-5-20c-6,0-8,5-4,11c4,7,1,10-7,7s-13-11-11-18c2-10,0-11-11-2
		c-11,10-19,6-37-17c-12-17-35-33-51-36c-16-4-29-11-29-17s-11-8-26-4c-21,6-27,3-31-14c-4-15-12-20-32-18c-15,2-26-2-27-9
		c-3-26-4-28-13-15c-6,10-15,7-40-14c-17-14-30-29-27-32c10-10-15-43-27-35c-7,4-20,6-31,4c-10-1-22,3-27,10c-4,8-11,10-16,6
		c-4-5-1-12,6-16c10-7,3-16-29-37l-44-29l30-6c16-4,38-7,49-8c18,0,19,0,3,10c-10,5-18,14-18,19c0,9,41,1,50-9c3-4,18-12,33-19
		c31-13,38-6,41,43c0,14,6,25,13,25s16,8,22,17c5,10,12,15,15,12c9-9-6-49-19-49c-15,0-28-28-19-42c4-7,13-2,23,11
		c14,18,21,20,42,13c27-11,59,1,59,21c0,7-7,24-14,40c-8,15-12,27-8,28c4,0,16,3,27,5c11,3,26,6,33,6c6,1,12,7,12,14
		c0,19,21,28,31,13c6-11,9-10,15,4c3,9,13,17,20,17c8,0,17,7,21,16c5,13,7,13,14,2s10-11,18,0c4,7,15,14,23,16c8,1,28,10,43,20
		s42,20,59,23s34,10,38,16c10,17,20,3,12-17c-4-9-13-15-20-12c-10,4-14-3-14-20c0-23-3-25-37-23c-31,3-37,0-35-14c2-9-2-17-8-17
		c-5,0-10,5-10,11c0,5-5,7-10,4c-6-4-7-12-4-18c5-9,3-9-6,0c-11,10-16,7-27-15c-8-15-10-28-5-30c6-2,8-12,5-22c-3-11-2-28,2-37
		c6-17,7-17,16,0c6,9,15,14,21,11c18-11,130-10,146,2c11,8,12,15,3,32c-11,22-41,21-41-2c0-6-15-11-34-11c-28,0-33,4-33,22
		c0,27,21,37,48,22c17-8,24-6,40,12c23,26,56,34,75,18c11-9,14-8,14,5c0,9,3,16,6,16c8,0,39-32,39-41c0-4,3-11,8-15c4-4,7-2,7,4
		s26,16,58,22c31,7,69,18,84,26c31,16,58,18,58,4c0-5,9-10,19-10c11,0,23-5,26-10c9-15,25-2,18,15c-3,10,1,15,12,15
		c25,0,55-19,55-35c0-8,5-15,11-15s8,9,4,23c-6,18-5,20,6,10c18-18,29-16,29,3c0,10,6,14,15,11c8-4,17-2,21,4c3,6,21,9,39,7
		c19-1,37,1,41,5s0,7-9,7s-19,5-22,10c-10,16,32,12,49-5c8-8,23-15,33-14c17,0,17,1,0,7c-16,7-16,9-3,27c14,18,15,18,16,2
		c0-15,3-15,21-5c17,11,22,10,33-4c12-16,14-16,34,7c22,26,53,37,35,13c-6-7-13-22-17-32c-5-15-4-17,7-8s13,7,11-11c-1-12-3-28-3-34
		c-1-7-8-13-16-13c-18,0-56-40-49-52c3-5,12-7,20-4s17-1,20-9c4-8,11-15,16-15c6,0,5,6-2,15c-9,11-9,15-1,15c7,0,11,8,9,18
		c-3,23,9,42,29,42c12,0,14-7,10-30c-5-23-3-28,8-24c8,4,12,10,9,15c-5,9,15,14,49,11c10-1,25,5,34,14c13,13,17,13,24,2
		c7-10,9-9,9,5c0,9,5,17,10,17c18,0,10,27-12,43c-19,13-20,15-5,13c10-1,22-7,25-12c15-20,42-36,71-40c30-5,30-5,19,26
		c-6,20-15,29-24,26c-8-3-18,3-24,14c-13,25,9,33,33,11c17-15,20-14,33,4c19,26,18,5-2-23c-14-20-12-27,10-23c5,1,6-5,3-13
		c-4-10-1-13,9-9c9,3,14,0,12-8s5-13,15-12c16,1,18-4,12-33c-4-24-2-34,7-34c8,0,6-5-4-11c-19-11-24-34-9-44c5-3,16,1,24,9
		s17,13,20,10c4-4,2,28-7,103c-3,21,0,32,8,30c6-1,11,6,11,16c0,26,30,40,56,27c11-7,27-9,35-6s14,1,14-4c0-6-12-10-27-10
		c-21,0-24-3-15-12c15-15,16-38,1-38c-5,0-7,5-3,12s3,8-5,4c-6-4-9-12-6-17c4-5-2-9-12-9c-13,0-15-2-5-9c7-4,25-6,39-3
		c20,4,24,2,17-9c-5-8-7-22-6-31c2-12-1-16-12-12c-8,3-12,12-9,20c7,19-12,18-28-3c-11-13-11-17-1-20c18-7,15-33-4-33
		c-14,0-14-3-4-15c7-9,10-18,6-22c-3-3-6-2-6,4s-11,11-25,11c-29,0-32-12-7-28c15-10,14-11-5-7c-13,3-23,0-23-6s-7-2-15,9
		c-8,10-15,17-15,14c-6-25-5-88,2-101c6-13,2-15-19-11c-19,4-24,1-21-9c3-8,14-15,25-17c15-2,19-8,16-23c-4-13-9-16-17-10
		c-9,7-15,2-23-19c-6-17-7-30-2-30c4,0,6-7,3-15c-4-8-15-15-25-15s-19-4-19-10c0-5,7-10,15-10c10,0,12-6,8-17c-6-16-5-16,10-4
		c14,11,18,11,23-5c3-11,12-31,20-46c9-16,11-29,5-33c-6-3-8-12-4-20c3-8,0-15-6-15s-8-7-4-16c3-9,12-13,21-9c14,5,14,4,0-12
		c-17-21-32-54-29-67c1-5-5-6-14-3c-9,4-15,1-15-8c0-8-7-15-15-15s-15,5-15,10c0,6,4,10,9,10c7,0,8,45,2,69c-2,7-51-42-51-50
		c0-5,8-6,18-3c16,5,16,5,0-8c-23-20-5-51,25-42c19,6,20,5,8-9c-7-9-18-14-25-10c-20,13-38,12-32-2c3-8,1-17-4-20s-7-12-3-20
		c3-8,0-15-7-15c-10,0-10-3-1-14c10-12,8-13-9-9c-19,5-21,2-18-33c2-27-1-38-9-37c-8,2-13-8-13-26c0-17-4-33-10-36c-5-3-10-23-10-45
		c0-33,3-37,20-33c11,3,20,10,20,15s6,8,13,7c27-3,37,2,38,19c0,10,3,12,6,5c2-7,8-13,12-13c10,0,55,100,48,107c-3,3,5,15,19,28
		c13,12,24,29,24,38c0,20,25,29,85,31c48,1,50,2,47,29c-3,29,12,37,22,12c3-8,12-12,21-9c8,3,15,1,15-5s-8-11-18-11c-9,0-23-9-30-20
		s-18-17-27-14c-11,5-13,2-9-10c4-11,1-16-10-16c-13,0-36-35-36-56c0-11,31-2,36,11c4,8,10,12,15,9s12,2,15,10c3,9,10,13,15,10
		s9,2,9,10s5,18,12,22s8,3,4-4s-2-12,3-12c6,0,11,8,11,19c0,10,8,25,17,32c9,8,14,9,10,2c-5-7,0-9,13-6c26,7,25,17-6,48
		c-25,25-25,27-9,51c9,13,14,28,11,32c-11,18,58,5,81-16c29-26,43-21,25,8c-15,25-3,32,37,20c27-8,32-6,30,8c-3,33,1,40,21,35
		c11-3,20,0,20,6c0,16-42,31-56,20c-6-5-13-6-16-3c-9,8,3,44,12,39c5-3,11-1,15,5c9,15,25,12,25-4c0-20,26-40,35-26c3,6,11,8,16,5
		s6,0,3,8c-3,9,3,17,16,20c12,3,19,10,16,15c-6,11,43,48,58,44c4-2,5,14,2,35c-6,35-5,36,8,19c20-25,42-15,56,28c6,20,15,34,19,31
		c5-2,19,7,31,20c21,23,22,25,5,25c-25,0-9,14,18,16c31,1,87,24,87,35c0,5-10,9-23,9s-28,5-35,12c-14,14-16,42-3,33c6-3,15,3,21,12
		c8,15,9,13,4-8c-9-40,9-42,35-3c23,33,24,34,44,17c12-10,17-12,12-4c-5,9-2,19,10,27c10,7,15,20,12,29c-4,8-2,15,3,15
		c12,0,38,52,33,66c-2,7,7,10,28,8c25-3,30-1,25,12c-5,12-1,14,17,8l22-7l-20,23c-16,19-17,22-3,17c9-3,22,1,29,9s19,12,26,10
		c10-4,13-1,8,13c-4,14,1,20,20,25c14,4,25,11,25,16c0,6,7,10,16,10c8,0,12,4,9,10s4,9,17,8s24-9,25-18c3-34,10-53,24-64
		c20-15,41-65,33-78c-5-8,3-9,24-5c33,7,45-8,17-19c-20-8-19-30,1-38c23-9,24-8,33,17c7,19,10,15,17-28c4-27,8-54,9-60c0-5,9-9,20-7
		c16,2,17,1,6-7c-12-8-12-12,3-27c13-12,14-19,6-24s-9-10-2-14c6-3,12,0,15,6c5,16,18,6,21-17c1-9,7-20,12-23c20-14,33-59,21-71
		c-9-9-9-14,2-20c7-5,10-14,7-20c-4-6-2-11,3-11c6,0,11,4,11,9s12,12,26,15c24,6,25,9,12,24c-21,24-29,50-16,54c12,4-4,37-33,71
		c-9,10-15,27-12,37c3,12-2,20-16,25c-12,3-21,10-21,15c0,6,11,5,26,0c14-6,30-8,35-5c5,4,6-1,3-9c-4-9,0-18,9-22c9-3,13-13,10-25
		c-3-10-1-19,5-19c5,0,13-11,16-25c4-14,11-25,16-25c6,0,10-11,10-25s8-29,20-35c11-6,17-16,14-25c-3-8,6-26,20-40
		c15-15,24-30,21-35s3-11,14-15c13-4,17-12,14-25c-3-11,0-20,6-20s11-11,11-25s4-25,10-25c5,0,7-7,4-15c-4-8-1-15,6-15c6,0,9-4,6-9
		s1-14,10-21c8-7,13-19,10-26s-1-16,4-19c6-4,10-13,10-21s-4-12-10-9c-5,3-10,0-10-8s9-17,20-20s24-17,30-31c5-14,14-26,20-26
		c5,0,10-5,10-11c0-15-36-60-43-53c-3,4-6-12-5-35c0-36,6-47,23-38c12,5,34-56,31-84c-3-23,2-34,21-46c16-10,22-21,18-32
		c-15-37-14-51,5-51c10,0,20-5,22-12c3-7,12-6,30,6c23,15,25,19,14,49c-6,18-15,37-19,44c-4,6-3,15,3,18c8,5,7,11-1,21
		c-6,7-9,20-6,28c8,20-4,28-21,13c-13-10-14-8-8,16c5,22,2,32-16,47c-21,17-21,19-4,20c12,0,16,5,12,15c-3,8-2,15,3,15
		c18,0,18,38,0,54c-22,19-25,41-5,33c12-5,13-1,4,24c-5,16-7,40-4,53c4,16-1,29-14,41c-19,17-20,17-20,1c0-11-4-14-12-9
		c-7,4-16,8-20,8c-12,0-21,15-9,15c9,0,9,5,0,23s-9,20,2,10c7-7,18-13,24-13c5,1-1,9-14,20c-25,21-40,72-41,132c0,26-6,41-21,51
		c-14,10-22,28-24,56c-3,36-1,41,18,41c12,0,30-12,40-25c17-24,17-25,0-25c-17-1-17-2,1-15c17-13,17-17,5-32c-9-11-10-14-1-9
		c6,4,12,3,12-3c0-5-5-13-10-16c-6-4-8-11-4-16c3-6,12-5,21,3c14,11,15,10,9-10c-5-14-3-22,4-22s10-7,7-15c-4-8-2-17,3-20
		c15-9,12-25-5-25c-8,0-15-9-15-20s5-20,10-20c6,0,19-9,30-20c17-17,24-18,41-9c21,11,18,24-4,24c-7,0-12,11-12,25s-5,31-12,38
		c-9,9-9,20-3,38c12,32,13,27-10,54c-19,22-25,46-20,79c1,8-4,18-12,22c-10,7-10,9,0,9c6,0,12,9,12,20s-6,23-12,25c-17,7-21,65-6,82
		c8,10,5,18-12,33c-13,11-18,20-11,20c15,0,42,26,35,33c-3,3-12,3-19,1c-22-9-40,41-38,104c1,17-3,32-8,32s-9,11-9,24
		c0,14-4,28-10,31c-5,3-10,2-10-3c0-16-35-20-49-5c-7,8-10,17-6,21c3,3,10,0,14-7c7-10,13-10,29-2c11,6,29,8,39,5c13-4,12-1-6,14
		c-16,13-20,21-12,26s8,13,0,29c-9,15-9,22-1,25c7,2,8,11,2,28c-5,13-7,24-3,24c3,0-2,9-13,21c-15,16-16,24-6,39c10,16,9,21-8,30
		c-11,6-25,8-30,5c-6-3-10-4-10-2c0,3,15,14,33,26s25,21,16,21s-21,10-27,23c-15,28-24,109-12,102c14-9,30,29,19,46c-7,12-9,11-9-3
		c0-9-9-20-20-23s-20-10-20-15c0-4-11-11-25-14c-17-4-25-13-25-28c0-12,3-18,8-14c4,4,7,12,7,17s5,9,10,9c6,0,10-6,10-12
		c0-7,5-17,12-23c13-10,12-46,0-45c-25,2-37,13-26,26c8,10,6,12-10,9s-23,3-28,23c-3,15-13,33-20,41c-8,7-11,16-7,20c4,3,9,0,11-6
		c8-23,22-14,20,13c-1,15,4,29,11,31c6,3,12-3,12-12c0-15,2-15,16-4c13,10,17,10,24,0c10-18,30-5,30,19c0,10,5,22,10,25
		c13,8,13,25-1,25c-5,0-7-4-4-10s-1-7-9-4c-11,4-16,0-16-15c0-12-4-21-10-21c-20,0-9,24,25,57s46,63,25,63c-5,0-10,8-10,18
		c0,19-47,45-56,31c-12-21-23-7-18,24c7,35,30,77,43,77c4,0,7-20,6-45c-3-49,11-59,34-24c11,18,11,23-1,31c-10,7-10,11,0,15
		c6,2,12,11,12,18c0,9,8,11,22,7c16-4,20-2,15,10c-3,10,3,20,19,28c13,8,24,17,24,20c0,4,14,13,30,20c17,7,30,19,30,26
		c0,8,6,14,14,14s16,5,18,12c3,9,6,9,12,0c4-7,2-12-3-12c-6,0-11-4-11-10c0-5,8-10,19-10c14,0,17,6,14,24c-4,19,0,25,22,30
		c22,6,26,11,21,31c-8,33,11,41,34,15l19-21l20,20c12,12,33,21,47,21c20,0,25,4,20,16c-3,9-6,20-6,25s-4,9-10,9c-5,0-10-7-10-15
		s-9-15-20-15s-20,5-20,10c0,6,4,10,10,10c5,0,8,10,6,23c-3,26-39,35-62,16c-11-9-18-9-26-1s-21,5-50-11c-32-19-40-20-47-8
		s-13,12-24,3c-15-13-27-6-27,16c0,8,6,12,15,8c8-3,31,2,50,10c36,15,70,15,92,1c6-4,14-3,18,2c3,6,12,8,19,5s19,2,26,11
		c14,17,52,20,81,5c13-7,19-7,19,0c0,5,5,10,10,10c6,0,10-7,10-15c0-9,6-12,15-9c8,4,15,1,15-5s-3-10-7-10c-25,4-34-3-28-21
		c4-11,3-20-2-19c-20,3-33-2-33-15c0-21,36-14,58,11c10,13,21,20,24,18c3-3,18,1,34,10c26,13,29,13,32,0c6-28,42-10,45,23
		c0,12,3,19,6,17c2-3,11,5,19,16c8,12,17,17,21,11c9-14,51-25,51-13c0,18,60,44,74,32c9-8,16-4,26,14c13,24,14,24,32,8
		c21-19,34-12,23,14c-5,10-7,22-6,26c1,5-7,6-18,2c-10-3-37,1-60,9c-23,7-44,10-47,5s-10-9-17-9c-8,0-8,3,1,12c20,20,14,26-28,21
		c-22-3-40-1-40,4s-13,8-29,5c-16-2-32,1-35,7c-4,6-22,11-41,11s-37,5-41,11c-4,8-9,7-14-2c-12-18-37-20-51-3c-13,16-33,19-24,4
		c3-5,0-7-8-4c-18,6-32-12-17-21c11-7,4-25-10-25c-5,0-7,7-4,15c4,11-1,15-17,15c-23,1-23,1-5,15c18,13,18,15,2,21
		c-19,7-48-23-41-43c2-8-4-13-15-13c-24,0-37,20-13,20c17,1,16,2-2,16c-17,13-21,13-30,0c-10-12-13-12-24,6c-8,13-19,18-32,15
		c-14-4-23,1-29,16c-5,12-9,17-9,11c-1-7-10-14-21-17s-20-12-20-21c0-19,16-21,23-3c4,9,6,9,6-1c1-7,6-10,11-7c6,3,13-1,16-9
		c5-12,10-13,25-5c15,7,19,6,19-6c0-16-23-19-55-6c-11,5-27,5-36,0c-13-6-16-4-15,9c1,12-6,16-24,15l-25-3l23,10c24,10,26,35,3,35
		c-6,0-16,7-21,15s-10,10-10,4c0-18-38-24-51-8c-6,8-15,12-19,9c-13-8-57,19-52,33c2,8-2,10-13,6c-9-4-14-9-11-11c3-3-7-16-22-30
		l-27-24l28,6c21,4,27,3,21-6c-5-9-2-10,9-6s14,2,11-8c-7-17-32-27-39-15c-3,6-15,6-30,0s-27-6-30,0c-4,6-11,10-16,10c-6,0-8-4-5-9
		c8-13-13-18-61-15c-34,3-43,0-43-13c0-14-3-14-21,3c-17,15-23,16-40,6c-15-10-19-10-20,0c0,7-4,4-9-7s-9-14-9-6c-1,9-9,11-27,7
		c-55-14-133,40-94,64c9,6,9,10-3,16c-9,5-16,14-17,19c-1,6-8,9-16,7c-18-4-35,39-22,54c5,7,7,18,6,25c-2,9,4,13,16,11
		c11-2,25,3,30,10c11,14,42,30,60,32c5,1,13,10,18,21c5,13,6,7,2-19c-5-37-5-39,13-26c11,9,10,5-4-11c-27-30-29-44-7-35
		c10,4,14,1,11-6c-2-8-20-12-47-11c-36,2-41,1-30-12c7-8,16-12,21-9s9,0,9-7c0-10,3-10,12-1c15,15,28,15,28,1c0-5-5-7-12-3
		c-6,4-8,3-5-4c4-5,16-8,27-5c14,4,20,0,20-10c0-19,68-36,79-20c13,20,47,33,59,21c16-16,82-1,82,19c0,9-6,13-15,9c-9-3-18,1-21,9
		c-6,16-64,18-64,3c0-4-4-8-9-8s-8,7-7,16c0,9-6,18-15,19c-11,2-15-3-11-20c2-12-1-26-7-29c-7-4-11,1-11,13s-4,21-9,21
		c-11,0-23,59-15,72c3,5,14,0,24-12c22-26,33-26,25,0c-5,17-2,20,24,20c31,0,42,14,19,23c-10,4-10,6,0,6c6,1,12,11,12,24
		c0,32,9,38,32,26c17-9,19-8,17,13c-4,28,8,51,23,42c6-4,5-9-3-15c-11-6-11-11-2-20c16-16,27,10,21,46c-3,13,0,26,6,29c6,2,3,5-6,5
		c-10,1-18,6-18,11c0,6-7,10-16,10c-11,0-14-5-10-16c5-13,1-15-18-10c-20,5-26,1-35-24c-12-35-17-36-43-13c-15,13-21,14-27,5
		c-9-14-46-11-62,5c-9,9-7,11,4,9c9-1,20-5,23-9c14-14,25-6,19,13c-5,14-2,20,9,20c21,0,20,16-1,30c-15,8-13,9,8,4c20-4,33,1,54,20
		c15,14,24,30,20,35c-9,16,6,13,25-4c18-16,19-13,21,38c0,19,14,23,24,7c5-8,11-8,20,0c10,8,15,8,20,0c7-12-71-91-80-81
		c-4,3-4-1,0-9c3-8,15-16,28-16c12-1,31-4,42-7c50-13,50-13,49,21c-1,17,3,32,7,32c5,0,9-7,9-15s9-15,20-15s20,7,20,16
		c0,8-4,13-9,10s-11,1-15,9c-3,8-1,17,4,20c6,4,10,1,10-4c0-6,5-11,10-11c6,0,8,11,4,26c-5,19-4,25,5,20c6-4,9-12,6-17c-4-5-1-9,5-9
		s10,10,8,22c-2,13,3,23,10,24c24,3,26,4,15,15c-14,14,15,48,35,41c6-2,12,3,12,12s5,16,11,16c7,0,10,14,7,35c-3,23,0,35,8,35
		c7,0,10-8,7-20s0-20,6-20c7,0,9,4,6,10c-3,5,6,12,21,16c25,6,26,8,10,20c-16,11-16,13,4,27c11,8,20,21,18,28c-2,8,7,15,20,17
		c29,4,28,26-2,45c-23,15-25,14-55-23c-17-21-31-46-31-54c0-9-9-16-21-16c-11,0-17,5-14,10c4,6,3,10-2,9c-22-5-64,15-61,29
		c4,21,28,28,28,8c0-21,16-21,24,0c3,8,10,13,15,9c14-8,51,34,44,50c-2,8,5,20,16,27c29,18,26,38-4,38c-16,0-25-6-25-16
		c0-9-5-12-12-8c-7,5-9,1-6-12c6-22-11-43-29-37c-6,2-14-1-18-6c-3-6-11-11-16-11c-6,0-8,4-4,9c3,5,0,13-6,16c-7,5-9-1-7-16
		c2-20-1-24-22-24c-18,0-25-5-25-20c0-14-9-21-35-26c-18-4-39-13-45-21c-5-7-15-13-22-13c-16,0-29,15-13,15c7,0,11,3,8,6
		c-10,10-99-60-93-73c2-8-2-16-10-19c-8-4-15-15-15-26s-5-18-12-15c-7,2-11,14-10,27c3,18,0,21-13,16c-9-3-23-6-31-6s-14-7-14-15
		s-6-15-12-15c-7,0-20-5-28-10c-13-9-13-11,0-20c12-8,11-10-6-10c-11,0-24-3-28-7c-4-5-20-8-34-9c-15,0-26-6-25-12c2-6-3-9-10-6
		c-7,2-21-2-32-11c-17-13-18-16-5-25c8-5,20-8,27-5c7,2,15,0,18-5c7-11-5-40-17-40c-5,0-7,4-3,10c3,5-8,16-25,25c-27,14-30,14-30,0
		c0-8-4-16-10-16c-5-1-14-2-18-3c-31-4-44-51-19-67c12-8,2-26-23-39c-14-7-18-6-16,5c1,8,5,18,9,21c17,17,6,42-19,42
		c-18,0-24-5-20-15c3-8,1-11-4-8c-13,8-13-8,0-21c12-12,3-44-13-44c-8,0-8,3,0,11c12,12,7,39-8,39c-5,0-9-6-9-13c0-15-27-16-48-3
		c-7,4-16,5-20,1c-3-3,0-10,8-15c13-9,13-10,0-11c-8-1-21-1-28,0c-10,2-11-2-2-18c12-23,49-28,67-10c8,8,11,4,10-14
		c-2-27-37-47-37-22c0,16-40,16-57-1c-7-6-32-18-57-25c-38-11-45-17-40-32c4-12,2-17-4-13s-16-3-22-14s-15-20-21-20s-7,6-3,13
		c4,6-2,3-14-7c-12-11-22-25-22-33c0-7-5-13-11-13c-18,0-39-28-33-44c5-12,2-15-10-10c-9,3-19,17-22,30s-9,24-13,24s-8,7-8,15
		s6,15,14,15c7,0,13,5,13,10c0,6-4,10-10,10c-5,0-10,11-10,24c0,14-5,28-12,32c-8,5-9,0-6-14c4-12,3-22-2-22c-14,0-19,27-10,63
		c4,20,4,39-2,45c-11,11,1,44,13,36c5-3,9,0,9,5c0,14-17,14-25,1s-25-3-25,16c0,8,7,14,15,14s15,5,15,10c0,6-9,10-20,10
		c-18,0-19,3-10,20c9,16,8,20-5,20c-9,0-25-5-35-10c-16-8-18-8-14,5c4,8,16,15,29,15s26,7,29,16c9,23,8,27-9,20c-9-3-24,3-35,14
		s-24,20-30,20c-9,0-30,31-30,45c0,3,22,4,49,0c59-7,71,5,37,37c-18,16-26,36-29,69c-2,25-11,57-20,70c-22,30-21,46,0,58
		c10,5,15,13,11,17s-19-1-32-10c-29-19-36-20-36-6c0,6,6,10,14,10c7,0,19,6,25,14c9,11,8,17-4,29c-11,12-12,17-2,20c9,4,9,8-1,15
		c-8,5-16,29-19,53s-10,49-15,56s-7,17-3,22c10,17-14,51-35,51C3346.58,15033.24,3333.58,15024.24,3327.58,15013.24z
		 M3377.58,14943.24c0-5-4-10-10-10c-5,0-10,5-10,10c0,6,5,10,10,10C3373.58,14953.24,3377.58,14949.24,3377.58,14943.24z
		 M3402.58,14864.24c3-5,1-12-4-15s-11,1-15,9C3377.58,14874.24,3392.58,14879.24,3402.58,14864.24z M3392.58,14804.24
		c-3-6-11-11-16-11s-4,6,3,14C3393.58,14823.24,3403.58,14820.24,3392.58,14804.24z M3417.58,14723.24c0-5-4-10-10-10
		c-5,0-10,5-10,10c0,6,5,10,10,10C3413.58,14733.24,3417.58,14729.24,3417.58,14723.24z M3374.58,14693.24c9-12,6-15-18-16
		c-16-1-29,3-29,7c0,5,7,9,15,9s15,5,15,12c0,6,1,9,3,7C3361.58,14710.24,3368.58,14701.24,3374.58,14693.24z M4797.58,14693.24
		c0-5-4-10-10-10c-5,0-10,5-10,10c0,6,5,10,10,10C4793.58,14703.24,4797.58,14699.24,4797.58,14693.24z M4652.58,14683.24
		c3-5-1-10-10-10s-13,5-10,10c3,6,8,10,10,10S4649.58,14689.24,4652.58,14683.24z M4512.58,14624.24c-3-6-11-8-17-5c-6,4-5,9,3,15
		C4514.58,14644.24,4521.58,14638.24,4512.58,14624.24z M3457.58,14594.24c0-5-7-12-16-15c-14-5-15-4-4,9
		C3451.58,14605.24,3457.58,14607.24,3457.58,14594.24z M4442.58,14573.24c3-5-1-10-9-10c-9,0-16,5-16,10c0,6,4,10,9,10
		C4432.58,14583.24,4439.58,14579.24,4442.58,14573.24z M4687.58,14563.24c0-5-7-10-15-10s-15,5-15,10c0,6,7,10,15,10
		S4687.58,14569.24,4687.58,14563.24z M4562.58,14543.24c-3-5-10-10-16-10c-5,0-9,5-9,10c0,6,7,10,16,10
		C4561.58,14553.24,4565.58,14549.24,4562.58,14543.24z M4317.58,14500.24c0-7-7-22-15-33c-16-20-16-18,0,31
		C4307.58,14516.24,4317.58,14518.24,4317.58,14500.24z M4244.58,14453.24c1-11-2-20-8-20c-5,0-9,5-9,11c0,5-4,7-10,4
		c-5-3-10-2-10,4c0,8,14,18,30,20C4240.58,14473.24,4243.58,14464.24,4244.58,14453.24z M4576.58,14452.24c-16-10-23-4-14,10
		c3,6,11,8,17,5C4585.58,14463.24,4584.58,14458.24,4576.58,14452.24z M3377.58,14459.24c0-3-4-8-10-11c-5-3-10-1-10,4
		c0,6,5,11,10,11C3373.58,14463.24,3377.58,14461.24,3377.58,14459.24z M4524.58,14391.24c-3-8-6-5-6,6c-1,11,2,17,5,13
		C4526.58,14407.24,4527.58,14398.24,4524.58,14391.24z M3374.58,14381.24c-3-8-6-5-6,6c-1,11,2,17,5,13
		C3376.58,14397.24,3377.58,14388.24,3374.58,14381.24z M4137.58,14393.24c0-5-7-10-16-10c-8,0-12,5-9,10c3,6,10,10,16,10
		C4133.58,14403.24,4137.58,14399.24,4137.58,14393.24z M3481.58,14338.24c3-8,1-15-4-15c-6,0-10,7-10,15s2,15,4,15
		S3477.58,14346.24,3481.58,14338.24z M4247.58,14293.24c0-6-10-9-22-7c-14,1-22-3-20-10c1-7-4-13-12-13c-9,0-13-8-10-22
		c4-22,4-22-6,1c-8,19-7,27,8,41C4215.58,14311.24,4247.58,14316.24,4247.58,14293.24z M3452.58,14274.24c0-17-5-27-11-24
		c-14,5-13,35,1,45c6,4,10,8,10,8S3452.58,14290.24,3452.58,14274.24z M3498.58,14260.24c-10-9-11-8-5,6c3,10,9,15,12,12
		S3505.58,14267.24,3498.58,14260.24z M4152.58,14225.24c-42-14-40-12-25-23c12-8,10-10-9-5c-14,3-30-1-38-10c-8-8-18-12-23-9
		c-4,3-10-4-13-15s-13-20-22-20c-11,0-15-5-12-14c4-9-7-20-29-31c-20-9-37-15-39-13c-11,11-7,37,9,61c16,23,24,27,47,22
		c22-5,29-3,29,9c0,9,5,16,11,16s17,6,25,14s14,19,14,25s5,11,10,11c6,0,10-8,10-17c0-12,5-8,16,12c22,43,38,50,44,17
		C4160.58,14240.24,4158.58,14227.24,4152.58,14225.24z M3494.58,14227.24c-3-3-12-4-19-1c-8,3-5,6,6,6
		C3492.58,14233.24,3498.58,14230.24,3494.58,14227.24z M4337.58,14214.24c0-26-26-47-33-26c-4,8-3,14,1,14c19-3,23,2,12,16
		c-10,12-10,15,4,15C4330.58,14233.24,4337.58,14225.24,4337.58,14214.24z M3443.58,14198.24c-5-18-2-25,9-25c18,0,20-21,3-38
		c-9-9-9-12,0-12c7,0,11-5,10-11c-4-16,54-32,63-17c4,6,12,9,19,6c9-3,8-9-5-21c-13-13-20-15-31-7c-9,8-18,9-31,1c-10-6-13-11-8-11
		c6,0,3-5-5-10c-10-6-11-10-2-10c6,0,12-7,12-15c0-25-40-18-50,9c-5,13-15,26-22,29s-2,6,11,6c19,1,21,4,12,15c-8,10-9,16-2,21
		c12,7,10,32-3,53c-10,17,1,62,15,62C3445.58,14223.24,3447.58,14213.24,3443.58,14198.24z M3509.58,14185.24c-2-12,1-22,7-22
		c5,0,9-9,8-20c-1-13-7-19-17-17c-8,1-14,11-12,21s-3,28-11,40c-14,21-14,22,6,21
		C3506.58,14207.24,3511.58,14201.24,3509.58,14185.24z M4197.58,14173.24c0-5-4-10-10-10c-5,0-10,5-10,10c0,6,5,10,10,10
		C4193.58,14183.24,4197.58,14179.24,4197.58,14173.24z M3905.58,14069.24c-10-11-16-26-14-32c3-7-3-10-14-7c-10,3-27-4-39-16
		s-21-17-21-12s-10,11-22,15l-23,6l22,15c12,8,28,13,36,10c7-3,20,2,28,11c12,15,12,16,0,10c-9-6-12-5-9,5c3,8,12,13,21,11
		c9-1,21,8,28,20c12,22,12,22,19,3C3921.58,14096.24,3917.58,14082.24,3905.58,14069.24z M3357.58,14105.24c0-14-11-21-26-15
		c-8,3-11,9-8,14C3330.58,14115.24,3357.58,14116.24,3357.58,14105.24z M3327.58,14063.24c0-5-2-10-4-10c-3,0-8,5-11,10
		c-3,6-1,10,4,10C3322.58,14073.24,3327.58,14069.24,3327.58,14063.24z M4070.58,14051.24c9,2,17-2,17-8s-5-8-11-4c-6,3-14,2-18-4
		c-4-7-11-4-20,9c-10,17-10,20,1,13C4046.58,14052.24,4060.58,14050.24,4070.58,14051.24z M2134.58,14047.24c-3-3-12-4-19-1
		c-8,3-5,6,6,6C2132.58,14053.24,2138.58,14050.24,2134.58,14047.24z M3357.58,14039.24c0-2-8-10-17-17c-16-13-17-12-4,4
		S3357.58,14047.24,3357.58,14039.24z M2307.58,14023.24c0-5-4-10-10-10c-5,0-10,5-10,10c0,6,5,10,10,10
		C2303.58,14033.24,2307.58,14029.24,2307.58,14023.24z M2031.58,14015.24c3-5-1-9-9-9s-12,4-9,9c3,4,7,8,9,8
		S2028.58,14019.24,2031.58,14015.24z M3469.58,13982.24c18-16,28-29,22-27s-25-13-43-32c-21-22-29-27-22-13c13,26,14,63,2,63
		c-5,0-7,9-4,20s7,20,9,20C3434.58,14013.24,3451.58,13999.24,3469.58,13982.24z M2087.58,13993.24c0-5,6-10,13-10c8,0,19-11,25-25
		c7-15,8-25,2-25s-10,7-10,16s-13,21-30,27c-32,12-40,27-15,27C2080.58,14003.24,2087.58,13999.24,2087.58,13993.24z
		 M2625.58,13986.24c5-10,7-24,5-30c-3-8,4-13,18-13c17,0,20-3,12-11c-15-15-28-5-47,33c-19,37-19,38-6,38
		C2612.58,14003.24,2620.58,13995.24,2625.58,13986.24z M3293.58,13986.24c0-11,6-18,16-18c9,0,20-4,25-9c4-5,3-6-4-2s-13,2-13-4
		s-4-8-10-5c-5,3-10,1-10-4c0-6,5-11,12-11c6,0,8-3,5-6c-4-4-13-1-22,6c-16,13-21,70-6,70
		C3291.58,14003.24,3294.58,13995.24,3293.58,13986.24z M3607.58,13995.24c0-13-12-22-22-16s-1,24,13,24
		C3603.58,14003.24,3607.58,13999.24,3607.58,13995.24z M3769.58,13997.24c11-11-5-45-18-40c-8,3-14,1-14-5c0-5-11-14-25-19
		s-25-13-24-17c4-23-5-32-46-43c-47-13-62-10-50,10c4,7,18,10,32,7c21-4,24-2,19,18c-6,24,19,45,26,23c5-14,68,40,68,59
		C3737.58,14003.24,3759.58,14008.24,3769.58,13997.24z M4147.58,13981.24c0-4-4-8-9-8c-6,0-12,4-15,8c-3,5,1,9,9,9
		S4147.58,13986.24,4147.58,13981.24z M2507.58,13973.24c0-17-5-25-12-22c-5,1-8-5-8-15c0-9-2-14-5-11c-9,8,6,58,16,58
		C2503.58,13983.24,2507.58,13979.24,2507.58,13973.24z M2167.58,13960.24c0-7,9-19,21-27c11-8,27-28,35-43c9-17,20-25,27-21
		c8,4,7,2-1-7c-11-12-16-11-32,9c-11,13-24,21-30,17c-5-3-13,2-17,12s-13,24-20,31c-6,7-10,19-7,27
		C2150.58,13976.24,2167.58,13978.24,2167.58,13960.24z M4691.58,13958.24c4-11-1-15-19-15c-26,0-34,15-12,23
		C4680.58,13975.24,4685.58,13974.24,4691.58,13958.24z M4727.58,13963.24c0-5-5-10-11-10c-5,0-7,5-4,10c3,6,8,10,11,10
		C4725.58,13973.24,4727.58,13969.24,4727.58,13963.24z M2582.58,13954.24c-3-6,3-14,12-20c10-5,14-13,10-17c-11-11-41,22-33,35
		c4,6,9,11,12,11S2586.58,13959.24,2582.58,13954.24z M2547.58,13939.24c0-3-4-8-10-11c-5-3-10-1-10,4c0,6,5,11,10,11
		C2543.58,13943.24,2547.58,13941.24,2547.58,13939.24z M3343.58,13906.24c-10-10-19,5-10,18c6,11,8,11,12,0
		C3347.58,13917.24,3346.58,13909.24,3343.58,13906.24z M3278.58,13880.24c-8-8-11-3-11,19c1,25,2,27,11,11
		C3286.58,13896.24,3286.58,13888.24,3278.58,13880.24z M5167.58,13919.24c0-3-4-8-10-11c-5-3-10-1-10,4c0,6,5,11,10,11
		C5163.58,13923.24,5167.58,13921.24,5167.58,13919.24z M4192.58,13903.24c3-5,1-10-4-10c-6,0-11,5-11,10c0,6,2,10,4,10
		C4184.58,13913.24,4189.58,13909.24,4192.58,13903.24z M4252.58,13903.24c3-5,1-10-4-10c-6,0-11,5-11,10c0,6,2,10,4,10
		C4244.58,13913.24,4249.58,13909.24,4252.58,13903.24z M5272.58,13903.24c-3-5-10-10-16-10c-5,0-9,5-9,10c0,6,7,10,16,10
		C5271.58,13913.24,5275.58,13909.24,5272.58,13903.24z M3472.58,13893.24c3-6-4-10-17-10c-18,0-20,2-8,10
		C3466.58,13905.24,3465.58,13905.24,3472.58,13893.24z M2887.58,13858.24c-7-9-15-13-18-10c-3,2,1,11,8,20s15,13,18,10
		C2898.58,13876.24,2894.58,13867.24,2887.58,13858.24z M3332.58,13854.24c0-36-9-45-44-47c-24-1-27,2-23,23c3,17,10,23,26,21
		c11-2,21,3,22,10c2,20,4,22,12,22C3329.58,13883.24,3332.58,13870.24,3332.58,13854.24z M3427.58,13877.24c0-3-7-12-15-20
		c-12-13-15-13-15-1c0,7,3,17,7,20C3412.58,13884.24,3427.58,13885.24,3427.58,13877.24z M2112.58,13853.24c3-5-1-10-10-10
		s-13,5-10,10c3,6,8,10,10,10S2109.58,13859.24,2112.58,13853.24z M3443.58,13838.24c-3-17,0-25,10-25c19,0,18-16-2-24
		c-10-4-14-12-10-22c4-11-1-18-14-21c-11-3-17-9-14-14s0-9-5-9c-19,0-12,22,9,27c11,3,17,10,13,16c-9,14-8,71,1,85
		C3443.58,13870.24,3448.58,13865.24,3443.58,13838.24z M2287.58,13845.24c0-13-12-22-22-16s-1,24,13,24
		C2283.58,13853.24,2287.58,13849.24,2287.58,13845.24z M2372.58,13843.24c3-5,1-10-4-10c-6,0-11,5-11,10c0,6,2,10,4,10
		C2364.58,13853.24,2369.58,13849.24,2372.58,13843.24z M2408.58,13826.24c13-16,12-17-3-4c-10,7-18,15-18,17
		C2387.58,13847.24,2395.58,13842.24,2408.58,13826.24z M3509.58,13836.24c-10-4-9-9,4-24c16-18,16-19-12-19c-19,0-24,3-16,8
		c7,5,10,16,6,25c-4,12-1,17,12,16C3515.58,13842.24,3517.58,13839.24,3509.58,13836.24z M2137.58,13815.24c0-4-9-8-19-8
		c-15,0-17,3-9,13C2119.58,13832.24,2137.58,13829.24,2137.58,13815.24z M2337.58,13819.24c0-19-27-28-34-11c-3,9,0,12,10,8
		c7-3,14,0,14,6s2,11,5,11S2337.58,13827.24,2337.58,13819.24z M3804.58,13827.24c-3-3-12-4-19-1c-8,3-5,6,6,6
		C3802.58,13833.24,3808.58,13830.24,3804.58,13827.24z M2469.58,13804.24c2-5,15-13,31-16c22-6,26-4,21,9c-4,11-2,15,8,11
		c20-8,23-65,3-65c-8,0-15,7-15,15s-5,15-11,15c-5,0-7-4-4-10c9-15-27-11-49,5c-11,8-14,15-8,15c7,0,12,5,12,11s-7,8-16,5
		c-8-3-12-2-9,4C2440.58,13816.24,2464.58,13816.24,2469.58,13804.24z M4447.58,13803.24c17,4,29,1,37-9c11-14,12-14,13,4
		c0,14,3,16,11,8c15-15,2-34-19-31c-9,2-16-3-14-9c2-15-14-17-23-3c-4,6-16,3-31-7c-24-15-25-15-22,2c2,10-2,20-9,22
		c-6,2-13-6-15-19s-10-23-18-23c-24-1-60-15-60-25c0-4-17-11-38-15c-21-3-44-14-51-24c-15-20-56-17-65,5c-3,8,0,11,10,7
		c7-3,14,1,14,8s3,9,7,6c10-11,33,13,33,34c0,11,6,20,13,21c6,0,17,2,23,2c6,1,19,8,28,15c9,8,39,16,67,19c27,2,52,9,55,14
		s11,5,17,0C4417.58,13800.24,4433.58,13799.24,4447.58,13803.24z M3342.58,13764.24c-3-6-10-9-15-6s-11,1-15-5c-3-5-15-15-26-20
		c-15-8-19-8-17,2c2,7-3,12-9,11c-28-6-11,18,25,35c30,15,40,16,51,6C3343.58,13781.24,3346.58,13770.24,3342.58,13764.24z
		 M4027.58,13767.24c-14-36-13-43,10-37c15,4,20,0,20-13c0-16-2-17-10-4c-7,10-12,11-17,4c-5-6-16-13-26-17c-15-6-17-3-11,15
		c6,20,5,21-9,9c-9-7-15-23-14-34c2-17-4-22-24-22c-15,0-33-6-41-13s-27-13-42-14c-21-2-26-7-23-20c4-14,1-17-18-12
		c-17,4-33-4-66-35c-73-67-78-71-104-73c-14-1-25-8-25-15s-6-13-14-13s-17-7-20-16c-3-8-9-13-14-10c-4,2-14,0-22-5c-13-8-13-10,0-19
		c11-7,12-10,2-10c-7,0-20,7-28,15c-13,13-12,17,6,35c11,11,20,26,21,33c1,6,4,1,8-12c6-24,7-23,31,12c15,21,36,39,52,42
		c16,4,30,15,34,28c10,31,26,43,54,41c27-2,63,23,54,38c-3,4-2,8,3,7c21-4,33,2,33,16c0,8,9,15,20,15s19,6,18,13c-2,7,5,11,15,9
		c9-2,20,4,23,13c3,8,11,15,16,15c6,0,19,9,29,21c10,11,22,19,26,16c5-3,19,1,33,9c14,7,26,13,27,14
		C4035.58,13793.24,4032.58,13781.24,4027.58,13767.24z M4157.58,13789.24c0-2-9-6-20-9s-20-1-20,4s9,9,20,9
		S4157.58,13791.24,4157.58,13789.24z M4574.58,13787.24c-3-3-12-4-19-1c-8,3-5,6,6,6
		C4572.58,13793.24,4578.58,13790.24,4574.58,13787.24z M4619.58,13785.24c-7-5-10-16-6-25c3-10,1-17-5-17c-12,0-15,32-4,43
		c3,4,11,7,17,7S4627.58,13789.24,4619.58,13785.24z M2357.58,13773.24c0-5-7-7-15-4c-8,4-15,8-15,10s7,4,15,4
		S2357.58,13779.24,2357.58,13773.24z M2631.58,13771.24c-3-4-14-8-25-8s-18,4-14,9c3,6,14,9,25,8
		C2627.58,13779.24,2633.58,13775.24,2631.58,13771.24z M2418.58,13738.24c5,4,9,4,9,1s-8-10-19-15c-15-9-18-7-16,12
		c3,31,7,35,12,14C2406.58,13741.24,2413.58,13735.24,2418.58,13738.24z M2687.58,13759.24c0-7-40-14-44-7c-3,4,6,8,20,9
		C2676.58,13762.24,2687.58,13761.24,2687.58,13759.24z M4687.58,13753.24c13-8,13-10-2-10c-9,0-20,5-23,10
		C4654.58,13766.24,4667.58,13766.24,4687.58,13753.24z M2268.58,13722.24c-9-22-10-22-10-3c-1,11,2,24,6,27
		C2276.58,13758.24,2278.58,13746.24,2268.58,13722.24z M2582.58,13733.24c6-9-8-14-27-11c-5,0-7-2-7-6c3-20-2-24-16-13
		c-13,11-13,14,2,26C2556.58,13745.24,2574.58,13747.24,2582.58,13733.24z M2648.58,13725.24c-7-2-18,1-23,6c-8,8-4,9,13,5
		C2651.58,13732.24,2656.58,13728.24,2648.58,13725.24z M2628.58,13706.24c13-16,12-17-3-4c-10,7-18,15-18,17
		C2607.58,13727.24,2615.58,13722.24,2628.58,13706.24z M4397.58,13698.24c0-8-7-15-15-15c-9,0-12,6-9,15c4,8,10,15,15,15
		S4397.58,13706.24,4397.58,13698.24z M2485.58,13683.24c5-13,3-13-11-1c-9,7-24,11-32,7c-8-3-15-1-15,5
		C2427.58,13710.24,2480.58,13700.24,2485.58,13683.24z M2597.58,13693.24c0-5-2-10-4-10c-3,0-8,5-11,10c-3,6-1,10,4,10
		C2592.58,13703.24,2597.58,13699.24,2597.58,13693.24z M4453.58,13676.24c-3-3-13-2-23,2c-17,7-17,8,2,15
		S4466.58,13688.24,4453.58,13676.24z M4547.58,13693.24c0-5-4-10-10-10c-5,0-10,5-10,10c0,6,5,10,10,10
		C4543.58,13703.24,4547.58,13699.24,4547.58,13693.24z M4934.58,13683.24c-1-12-5-16-10-11s-6,14-3,20
		C4932.58,13708.24,4936.58,13705.24,4934.58,13683.24z M4853.58,13674.24c-10-11-15-25-11-30c3-6-1-11-9-11c-9,0-16,2-16,5
		c0,13,33,55,43,55C4865.58,13693.24,4862.58,13684.24,4853.58,13674.24z M4114.58,13656.24c-15-16-17-16-17-1c0,9,6,18,13,21
		C4130.58,13683.24,4132.58,13674.24,4114.58,13656.24z M2391.58,13638.24c3-8,1-15-4-15c-6,0-10,7-10,15s2,15,4,15
		S2387.58,13646.24,2391.58,13638.24z M3887.58,13623.24c0-5-5-10-11-10c-5,0-7,5-4,10c3,6,8,10,11,10
		C3885.58,13633.24,3887.58,13629.24,3887.58,13623.24z M4912.58,13615.24c-3-3-11,0-18,7c-9,10-8,11,6,5
		C4910.58,13624.24,4915.58,13618.24,4912.58,13615.24z M4592.58,13604.24c17-2-9-19-42-26c-18-3-34-2-38,4c-3,6,1,11,9,11
		c9,0,16,4,16,9C4537.58,13609.24,4551.58,13610.24,4592.58,13604.24z M4752.58,13603.24c3-5-1-10-9-10c-9,0-16-5-16-11c0-5-4-8-9-4
		c-6,3-14-3-20-12c-5-10-12-15-16-11c-3,3,1,12,10,19c9,8,21,19,28,26C4735.58,13615.24,4744.58,13616.24,4752.58,13603.24z
		 M4061.58,13538.24c-9-14-22-25-28-24c-20,4-66-13-66-23c0-6-11-7-25-4c-20,5-31,0-49-21c-14-16-28-25-32-21c-4,5,1,17,11,28
		c15,17,16,20,3,20c-9,0-19-10-23-22c-4-16-8-19-12-10c-3,8,1,25,8,39c11,20,11,26-1,33c-11,7-11,10-2,10c7,0,15-6,18-14
		c7-17,54-8,54,10c0,22,29,29,43,10c11-16,15-16,42-2c16,8,32,13,36,10c5-2,14,6,21,18c10,19,13,20,16,6
		C4077.58,13572.24,4071.58,13553.24,4061.58,13538.24z M4482.58,13564.24c-8-13-45-15-45-2c0,5,10,11,23,13
		C4487.58,13580.24,4491.58,13578.24,4482.58,13564.24z M2873.58,13538.24c-3-8,0-15,6-15s9-2,6-5s-16-1-29,4c-18,7-20,10-6,10
		c10,1,15,6,12,11c-3,6-1,10,5,10C2874.58,13553.24,2877.58,13546.24,2873.58,13538.24z M4645.58,13547.24c33-9,27-19-13-21
		c-25-1-35,3-35,13C4597.58,13554.24,4609.58,13556.24,4645.58,13547.24z M3068.58,13512.24c-9-22-10-22-10-3c-1,11,2,24,6,27
		C3076.58,13548.24,3078.58,13536.24,3068.58,13512.24z M4584.58,13513.24c-1-16-5-30-8-30c-11,0-19,29-13,45
		C4573.58,13554.24,4586.58,13544.24,4584.58,13513.24z M2974.58,13501.24c-3-8-6-5-6,6c-1,11,2,17,5,13
		C2976.58,13517.24,2977.58,13508.24,2974.58,13501.24z M4550.58,13477.24c-7-19-16-18-30,5c-10,15-10,21,0,24
		C4537.58,13512.24,4557.58,13494.24,4550.58,13477.24z M2998.58,13480.24c-10-9-11-8-5,6c3,10,9,15,12,12
		S3005.58,13487.24,2998.58,13480.24z M4485.58,13479.24c-7-8-15-12-17-11c-5,6,10,25,20,25
		C4493.58,13493.24,4492.58,13487.24,4485.58,13479.24z M3767.58,13479.24c0-3-4-8-10-11c-5-3-10-1-10,4c0,6,5,11,10,11
		C3763.58,13483.24,3767.58,13481.24,3767.58,13479.24z M3817.58,13458.24c0-16-6-25-16-25c-8,0-12-4-9-10c3-5-1-10-9-10
		c-12,0-13,6-5,32c5,18,9,34,9,35c0,2,7,3,15,3C3811.58,13483.24,3817.58,13474.24,3817.58,13458.24z M3027.58,13463.24
		c0-5-4-10-10-10c-5,0-10,5-10,10c0,6,5,10,10,10C3023.58,13473.24,3027.58,13469.24,3027.58,13463.24z M4267.58,13453.24
		c-8-5-19-10-25-10c-5,0-3,5,5,10s20,10,25,10C4278.58,13463.24,4275.58,13458.24,4267.58,13453.24z M4321.58,13454.24
		c3-5-3-11-15-14c-16-4-18-3-8,9C4311.58,13465.24,4314.58,13466.24,4321.58,13454.24z M4457.58,13453.24c0-5-4-10-9-10
		c-6,0-13,5-16,10c-3,6,1,10,9,10C4450.58,13463.24,4457.58,13459.24,4457.58,13453.24z M3691.58,13438.24c3-8,1-15-4-15
		c-6,0-10,7-10,15s2,15,4,15S3687.58,13446.24,3691.58,13438.24z M3510.58,13397.24c-9-25-28-15-29,16c-1,29,0,30,17,14
		C3508.58,13418.24,3513.58,13405.24,3510.58,13397.24z M4481.58,13428.24c-6-16-24-21-24-7c0,11,11,22,21,22
		C4483.58,13443.24,4484.58,13436.24,4481.58,13428.24z M2927.58,13429.24c0-3-4-8-10-11c-5-3-10-1-10,4c0,6,5,11,10,11
		C2923.58,13433.24,2927.58,13431.24,2927.58,13429.24z M4187.58,13408.24c-7-9-15-13-18-10c-3,2,1,11,8,20s15,13,18,10
		C4198.58,13426.24,4194.58,13417.24,4187.58,13408.24z M4390.58,13403.24c5-21,3-26-12-26c-11,0-17,6-15,13
		C4379.58,13443.24,4380.58,13444.24,4390.58,13403.24z M4445.58,13408.24c-3-3-13-2-22,1c-14,5-15,9-4,15
		C4432.58,13432.24,4455.58,13418.24,4445.58,13408.24z M3457.58,13366.24c-10-16-10-15-5,5c4,15,2,22-7,22s-9,3,2,10
		C3466.58,13415.24,3473.58,13391.24,3457.58,13366.24z M3618.58,13389.24c-9-11-9-15,1-19c8-4,7-6-4-6c-20-1-21,0-12,23
		c3,9,11,16,16,16C3625.58,13403.24,3625.58,13397.24,3618.58,13389.24z M3727.58,13383.24c0-5-2-10-4-10c-3,0-8,5-11,10
		c-3,6-1,10,4,10C3722.58,13393.24,3727.58,13389.24,3727.58,13383.24z M4331.58,13381.24c11-10,9-16-10-30c-25-20-44-24-26-6
		c7,7,12,20,12,30C4307.58,13396.24,4313.58,13398.24,4331.58,13381.24z M2758.58,13365.24c6,9,9,9,9,1c0-6-4-14-9-17
		c-14-9-41,5-41,21c0,12,3,12,16-2C2747.58,13355.24,2752.58,13354.24,2758.58,13365.24z M4022.58,13365.24c11-10,26-29,34-42
		c14-25,14-25-7-7c-20,18-21,18-32,0c-10-15-10-14-5,11c4,20,1,32-12,42c-10,7-13,13-8,13
		C3998.58,13382.24,4011.58,13374.24,4022.58,13365.24z M2794.58,13351.24c-3-8-6-5-6,6c-1,11,2,17,5,13
		C2796.58,13367.24,2797.58,13358.24,2794.58,13351.24z M3394.58,13357.24c-3-3-12-4-19-1c-8,3-5,6,6,6
		C3392.58,13363.24,3398.58,13360.24,3394.58,13357.24z M3947.58,13339.24c0-2-7-7-16-10c-8-3-12-2-9,4
		C3928.58,13343.24,3947.58,13347.24,3947.58,13339.24z M3343.58,13299.24c-9-18-16-23-21-16c-4,6,1,19,11,29
		C3358.58,13336.24,3361.58,13332.24,3343.58,13299.24z M4242.58,13323.24c3-5,2-10-4-10c-5,0-13,5-16,10c-3,6-2,10,4,10
		C4231.58,13333.24,4239.58,13329.24,4242.58,13323.24z M3872.58,13293.24c-5-15-10-19-17-12s-6,15,3,25
		C3876.58,13325.24,3881.58,13320.24,3872.58,13293.24z M3967.58,13307.24c0-8-4-12-10-9c-5,3-10,10-10,16c0,5,5,9,10,9
		C3963.58,13323.24,3967.58,13316.24,3967.58,13307.24z M4198.58,13273.24c6,0,7-5,3-11c-11-19-38,16-29,38c8,16,9,16,12-4
		C4187.58,13283.24,4193.58,13273.24,4198.58,13273.24z M4587.58,13307.24c0-3-8-13-17-22c-16-16-16-16-11,0c4,9,2,19-5,22
		c-7,2-2,5,11,5C4577.58,13313.24,4587.58,13310.24,4587.58,13307.24z M3178.58,13294.24c-8-5-11-16-6-30c5-18,2-21-19-21
		c-14,0-26-5-26-11c0-5-4-7-10-4c-5,3-10,0-10-8c0-9-9-13-25-12c-30,4-30,2-8-21c13-13,14-16,3-12c-8,3-25-3-37-14
		c-21-20-43-18-43,4c0,6,9,8,20,5c25-7,34,7,15,23c-17,14-20,30-4,30c5,0,8-4,4-9c-3-5-1-12,5-16c5-3,10,1,10,10c0,10,7,15,18,13
		s17,3,17,17c0,13,8,21,23,23c12,2,27,12,32,23c6,10,21,19,33,19C3186.58,13303.24,3188.58,13300.24,3178.58,13294.24z
		 M3497.58,13282.24c0-6-4-7-10-4c-5,3-10,11-10,16c0,6,5,7,10,4C3493.58,13295.24,3497.58,13287.24,3497.58,13282.24z
		 M4217.58,13293.24c0-5-2-10-4-10c-3,0-8,5-11,10c-3,6-1,10,4,10C4212.58,13303.24,4217.58,13299.24,4217.58,13293.24z
		 M4647.58,13288.24c0-8-4-15-10-15c-5,0-7,7-4,15c4,8,8,15,10,15S4647.58,13296.24,4647.58,13288.24z M3905.58,13274.24
		c10-6,7-10-11-13c-18-4-24-1-20,9C3880.58,13285.24,3887.58,13286.24,3905.58,13274.24z M3460.58,13256.24c-2-10-19-25-37-34
		c-30-15-32-15-33,1c-1,10,11,23,30,32C3463.58,13276.24,3466.58,13276.24,3460.58,13256.24z M3845.58,13258.24c-22-18-96-51-92-41
		c3,7,16,19,30,26c13,7,24,17,24,21s9,5,20,2C3839.58,13263.24,3846.58,13259.24,3845.58,13258.24z M4447.58,13263.24
		c0-5-5-10-11-10c-5,0-7,5-4,10c3,6,8,10,11,10C4445.58,13273.24,4447.58,13269.24,4447.58,13263.24z M3600.58,13241.24
		c23-25,14-51-21-60c-19-5-32-15-32-24c0-10-6-14-15-10c-10,3-15,1-14-7c4-24-14-47-37-47c-13,0-24-4-24-9s-16-16-35-25
		s-39-26-45-36c-14-27-33-25-47,5c-6,14-7,23-3,20c5-3,11-1,15,5c3,5,0,10-7,11c-7,0-3,4,10,10c13,5,21,13,17,18c-3,5,3,16,14,23
		c10,7,20,22,22,32c5,26,23,30,42,11c10-9,18-11,22-5c3,5,1,10-4,10c-6,0-11,5-11,10c0,6,12,9,28,7c19-3,34,3,49,20
		c13,13,31,23,40,21c12-2,18,3,17,15C3579.58,13256.24,3584.58,13258.24,3600.58,13241.24z M4508.58,13235.24c-6-11-20-18-33-17
		c-23,2-24,20-1,20c6,0,15,4,19,8C4507.58,13260.24,4518.58,13253.24,4508.58,13235.24z M4287.58,13218.24c0-10-60-55-74-55
		c-2,0-3,11-3,25c0,28,7,31,26,13c10-11,11-9,5,7s-5,18,7,8c20-19,32-16,26,7c-3,11-1,18,4,14
		C4283.58,13234.24,4287.58,13226.24,4287.58,13218.24z M3897.58,13217.24c0-14-3-14-15-4c-8,7-15,14-15,16s7,4,15,4
		S3897.58,13226.24,3897.58,13217.24z M2797.58,13207.24c0-8-5-12-10-9c-6,4-8,11-5,16
		C2791.58,13228.24,2797.58,13225.24,2797.58,13207.24z M3512.58,13213.24c-3-5-11-10-16-10c-6,0-7,5-4,10c3,6,11,10,16,10
		C3514.58,13223.24,3515.58,13219.24,3512.58,13213.24z M3824.58,13208.24c0-8-4-15-9-15c-4,0-8,7-8,15s4,15,8,15
		C3820.58,13223.24,3824.58,13216.24,3824.58,13208.24z M3377.58,13203.24c0-5-2-10-4-10c-3,0-8,5-11,10c-3,6-1,10,4,10
		C3372.58,13213.24,3377.58,13209.24,3377.58,13203.24z M3323.58,13183.24c0-12-4-16-9-11s-6,14-3,20
		C3321.58,13207.24,3323.58,13206.24,3323.58,13183.24z M3964.58,13181.24c-3-8-6-5-6,6c-1,11,2,17,5,13
		C3966.58,13197.24,3967.58,13188.24,3964.58,13181.24z M3727.58,13168.24c0-8-7-15-15-15c-16,0-20,12-8,23
		C3715.58,13188.24,3727.58,13184.24,3727.58,13168.24z M3937.58,13173.24c0-5-5-10-11-10c-5,0-7,5-4,10c3,6,8,10,11,10
		C3935.58,13183.24,3937.58,13179.24,3937.58,13173.24z M3272.58,13163.24c3-5,1-10-4-10c-6,0-11,5-11,10c0,6,2,10,4,10
		C3264.58,13173.24,3269.58,13169.24,3272.58,13163.24z M4146.58,13159.24c9-11,9-16-1-22c-7-4-10-4-6,1c4,4,3,14-3,22
		c-6,7-9,13-6,13C4132.58,13173.24,4140.58,13167.24,4146.58,13159.24z M4396.58,13162.24c-8-5-9-9-4-9c6,0-1-6-15-13s-24-21-24-30
		c1-13-2-15-18-6c-19,10-32,6-34-12c-1-5-2-13-3-19c-2-21-19-9-24,17c-7,37,1,52,24,46c10-3,19,0,19,6s9,11,20,11s20,4,20,9
		s12,9,26,9C4401.58,13171.24,4405.58,13168.24,4396.58,13162.24z M3900.58,13129.24c-9-12-27-27-40-33c-20-10-23-8-23,9
		c0,10,4,16,10,13c5-3,20,1,32,9c12,9,19,16,15,16c-5,0-5,5-2,10c4,6,11,8,16,5C3913.58,13154.24,3909.58,13142.24,3900.58,13129.24
		z M4204.58,13129.24c-4-9-12-16-18-16c-8,0-8,4,1,15c6,8,8,20,4,27c-5,10-4,10,6,1
		C4204.58,13150.24,4207.58,13137.24,4204.58,13129.24z M2897.58,13137.24c0-8-5-12-10-9c-6,4-8,11-5,16
		C2891.58,13158.24,2897.58,13155.24,2897.58,13137.24z M2975.58,13135.24c2-8-8-12-30-12c-31,1-32,1-13,15
		C2953.58,13155.24,2969.58,13153.24,2975.58,13135.24z M3347.58,13149.24c0-3-4-8-10-11c-5-3-10-1-10,4c0,6,5,11,10,11
		C3343.58,13153.24,3347.58,13151.24,3347.58,13149.24z M3199.58,13121.24c-7-7-12-8-12-2c0,14,12,26,19,19
		C3208.58,13135.24,3205.58,13127.24,3199.58,13121.24z M3020.58,13119.24c3-8-3-22-13-31c-19-17-19-16-7,14
		C3013.58,13138.24,3013.58,13138.24,3020.58,13119.24z M3290.58,13078.24c-10-13-24-22-31-20c-8,3-21-2-29-11c-21-20-39-3-24,23
		c6,10,11,12,11,6c0-18,20-16,20,1c0,8,8,13,18,12c10,0,16,5,14,13c-4,20,21,33,31,16
		C3305.58,13108.24,3301.58,13094.24,3290.58,13078.24z M3617.58,13115.24c0-5-7-9-15-9s-12,4-9,9c3,4,9,8,15,8
		C3613.58,13123.24,3617.58,13119.24,3617.58,13115.24z M3747.58,13113.24c0-5-5-10-11-10c-5,0-7,5-4,10c3,6,8,10,11,10
		C3745.58,13123.24,3747.58,13119.24,3747.58,13113.24z M3817.58,13092.24c0-6-7-8-16-5s-23,6-31,6c-13,0-13,3-3,15c9,11,17,12,31,4
		C3808.58,13107.24,3817.58,13097.24,3817.58,13092.24z M4117.58,13119.24c0-2-7-7-16-10c-8-3-12-2-9,4
		C4098.58,13123.24,4117.58,13127.24,4117.58,13119.24z M2961.58,13097.24c9-24,7-28-9-14c-8,6-19,9-25,5c-5-3-10-2-10,4
		c0,8,15,18,31,20C2952.58,13113.24,2958.58,13106.24,2961.58,13097.24z M3642.58,13093.24c-10-11-21-17-24-14s3,12,13,20
		C3659.58,13119.24,3663.58,13116.24,3642.58,13093.24z M4143.58,13077.24c-3-9-6-20-6-25s-11-9-24-9s-26-5-28-11s-9,1-16,17
		c-11,24-11,26,2,15c11-10,19-9,35,1c12,7,21,16,21,20c0,5,5,8,11,8S4146.58,13086.24,4143.58,13077.24z M4387.58,13089.24
		c0-3-4-8-10-11c-5-3-10-1-10,4c0,6,5,11,10,11C4383.58,13093.24,4387.58,13091.24,4387.58,13089.24z M2677.58,13073.24
		c0-5-2-10-4-10c-3,0-8,5-11,10c-3,6-1,10,4,10C2672.58,13083.24,2677.58,13079.24,2677.58,13073.24z M2877.58,13071.24c0-5-3-8-7-9
		c-5,0-16-2-25-4s-22,2-27,9c-8,10-2,12,24,12C2861.58,13078.24,2877.58,13075.24,2877.58,13071.24z M3797.58,13068.24
		c0-9-6-12-16-8c-13,5-13,7-2,14C3796.58,13085.24,3797.58,13085.24,3797.58,13068.24z M3747.58,13063.24c0-5-5-10-11-10
		c-5,0-7,5-4,10c3,6,8,10,11,10C3745.58,13073.24,3747.58,13069.24,3747.58,13063.24z M4264.58,13058.24c19-20,10-30-14-16
		c-10,6-13,11-8,11c6,0,3,5-5,10c-11,7-12,10-2,10C4242.58,13073.24,4255.58,13066.24,4264.58,13058.24z M4587.58,13021.24
		c0-3-9-4-19-1c-16,4-17,8-8,18C4571.58,13050.24,4586.58,13041.24,4587.58,13021.24z M2520.58,12995.24c-26-26-63-57-80-67
		c-18-11-33-22-33-26c0-11-40-18-46-8c-10,17-24,9-24-13c0-19-2-20-10-8c-5,8-10,10-10,5c0-6-9-11-19-12c-18-2-19,1-9,23
		c6,14,19,24,27,23c36-3,52,1,45,13c-4,7-3,8,5,4c7-5,22,5,38,23c24,27,28,29,39,13c9-11,13-12,14-4c0,16,31,47,67,66
		C2571.58,13052.24,2570.58,13045.24,2520.58,12995.24z M2773.58,13031.24c5-8,2-9-11-4c-11,4-22,2-27-6c-6-10-8-8-8,5
		C2727.58,13045.24,2762.58,13050.24,2773.58,13031.24z M3691.58,13022.24c-3-5-10-7-15-3c-5,3-7,10-3,15c3,5,10,7,15,3
		C3693.58,13034.24,3695.58,13027.24,3691.58,13022.24z M4192.58,13033.24c4-6-5-10-19-10c-22,0-26-4-26-31c0-17-4-28-10-24
		c-5,3-15-5-22-19c-12-28-23-33-33-16c-4,6-11,8-16,4c-5-3-7-10-4-15c9-14-5-49-20-49c-7,0-15-7-19-15c-3-8-13-15-21-15
		c-9,0-14-4-11-9c7-10-18-34-27-25c-9,10-27-33-22-53c4-11,1-10-6,4c-14,26-39,38-39,19c0-12-13-21-40-31c-46-16-66-33-65-55
		c0-17-7-27-20-31c-11-3-19-13-19-22c1-11-6-17-20-18c-11,0-15-3-8-6c20-8,14-22-8-16c-15,4-20,0-20-16c0-18-6-21-37-21l-38-1l25-15
		c25-15,25-15,1-8c-16,4-21,3-17-5c4-6,2-11-3-11c-6,0-11-6-11-13c0-8-9-22-20-32s-21-30-21-44c-1-17-3-20-6-8c-2,9-9,17-15,17
		c-5,0-8,6-5,14c3,7,0,19-6,26c-9,10-9,14,1,17c6,3,10,9,7,13c-3,5,6,17,20,26c30,20,32,30,4,37c-23,6-23,38,1,49c23,10,50,9,50-2
		c0-6-5-9-11-8c-6,2-14-3-16-9c-3-7,2-13,10-13c9,0,17-4,19-10s14-6,33-1c22,7,25,10,10,11c-11,1-14,4-7,7c21,8,13,21-9,16
		c-19-5-20-4-10,16c7,13,21,21,36,21c16,0,25,6,25,15c0,8,7,15,15,15c18,0,19,12,3,28c-9,9-8,12,5,12c9,0,17-4,17-10c0-5,5-10,10-10
		c6,0,10,9,10,20s7,20,15,20s15,3,15,8c0,4,14,14,32,21c18,8,27,16,20,19c-13,4-17,23-4,21c30-5,55,4,59,21c3,11,10,21,17,21
		c6,1,18,2,26,3c9,0,14,9,12,20c-2,10,1,15,7,12c6-4,17,7,26,24c17,33,35,40,36,13c0-13,3-11,10,6c11,29,37,50,62,51c9,0,17,8,17,18
		C4117.58,13028.24,4179.58,13054.24,4192.58,13033.24z M2350.58,12984.24c-9-12-23,18-16,35c6,17,8,17,13-6
		C2351.58,12999.24,2352.58,12986.24,2350.58,12984.24z M4054.58,13008.24c-4-8-12-15-19-14c-10,0-10,2,0,6c6,2,12,12,12,21
		c0,8,3,13,6,9C4057.58,13027.24,4057.58,13017.24,4054.58,13008.24z M4387.58,13029.24c0-3-4-8-10-11c-5-3-10-1-10,4
		c0,6,5,11,10,11C4383.58,13033.24,4387.58,13031.24,4387.58,13029.24z M2708.58,13003.24c35,0,20-15-16-16c-24,0-35,4-35,14
		c0,9,6,12,16,8C2682.58,13006.24,2697.58,13003.24,2708.58,13003.24z M3327.58,12988.24c0-17-25-20-35-5c-3,6,1,7,9,4
		c9-3,16-1,16,5s2,11,5,11S3327.58,12996.24,3327.58,12988.24z M3600.58,12996.24c-7-2-13-17-14-31v-27l-10,24c-10,24,2,42,26,40
		C3608.58,13002.24,3606.58,12999.24,3600.58,12996.24z M4241.58,12988.24c-4-8-11-15-16-15c-6,0-5,6,2,15c7,8,14,15,16,15
		S4244.58,12996.24,4241.58,12988.24z M4568.58,12960.24c-9-9-14-8-21,3c-5,8-13,11-17,6c-4-4-1-13,8-19c26-20,32-48,10-54
		c-11-3-22-12-25-20c-5-11-1-14,13-10c12,3,22-1,26-11c14-38-43-43-60-4c-11,24-20,28-30,12c-5-8-11-7-21,1c-11,9-14,8-14-5
		c0-10-4-14-10-11c-5,3-10,15-10,26c0,10-7,19-15,19s-15-7-15-15s-4-15-10-15c-5,0-10,11-10,25c0,24,9,30,38,26c10-2,11,2,3,18
		c-17,31-13,37,24,37c25,0,35-4,35-16c0-9,5-21,12-28c9-9,9-12,0-12c-7,0-12,5-12,10c0,6-4,10-10,10c-14,0-12-19,3-33
		c21-20,37-18,37,3s16,28,22,9c2-7,11-9,19-6c9,3,3,9-18,18c-34,14-40,23-23,34c17,10,11,25-7,19c-15-5-16-4-3,5c8,6,30,8,48,5
		c23-5,32-2,33,7c1,8,3,6,6-5C4577.58,12979.24,4574.58,12966.24,4568.58,12960.24z M4635.58,12979.24c0-19-3-22-13-13
		c-9,8-10,16-3,25C4633.58,13008.24,4635.58,13007.24,4635.58,12979.24z M3486.58,12971.24c12-16,11-18-7-18c-15,0-19,5-15,20
		c3,12,6,19,7,18C3472.58,12989.24,3479.58,12980.24,3486.58,12971.24z M3992.58,12983.24c3-5,1-10-4-10c-6,0-11,5-11,10
		c0,6,2,10,4,10C3984.58,12993.24,3989.58,12989.24,3992.58,12983.24z M3107.58,12961.24c0-5-11-8-25-8s-25,4-25,9s11,8,25,7
		C3096.58,12969.24,3107.58,12965.24,3107.58,12961.24z M3261.58,12932.24c-10-16-22-9-27,16c-4,24-3,25,14,9
		C3258.58,12948.24,3264.58,12936.24,3261.58,12932.24z M3537.58,12969.24c0-3-4-8-10-11c-5-3-10-1-10,4c0,6,5,11,10,11
		C3533.58,12973.24,3537.58,12971.24,3537.58,12969.24z M4667.58,12947.24c0-8-5-14-11-14s-3-7,5-16c9-8,21-12,27-8c11,6,10-20-2-66
		c-3-10,2-14,13-12c12,2,15-3,11-17c-5-20-55-27-52-7c1,6-1,19-6,29c-8,19,11,50,26,41c5-3,9,0,9,6s-11,8-26,6c-19-4-24-1-20,10
		c3,7,1,14-3,14c-5,0-4,13,2,29C4651.58,12972.24,4667.58,12975.24,4667.58,12947.24z M2257.58,12949.24c0-3-4-8-10-11
		c-5-3-10-1-10,4c0,6,5,11,10,11C2253.58,12953.24,2257.58,12951.24,2257.58,12949.24z M3027.58,12941.24c0-4-4-8-9-8
		c-6,0-12,4-15,8c-3,5,1,9,9,9S3027.58,12946.24,3027.58,12941.24z M3967.58,12931.24c0-13-23-5-28,10c-2,7,2,10,12,6
		C3960.58,12944.24,3967.58,12936.24,3967.58,12931.24z M3091.58,12896.24c18-10,18-11-5-24c-29-16-44-20-87-23c-17-2-43-13-56-25
		c-17-16-25-19-28-9c-4,10-10,10-32,0c-15-7-24-8-21-2c3,5,0,10-7,11c-7,0-3,4,10,9c12,5,22,15,22,22c0,9,3,9,11,1c13-13,31,0,41,27
		c4,11,8,8,16-10c10-24,11-24,11-2c1,15,7,22,21,22c11,0,22-1,23-2c10-8,37,27,32,41c-3,10,1,8,12-5
		C3064.58,12915.24,3081.58,12901.24,3091.58,12896.24z M3218.58,12933.24c20-11,27-50,9-50c-5,0-10,5-10,10c0,14-33,13-48-2
		c-9-9-12-9-12,0c0,6,9,16,20,22s18,15,15,21C3184.58,12946.24,3194.58,12946.24,3218.58,12933.24z M3698.58,12920.24
		c-10-9-11-8-5,6c3,10,9,15,12,12S3705.58,12927.24,3698.58,12920.24z M2592.58,12914.24c3-5,1-12-5-16c-5-3-10,1-10,9
		C2577.58,12925.24,2583.58,12928.24,2592.58,12914.24z M3391.58,12908.24c3-9,0-15-9-15c-8,0-15,7-15,15s4,15,9,15
		S3387.58,12916.24,3391.58,12908.24z M3887.58,12893.24c0-5-9-6-19-3c-12,3-17,11-14,19c4,11,9,12,19,3
		C3881.58,12906.24,3887.58,12897.24,3887.58,12893.24z M4321.58,12897.24c3-8,2-12-4-9s-10,10-10,16
		C4307.58,12918.24,4314.58,12915.24,4321.58,12897.24z M3517.58,12893.24c0-13-38-41-51-38c-7,2-15-7-17-18c-3-18,1-21,22-17
		c17,4,26,1,26-7c0-7-6-10-14-7c-14,6-40-38-31-53c3-5,1-11-5-15c-5-3-10,0-11,7c0,7-4,4-9-7c-8-18-9-18-9-2c-1,10-6,15-11,12
		c-6-4-8-15-5-26c4-11,2-19-4-19s-11,7-11,16c0,14-2,14-15,0c-27-26-19-46,15-39c26,5,30,3,30-16c0-18-7-23-30-23c-3,0-14-9-24-19
		c-15-14-16-19-5-20c8-1,3-4-11-8c-15-4-30-2-37,5c-14,14-17,35-5,32c4,0,15,2,25,6c20,9,24,70,5,82c-8,5-9,0-6-14c4-12,2-19-3-16
		c-9,5-10,94-2,94c2,0,13-5,23-10c13-7,21-7,25,0c3,5-3,10-15,10c-13,0-18,4-14,11c3,6,17,8,30,5c23-6,29,1,25,32c-1,6,5,12,12,12
		c8,0,17,7,21,15c3,8,14,15,25,15c10,0,21,6,24,13C3485.58,12900.24,3517.58,12905.24,3517.58,12893.24z M4144.58,12881.24
		c-3-8-6-5-6,6c-1,11,2,17,5,13C4146.58,12897.24,4147.58,12888.24,4144.58,12881.24z M4107.58,12883.24c0-5-4-10-10-10
		c-5,0-10,5-10,10c0,6,5,10,10,10C4103.58,12893.24,4107.58,12889.24,4107.58,12883.24z M4597.58,12879.24c0-3-4-8-10-11
		c-5-3-10-1-10,4c0,6,5,11,10,11C4593.58,12883.24,4597.58,12881.24,4597.58,12879.24z M3327.58,12863.24c0-5-2-10-4-10
		c-3,0-8,5-11,10c-3,6-1,10,4,10C3322.58,12873.24,3327.58,12869.24,3327.58,12863.24z M3887.58,12852.24c0-6-4-7-10-4
		c-5,3-10,11-10,16c0,6,5,7,10,4C3883.58,12865.24,3887.58,12857.24,3887.58,12852.24z M4313.58,12845.24c-4-3-14,2-24,12
		c-16,18-16,18,6,6C4308.58,12857.24,4316.58,12849.24,4313.58,12845.24z M4350.58,12859.24c4-10,1-13-9-9c-7,3-14,9-14,14
		C4327.58,12878.24,4344.58,12874.24,4350.58,12859.24z M4064.58,12841.24c-3-8-6-5-6,6c-1,11,2,17,5,13
		C4066.58,12857.24,4067.58,12848.24,4064.58,12841.24z M2267.58,12843.24c0-5-4-10-10-10c-5,0-10,5-10,10c0,6,5,10,10,10
		C2263.58,12853.24,2267.58,12849.24,2267.58,12843.24z M4407.58,12839.24c0-10-10-14-29-14c-41,1-59-12-37-28c13-9,14-14,5-20
		c-7-4-17,0-24,9c-15,20-25,22-25,4c0-7,12-23,26-36c14-12,23-29,20-37s-1-14,4-14c6,0,10-7,10-16c0-8,5-12,11-9c6,4,13-2,16-14
		s10-21,15-21s6-4,3-10c-3-5-1-10,5-10s9-4,6-9c-3-4,1-17,9-27c16-22,20-48,5-39c-5,3-10,2-10-4c0-15,16-22,50-23c36-1,59-22,35-32
		c-9-3-13-2-10,3s0,13-6,17c-8,5-10-1-7-17c4-21,0-24-24-25c-23-1-27,2-24,20c2,12-5,32-15,45s-19,20-19,15c0-17-29,32-30,49
		c0,10-4,16-9,12c-5-3-12-1-15,4c-4,5-2,12,4,16c5,3,10,11,10,16c0,6-4,7-10,4c-5-3-10-1-10,4c0,6-6,10-12,9c-7-2-12,3-10,10
		c1,6-5,12-14,12c-8,0-12-4-9-10s-1-7-9-4c-14,5-14,8-1,21c8,8,15,21,15,30c0,11,6,14,22,10c20-6,20-5,3,11c-13,13-19,14-22,4
		c-4-10-8-10-19-1s-14,8-14-2c0-19-20,10-20,30c0,10,3,11,14,2s16-9,22,0c4,7,2,15-4,17c-7,2-12,8-12,14s6,8,14,5c25-10,28,6,4,20
		l-23,14l25-8c35-10,74-7,78,6C4370.58,12858.24,4407.58,12855.24,4407.58,12839.24z M2723.58,12816.24c-10-10-19,5-10,18
		c6,11,8,11,12,0C2727.58,12827.24,2726.58,12819.24,2723.58,12816.24z M3847.58,12833.24c0-5-2-10-4-10c-3,0-8,5-11,10
		c-3,6-1,10,4,10C3842.58,12843.24,3847.58,12839.24,3847.58,12833.24z M4487.58,12821.24c0-5,6-8,13-5c6,2,21,0,32-6
		c19-10,19-10,0-17c-11-4-24-2-28,4c-6,8-10,7-14-3c-5-11-7-11-14,0c-6,10-9,11-9,2c0-7-6-13-14-13s-16-5-18-10c-2-7-10-6-22,3
		c-11,8-16,19-12,26c6,9,11,9,22,0s16-6,24,15c6,17,14,24,25,20C4480.58,12834.24,4487.58,12826.24,4487.58,12821.24z
		 M2152.58,12823.24c-28-12-37-12-30,0c3,6,16,10,28,9C2171.58,12832.24,2171.58,12831.24,2152.58,12823.24z M2692.58,12823.24
		c-3-5,0-18,7-29c11-17,10-23-4-37s-20-15-32-5c-13,11-13,16,1,47c9,19,21,34,25,34
		C2694.58,12833.24,2696.58,12829.24,2692.58,12823.24z M2767.58,12818.24c0-8-4-15-9-15c-13,0-22,16-14,24
		C2755.58,12838.24,2767.58,12833.24,2767.58,12818.24z M3807.58,12829.24c0-2-7-7-16-10c-8-3-12-2-9,4
		C3788.58,12833.24,3807.58,12837.24,3807.58,12829.24z M4037.58,12823.24c0-5-2-10-4-10s-12-3-22-7c-16-6-17-5-4,10
		C4024.58,12835.24,4037.58,12838.24,4037.58,12823.24z M2197.58,12807.24c0-8-5-12-10-9c-6,4-8,11-5,16
		C2191.58,12828.24,2197.58,12825.24,2197.58,12807.24z M2377.58,12810.24c0-7-9-13-20-13c-20,0-25,7-13,19
		C2355.58,12828.24,2377.58,12824.24,2377.58,12810.24z M2841.58,12805.24c6-10-61-42-69-34c-5,6,44,42,57,42
		C2833.58,12813.24,2838.58,12809.24,2841.58,12805.24z M2950.58,12784.24c-4-16-8-17-18-8c-9,8-10,16-3,24
		C2943.58,12818.24,2956.58,12807.24,2950.58,12784.24z M3027.58,12803.24c0-5-4-10-10-10c-5,0-10,5-10,10c0,6,5,10,10,10
		C3023.58,12813.24,3027.58,12809.24,3027.58,12803.24z M4585.58,12777.24c1-21,10-43,20-51c16-12,16-13-2-7c-22,8-39-15-25-33
		c6-7,8-17,4-23c-9-14,18-13,33,2c9,9,12,8,12-5c0-9-4-17-9-17s-11-9-14-20c-5-18-8-19-34-8c-41,17-50,28-25,28c13,0,22,6,22,15
		c0,8-5,14-12,13c-7-2-13,2-13,7c-6,43-19,65-40,65c-12,0-29,8-36,17c-13,15-11,16,19,10c27-5,38-2,60,18c15,14,29,25,32,25
		S4583.58,12797.24,4585.58,12777.24z M2511.58,12781.24c-3-5-12-4-20,3c-11,9-14,8-14-5c0-9-7-16-15-16c-20,0-19,10,2,25
		C2482.58,12802.24,2520.58,12796.24,2511.58,12781.24z M2636.58,12737.24c-6-8-20-14-30-14c-11,0-19-5-19-11s-5-7-12-2
		c-7,4-23,6-35,4c-13-1-23,2-23,8s-7,11-15,11c-18,0-20-16-4-26c7-4-1-12-21-20c-37-16-41-17-38-6c0,4-2,15-7,25c-9,22,22,49,48,41
		c10-3,24,0,32,6c12,10,15,10,15-1c0-8,11-15,25-15c19-2,27,4,31,21c4,15,11,22,20,18c9-3,14,2,14,13c0,14,4,11,15-10
		C2644.58,12757.24,2644.58,12747.24,2636.58,12737.24z M2735.58,12791.24c7-7,12-18,12-25c0-19-27-4-33,18
		S2717.58,12809.24,2735.58,12791.24z M2280.58,12761.24c-22-45-26-48-17-13c8,37,13,45,24,45
		C2292.58,12793.24,2288.58,12778.24,2280.58,12761.24z M3987.58,12778.24c0-8-7-15-15-15c-16,0-20,12-8,23
		C3975.58,12798.24,3987.58,12794.24,3987.58,12778.24z M4389.58,12761.24c-12-12-35-1-27,12c3,5,13,6,21,3
		C4393.58,12772.24,4395.58,12767.24,4389.58,12761.24z M4721.58,12756.24c7-17-1-33-16-33c-5,0-8,7-4,15c4,10-1,15-14,15
		c-11,0-20,6-20,14C4667.58,12785.24,4714.58,12776.24,4721.58,12756.24z M2177.58,12769.24c0-2-7-7-16-10c-8-3-12-2-9,4
		C2158.58,12773.24,2177.58,12777.24,2177.58,12769.24z M3712.58,12763.24c3-6-1-7-9-4c-18,7-21,14-7,14
		C3702.58,12773.24,3709.58,12769.24,3712.58,12763.24z M2106.58,12739.24c-2-2-16-6-31-10c-22-5-26-3-22,8c6,16,47,26,53,13
		C2107.58,12745.24,2107.58,12740.24,2106.58,12739.24z M3232.58,12743.24c3-5-1-10-10-10s-13,5-10,10c3,6,8,10,10,10
		S3229.58,12749.24,3232.58,12743.24z M4687.58,12721.24c0-13-23-5-28,10c-2,7,2,10,12,6
		C4680.58,12734.24,4687.58,12726.24,4687.58,12721.24z M2422.58,12703.24c13-15,12-19-9-37c-22-19-25-20-31-5s-8,15-23-3
		c-9-11-23-20-29-19c-7,1-20,2-28,3c-8,0-15,8-15,17c0,10-6,14-15,11c-20-8-28,8-11,22c10,9,16,9,21,1c4-6,13-9,20-6c9,3,11-2,8-15
		c-4-15,3-12,29,14C2378.58,12723.24,2399.58,12728.24,2422.58,12703.24z M4437.58,12719.24c0-3-4-8-10-11c-5-3-10-1-10,4
		c0,6,5,11,10,11C4433.58,12723.24,4437.58,12721.24,4437.58,12719.24z M2033.58,12694.24c-4-6-14-7-23-4c-15,6-14,7,3,13
		C2035.58,12712.24,2042.58,12709.24,2033.58,12694.24z M2917.58,12693.24c0-5-10-10-22-9c-22,0-22,1-3,9c11,5,21,9,23,9
		C2916.58,12703.24,2917.58,12699.24,2917.58,12693.24z M3560.58,12696.24c-7-2-19-2-25,0c-7,3-2,5,12,5
		S3566.58,12699.24,3560.58,12696.24z M2167.58,12679.24c0-2-7-7-16-10c-8-3-12-2-9,4
		C2148.58,12683.24,2167.58,12687.24,2167.58,12679.24z M4017.58,12673.24c0-5-4-10-10-10c-5,0-10,5-10,10c0,6,5,10,10,10
		C4013.58,12683.24,4017.58,12679.24,4017.58,12673.24z M2867.58,12663.24c0-5,9-10,20-10s20-4,20-9c0-11-29-23-40-16
		c-12,7-19,45-9,45C2863.58,12673.24,2867.58,12669.24,2867.58,12663.24z M2131.58,12607.24c3-8,2-12-4-9s-10,10-10,16
		C2117.58,12628.24,2124.58,12625.24,2131.58,12607.24z M1924.58,12607.24c-3-3-12-4-19-1c-8,3-5,6,6,6
		C1922.58,12613.24,1928.58,12610.24,1924.58,12607.24z M2897.58,12603.24c0-5-7-10-16-10c-8,0-12,5-9,10c3,6,10,10,16,10
		C2893.58,12613.24,2897.58,12609.24,2897.58,12603.24z M3495.58,12599.24c-10-7-18-18-18-24c0-12-24-22-56-22c-14,0-24-6-24-14
		c0-9,7-12,20-9c11,3,20,0,20-6s-9-11-19-11c-12,0-21-9-25-25c-4-14-13-25-22-25c-11,0-13,6-9,20c4,12,2,20-6,20c-6,0,3,16,22,35
		c20,20,44,35,57,35c15,0,26,7,29,20c3,12,14,20,27,20C3511.58,12612.24,3511.58,12611.24,3495.58,12599.24z M3532.58,12593.24
		c3-5,1-10-4-10c-6,0-11,5-11,10c0,6,2,10,4,10C3524.58,12603.24,3529.58,12599.24,3532.58,12593.24z M4314.58,12581.24
		c-3-8-6-5-6,6c-1,11,2,17,5,13C4316.58,12597.24,4317.58,12588.24,4314.58,12581.24z M4617.58,12588.24c-10-12-8-21,9-49
		c13-21,18-37,12-41c-6-3-8-12-4-20c3-10-1-15-11-15c-13,0-15,4-6,19c16,32,12,44-14,39c-19-4-26,0-30,16c-9,35-7,48,8,43
		c8-3,17,1,20,9s11,14,17,14C4626.58,12603.24,4626.58,12599.24,4617.58,12588.24z M4475.58,12563.24c7-11,10-20,6-20
		c-7,0-34,27-34,34C4447.58,12590.24,4463.58,12582.24,4475.58,12563.24z M1827.58,12533.24c0-5-4-10-10-10c-5,0-10,5-10,10
		c0,6,5,10,10,10C1823.58,12543.24,1827.58,12539.24,1827.58,12533.24z M3513.58,12534.24c-7-11-56-21-56-11c0,13,13,20,37,20
		C3507.58,12543.24,3516.58,12539.24,3513.58,12534.24z M1557.58,12519.24c0-3-4-8-10-11c-5-3-10-1-10,4c0,6,5,11,10,11
		C1553.58,12523.24,1557.58,12521.24,1557.58,12519.24z M4747.58,12499.24c0-2-7-7-16-10c-8-3-12-2-9,4
		C4728.58,12503.24,4747.58,12507.24,4747.58,12499.24z M1577.58,12489.24c0-3-4-8-10-11c-5-3-10-1-10,4c0,6,5,11,10,11
		C1573.58,12493.24,1577.58,12491.24,1577.58,12489.24z M3894.58,12478.24c4-15-45-36-50-21c-7,20,3,33,25,32
		C3881.58,12488.24,3892.58,12484.24,3894.58,12478.24z M3647.58,12463.24c0-5-4-10-10-10c-5,0-10,5-10,10c0,6,5,10,10,10
		C3643.58,12473.24,3647.58,12469.24,3647.58,12463.24z M4777.58,12448.24c0-8-7-15-16-15c-14,0-14,3-4,15c7,8,14,15,16,15
		S4777.58,12456.24,4777.58,12448.24z M3347.58,12434.24c0-5-8-15-17-22c-16-12-17-12-6,2c7,9,10,19,6,22c-3,4-1,7,5,7
		C3342.58,12443.24,3347.58,12439.24,3347.58,12434.24z M4673.58,12434.24c-3-5-15-11-26-14c-17-4-19-3-9,9
		C4650.58,12444.24,4682.58,12449.24,4673.58,12434.24z M3427.58,12429.24c0-3-4-8-10-11c-5-3-10-1-10,4c0,6,5,11,10,11
		C3423.58,12433.24,3427.58,12431.24,3427.58,12429.24z M4797.58,12413.24c0-5-4-10-10-10c-5,0-10,5-10,10c0,6,5,10,10,10
		C4793.58,12423.24,4797.58,12419.24,4797.58,12413.24z M3157.58,12389.24c0-3-4-8-10-11c-5-3-10-1-10,4c0,6,5,11,10,11
		C3153.58,12393.24,3157.58,12391.24,3157.58,12389.24z M3187.58,12383.24c0-5-4-10-10-10c-5,0-10,5-10,10c0,6,5,10,10,10
		C3183.58,12393.24,3187.58,12389.24,3187.58,12383.24z M3287.58,12383.24c0-5-5-10-11-10c-5,0-7,5-4,10c3,6,8,10,11,10
		C3285.58,12393.24,3287.58,12389.24,3287.58,12383.24z M3812.58,12349.24c8,4,15,2,15-4c0-5-16-10-36-10c-26,0-34,4-30,14
		c3,8,0,14-6,14c-7,0-6,6,3,16c11,14,14,13,26-10C3792.58,12353.24,3803.58,12346.24,3812.58,12349.24z M4692.58,12365.24
		c-3-8,0-21,6-28c8-10,8-14,1-14c-6,0-17,9-25,20s-16,17-20,14c-3-3-3,3,0,14c3,14,11,18,24,15
		C4691.58,12382.24,4696.58,12375.24,4692.58,12365.24z M3442.58,12353.24c-3-5-15-10-26-10s-17,5-14,10c3,6,15,10,26,10
		S3445.58,12359.24,3442.58,12353.24z M3736.58,12314.24c-14-4-19,2-24,30l-4,24l19-25
		C3737.58,12329.24,3741.58,12316.24,3736.58,12314.24z M4787.58,12348.24c0-8-4-15-10-15c-5,0-10,7-10,15s5,15,10,15
		C4783.58,12363.24,4787.58,12356.24,4787.58,12348.24z M3187.58,12349.24c0-2-8-10-17-17c-16-13-17-12-4,4
		S3187.58,12357.24,3187.58,12349.24z M3353.58,12296.24c-2-2-11,0-20,3c-14,5-15,9-5,15
		C3340.58,12321.24,3362.58,12304.24,3353.58,12296.24z M3400.58,12293.24c3-11,1-20-4-20s-9,9-9,20s2,20,4,20
		S3397.58,12304.24,3400.58,12293.24z M3709.58,12284.24c5-22-2-51-13-51c-5,0-9,5-9,10c0,6-11,15-25,20s-25,14-25,20s11,3,25-6
		c23-15,25-15,25,0c0,9-4,16-10,16c-5,0-10,4-10,9C3667.58,12318.24,3706.58,12302.24,3709.58,12284.24z M4714.58,12281.24
		c-3-8-6-5-6,6c-1,11,2,17,5,13C4716.58,12297.24,4717.58,12288.24,4714.58,12281.24z M3357.58,12256.24c-1-11-26-43-34-43
		c-11,0-6,38,7,43C3349.58,12264.24,3357.58,12264.24,3357.58,12256.24z M3605.58,12228.24c7-58,0-85-21-85c-11,0-17-6-15-17
		s-5-19-17-21c-11-3-23-9-27-15c-9-15-32,38-24,58c3,9,10,13,16,10c5-3,10-1,10,5s5,8,11,4c8-5,6-10-5-16c-23-13-21-37,4-31
		c11,3,20,14,20,24c0,11,7,22,16,26c8,3,13,12,9,21c-6,17,3,52,14,52C3600.58,12243.24,3604.58,12236.24,3605.58,12228.24z
		 M3667.58,12233.24c0-5-7-10-16-10c-8,0-12,5-9,10c3,6,10,10,16,10C3663.58,12243.24,3667.58,12239.24,3667.58,12233.24z
		 M3120.58,12226.24c3-5-1-14-9-21c-12-11-14-9-14,8C3097.58,12233.24,3111.58,12240.24,3120.58,12226.24z M3322.58,12203.24
		c3-5,1-10-4-10c-6,0-11-7-11-15s-4-15-8-15c-7,0-8,31-3,48C3298.58,12217.24,3317.58,12212.24,3322.58,12203.24z M3211.58,12178.24
		c-6-16-24-21-24-7c0,11,11,22,21,22C3213.58,12193.24,3214.58,12186.24,3211.58,12178.24z M3281.58,12154.24c3-5-1-14-8-20
		c-12-10-13-8-9,8C3270.58,12165.24,3273.58,12167.24,3281.58,12154.24z M3244.58,12107.24c-3-3-12-4-19-1c-8,3-5,6,6,6
		C3242.58,12113.24,3248.58,12110.24,3244.58,12107.24z M3437.58,12032.24c0-10,6-20,13-22c6-3,0-6-14-6c-15-1-32-7-38-15
		c-7-8-24-13-39-11s-31,4-37,5c-5,0-2,5,8,11c9,5,22,7,27,4c6-3,13,1,16,9c3,9,12,16,20,16c7,0,11,6,8,13c-3,8,3,13,16,13
		C3429.58,12049.24,3437.58,12042.24,3437.58,12032.24z M4842.58,11922.24c11-17-1-21-15-4c-8,9-8,15-2,15
		S4839.58,11928.24,4842.58,11922.24z M3012.58,11813.24c3-6-1-7-9-4c-18,7-21,14-7,14
		C3002.58,11823.24,3009.58,11819.24,3012.58,11813.24z M4862.58,11633.24c3-5,1-10-4-10c-6,0-11,5-11,10c0,6,2,10,4,10
		C4854.58,11643.24,4859.58,11639.24,4862.58,11633.24z"/>
	<path d="M3807.58,14033.24c0-5,5-10,10-10c6,0,10,5,10,10c0,6-4,10-10,10C3812.58,14043.24,3807.58,14039.24,3807.58,14033.24z"/>
	<path d="M3282.58,13763.24c-3-5-1-10,4-10c6,0,11,5,11,10c0,6-2,10-4,10C3290.58,13773.24,3285.58,13769.24,3282.58,13763.24z"/>
	<path d="M3927.58,13543.24c0-5,5-10,10-10c6,0,10,5,10,10c0,6-4,10-10,10C3932.58,13553.24,3927.58,13549.24,3927.58,13543.24z"/>
	<path d="M3407.58,13131.24c0-19,2-20,10-8c13,19,13,30,0,30C3412.58,13153.24,3407.58,13143.24,3407.58,13131.24z"/>
	<path d="M4002.58,12893.24c3-5,11-10,16-10c6,0,7,5,4,10c-3,6-11,10-16,10C4000.58,12903.24,3999.58,12899.24,4002.58,12893.24z"/>
	<path d="M4547.58,12722.24c0-5,5-7,10-4c6,3,10,8,10,11c0,2-4,4-10,4C4552.58,12733.24,4547.58,12728.24,4547.58,12722.24z"/>
	<path d="M4976.58,14987.24c-1-2-2-7-3-11c-3-19-19-33-37-33c-11,0-22-7-25-15c-4-10-14-14-28-10c-19,6-20,5-3-8c9-8,17-22,17-31
		s5-16,10-16c6,0,10-7,10-15s-7-15-15-15s-15-7-15-15c0-9-7-15-17-13s-19-4-21-14c-6-28,42-34,69-9c19,18,20,21,5,21
		c-14,0-15,2-4,14c9,9,17,11,25,4c8-6,13-3,18,11c3,12,11,21,16,21c6,0,7,5,3,12c-5,7,0,9,14,6c18-5,20-2,17,23c-2,20,1,29,11,29
		c8,0,14,7,14,15s5,15,10,15c15,0,12,26-2,28c-7,0-25,3-40,5C4989.58,14988.24,4976.58,14989.24,4976.58,14987.24z
		 M4959.58,14877.24c-6-33-17-30-18,5c-1,19,3,28,11,25C4959.58,14904.24,4962.58,14891.24,4959.58,14877.24z"/>
	<path d="M4857.58,14893.24c0-5-7-10-15-10c-15,0-21-25-7-33c11-8,54,31,47,43C4874.58,14906.24,4857.58,14906.24,4857.58,14893.24z
		"/>
	<path d="M4857.58,14839.24c0-9,5-16,10-16c6,0,10,4,10,9c0,6-4,13-10,16C4862.58,14851.24,4857.58,14847.24,4857.58,14839.24z"/>
	<path d="M3327.58,14583.24c0-14-5-18-17-14c-16,5-16,4-2-5c10-7,15-19,12-35c-4-20-2-24,14-20c15,4,19,14,19,50c0,29-5,44-13,44
		C3333.58,14603.24,3327.58,14594.24,3327.58,14583.24z"/>
	<path d="M3470.58,14486.24c10-22,41-31,51-15c7,11-26,39-46,39C3462.58,14510.24,3461.58,14505.24,3470.58,14486.24z"/>
	<path d="M3837.58,14267.24c0-8,5-12,10-9c6,4,8,11,5,16C3843.58,14288.24,3837.58,14285.24,3837.58,14267.24z"/>
	<path d="M3557.58,14232.24c0-5,5-7,10-4c6,3,10,8,10,11c0,2-4,4-10,4C3562.58,14243.24,3557.58,14238.24,3557.58,14232.24z"/>
	<path d="M1772.58,14144.24c5-11,3-12-10-1c-12,10-21,10-40,2c-28-13-33-32-9-32c9,0,27-11,40-26c28-29,30-36,9-28c-19,8-19-4,1-36
		c14-24,15-24,11-2c-3,12-1,22,4,22s9-4,9-10c0-5,7-10,15-10c9,0,12-6,9-15c-5-12-2-13,17-7c34,13,35,31,2,38c-23,5-28,11-29,36
		s2,29,20,24c15-4,26,1,34,14c11,18,10,20-12,20c-13,0-27-6-30-12c-4-9-5-8-5,2c2,32-2,39-21,37
		C1774.58,14159.24,1768.58,14154.24,1772.58,14144.24z M1782.58,14113.24c3-5,1-10-4-10c-6,0-11,5-11,10c0,6,2,10,4,10
		C1774.58,14123.24,1779.58,14119.24,1782.58,14113.24z"/>
	<path d="M3291.58,14151.24c4-20,26-21,26-1c0,14-2,15-9,4c-6-9-10-10-14-2S3289.58,14160.24,3291.58,14151.24z"/>
	<path d="M4212.58,14123.24c-3-5-1-10,4-10c6,0,11,5,11,10c0,6-2,10-4,10C4220.58,14133.24,4215.58,14129.24,4212.58,14123.24z"/>
	<path d="M4342.58,14123.24c3-5,8-10,11-10c2,0,4,5,4,10c0,6-5,10-11,10C4341.58,14133.24,4339.58,14129.24,4342.58,14123.24z"/>
	<path d="M4150.58,14089.24c0-21,2-23,13-11c8,7,14,18,14,24s-6,11-14,11S4150.58,14103.24,4150.58,14089.24z"/>
	<path d="M1822.58,14073.24c-3-5,1-10,9-10c9,0,16,5,16,10c0,6-4,10-9,10C1832.58,14083.24,1825.58,14079.24,1822.58,14073.24z"/>
	<path d="M4527.58,14039.24c0-21,5-26,24-26c37,0,49,28,14,34c-7,1-19,5-25,9C4531.58,14062.24,4527.58,14057.24,4527.58,14039.24z"
		/>
	<path d="M4212.58,14013.24c-3-11-3-25,0-30c10-16,35,8,35,31C4247.58,14039.24,4220.58,14038.24,4212.58,14013.24z"/>
	<path d="M3227.58,14003.24c0-5,5-10,10-10c6,0,10,5,10,10c0,6-4,10-10,10C3232.58,14013.24,3227.58,14009.24,3227.58,14003.24z"/>
	<path d="M4477.58,14003.24c0-5,5-10,10-10c6,0,10,5,10,10c0,6-4,10-10,10C4482.58,14013.24,4477.58,14009.24,4477.58,14003.24z"/>
	<path d="M1840.58,13989.24c-3-4,4-17,15-28c14-14,26-18,42-13c18,6,20,9,9,16c-12,8-12,11,1,19c17,11,17,11-28,13
		C1860.58,13997.24,1843.58,13994.24,1840.58,13989.24z"/>
	<path d="M4983.58,13974.24c-4-5-2-12,3-15c5-4,12-2,15,3c4,5,2,12-3,15C4993.58,13981.24,4986.58,13979.24,4983.58,13974.24z"/>
	<path d="M4202.58,13953.24c3-5,10-10,16-10c5,0,9,5,9,10c0,6-7,10-16,10C4203.58,13963.24,4199.58,13959.24,4202.58,13953.24z"/>
	<path d="M1921.58,13927.24c3-9,6-20,6-25c0-4,7-6,15-3c10,4,15,0,15-11c0-9,6-15,13-12c6,2,11,10,10,16c-2,6,2,11,7,11
		c22,0,8,17-23,28C1920.58,13947.24,1914.58,13946.24,1921.58,13927.24z"/>
	<path d="M5067.58,13763.24c0-5,7-10,16-10c8,0,12,5,9,10c-3,6-10,10-16,10C5071.58,13773.24,5067.58,13769.24,5067.58,13763.24z"/>
	<path d="M4902.58,13733.24c3-5,8-10,11-10c2,0,4,5,4,10c0,6-5,10-11,10C4901.58,13743.24,4899.58,13739.24,4902.58,13733.24z"/>
	<path d="M5207.58,13682.24c0-5,5-7,10-4c6,3,10,8,10,11c0,2-4,4-10,4C5212.58,13693.24,5207.58,13688.24,5207.58,13682.24z"/>
	<path d="M5057.58,13628.24c-10-12-10-15,3-15c19,0,31,16,18,24C5073.58,13640.24,5064.58,13636.24,5057.58,13628.24z"/>
	<path d="M2331.58,13569.24c-18-14-18-15,1-36c16-18,16-20,2-14c-10,4-17,1-17-6c0-8,9-11,25-8c14,3,25,1,25-3c0-5,11-11,25-15
		c14-3,32-21,43-42c10-21,27-39,37-40c12-3,15,0,9,10c-5,7-9,20-11,28c-1,8-17,28-35,44c-27,23-29,27-10,21c12-3,22-3,22,1
		c0,15-56,54-73,50c-9-2-15,0-12,4C2372.58,13579.24,2350.58,13582.24,2331.58,13569.24z"/>
	<path d="M2282.58,13523.24c4-6,11-8,16-5c14,9,11,15-7,15C2283.58,13533.24,2279.58,13528.24,2282.58,13523.24z"/>
	<path d="M2463.58,13494.24c-4-5-2-12,3-15c5-4,12-2,15,3c4,5,2,12-3,15C2473.58,13501.24,2466.58,13499.24,2463.58,13494.24z"/>
	<path d="M2392.58,13463.24c-16-7-17-9-3-9c9-1,20,4,23,9C2419.58,13474.24,2419.58,13474.24,2392.58,13463.24z"/>
	<path d="M2509.58,13418.24c1-19,6-35,10-35s8,4,8,10c0,11,91-37,102-54c5-7,12-4,22,9c18,25,13,33-29,41c-19,3-33,10-30,14
		c3,5-8,11-24,15c-16,3-32,13-35,21C2522.58,13466.24,2506.58,13453.24,2509.58,13418.24z"/>
	<path d="M4727.58,13393.24c0-5,4-10,9-10c6,0,13,5,16,10c3,6-1,10-9,10C4734.58,13403.24,4727.58,13399.24,4727.58,13393.24z"/>
	<path d="M2537.58,13358.24c0-9,5-15,11-13s11,8,11,13s-5,11-11,13S2537.58,13367.24,2537.58,13358.24z"/>
	<path d="M4717.58,13333.24c0-5,5-10,11-10c5,0,7,5,4,10c-3,6-8,10-11,10C4719.58,13343.24,4717.58,13339.24,4717.58,13333.24z"/>
	<path d="M2642.58,13314.24c-6-11,9-23,19-14c9,9,7,23-3,23C2652.58,13323.24,2646.58,13319.24,2642.58,13314.24z"/>
	<path d="M2492.58,13123.24c3-5,8-10,11-10c2,0,4,5,4,10c0,6-5,10-11,10C2491.58,13133.24,2489.58,13129.24,2492.58,13123.24z"/>
	<path d="M2414.58,13076.24c-4-3-7-11-7-17s5-5,12,2c6,6,9,14,7,17C2423.58,13081.24,2417.58,13080.24,2414.58,13076.24z"/>
	<path d="M2620.58,12553.24c-6-23-14-25-31-8c-8,8-15,8-25,0c-10-9-16-9-25,0s-12,8-12-4c0-25,26-41,47-29c12,6,25,6,34,0
		c19-12,52-11,44,1c-3,6-1,10,5,10s8,5,4,12s-3,8,4,4c6-4,8-14,5-24c-4-13-3-14,6-6s9,17,0,37
		C2661.58,12578.24,2627.58,12582.24,2620.58,12553.24z"/>
	<path d="M2302.58,12555.24c-3-3,2-14,12-24c14-16,15-18,0-18c-9,0-19,5-23,11c-4,8-8,8-13,0c-5-7-16-6-36,5c-15,8-31,11-34,7
		s-14-8-23-8c-10,0-18-4-19-10c-2-21-20-45-30-40c-5,4-9,1-9-4c0-17,40-13,46,4c8,21,40,28,65,15c15-8,19-9,15-1c-4,6-2,11,3,11
		c6,0,11-12,11-27c1-25,2-26,14-11c10,14,31,18,92,20c56,2,83,7,91,18c10,12,14,13,21,2c12-17,59-42,66-34c11,11,6,21-8,16
		s-43,32-38,49c1,5-2,6-8,2c-5-3-10-1-10,5s-4,9-9,6c-5-4-11-1-13,6c-6,18-28,0-28-24c0-14-5-18-16-14c-9,3-20,6-26,6s-8,7-4,15
		c11,29-23,6-38-25c-4-10-5-8-3,5c3,14-4,24-19,32C2318.58,12556.24,2306.58,12558.24,2302.58,12555.24z"/>
	<path d="M2028.58,12536.24c-5-10-13-15-17-11c-10,10-34-11-34-29c0-10,6-12,22-8c16,6,20,4,15-8c-4-10,2-16,21-20c33-6,39-2,23,17
		c-6,7-13,28-14,45C2042.58,12558.24,2041.58,12559.24,2028.58,12536.24z"/>
	<path d="M2067.58,12524.24c0-23,23-33,56-25c31,8,31,22-2,34C2083.58,12548.24,2067.58,12545.24,2067.58,12524.24z"/>
	<path d="M1666.58,12522.24c-7-4-16-6-20-3c-12,7-32-25-25-41c3-8,14-15,25-15s21-6,24-12c2-8,8-9,13-4s4,11-3,13c-7,3-13,14-13,26
		c1,21,2,21,14,4c8-10,20-15,29-11c10,3,17-1,20-13c4-16,5-15,6,3c0,11,6,25,12,31c12,12,4,33-13,33c-5,0-8-7-4-15c3-8,1-15-4-15
		c-6,0-10,4-10,9C1717.58,12525.24,1682.58,12532.24,1666.58,12522.24z"/>
	<path d="M2787.58,12513.24c0-5,5-10,10-10c6,0,10,5,10,10c0,6-4,10-10,10C2792.58,12523.24,2787.58,12519.24,2787.58,12513.24z"/>
	<path d="M1869.58,12472.24c2-6,8-10,13-10s11,4,13,10s-4,11-13,11S1867.58,12478.24,1869.58,12472.24z"/>
	<path d="M4527.58,12194.24c0-21,13-41,27-41c10,0,14-7,10-20c-7-29,6-33,32-9c22,21,20,39-3,39c-8,0-16,9-19,20
		C4569.58,12203.24,4527.58,12212.24,4527.58,12194.24z"/>
	<path d="M3046.58,12136.24c-1-4-1-12,0-16s-6-7-15-5s-19-3-21-9c-3-7,3-13,12-13c12,0,15-6,10-22c-4-13-11-27-16-32
		c-16-18-10-34,11-29c11,3,23,16,26,29s10,24,15,24c14,0,6,73-9,78C3053.58,12143.24,3046.58,12141.24,3046.58,12136.24z"/>
	<path d="M3612.58,12113.24c-3-5,1-10,9-10c9,0,16,5,16,10c0,6-4,10-9,10C3622.58,12123.24,3615.58,12119.24,3612.58,12113.24z"/>
	<path d="M4595.58,12098.24c-34-29-34-31-6-46c18-10,20-9,15,5c-4,9-2,16,3,16c14,0,12-23-2-39c-8-9-8-11-2-8c7,4,15,0,18-9
		s11-12,18-8c8,5,9,2,5-10c-4-10-1-19,8-23c10-3,12-9,7-17c-17-21-10-47,10-40c10,3,18,1,18-5s6-11,13-11c22,0,18,61-6,82
		c-12,11-15,17-7,13s2,5-13,19c-23,22-26,27-12,32c13,5,13,9-5,24c-11,10-19,23-18,30
		C4644.58,12125.24,4623.58,12123.24,4595.58,12098.24z"/>
	<path d="M3351.58,11939.24c-3-8-12-12-20-9c-9,3-14-2-14-16c0-12,0-24-1-28c0-4,4-9,10-11s11,3,11,12s5,16,10,16c6,0,10-5,10-11
		c0-5,4-8,9-5c11,7,11,55,0,62C3361.58,11952.24,3354.58,11948.24,3351.58,11939.24z"/>
	<path d="M4708.58,11876.24c-5-10-13-17-18-15c-4,2-9-1-11-7c-5-14,15-14,23-1c3,6,18,10,32,10c21,0,24,2,13,15
		C4731.58,11898.24,4720.58,11897.24,4708.58,11876.24z"/>
	<path d="M3352.58,11863.24c3-5,8-10,11-10c2,0,4,5,4,10c0,6-5,10-11,10C3351.58,11873.24,3349.58,11869.24,3352.58,11863.24z"/>
	<path d="M4897.58,11863.24c0-5,5-10,11-10c5,0,7,5,4,10c-3,6-8,10-11,10C4899.58,11873.24,4897.58,11869.24,4897.58,11863.24z"/>
	<path d="M4722.58,11833.24c-15-16-15-21-4-33c20-19,47-28,54-17c4,6,15,10,26,10c23,0,25,13,4,30c-10,8-15,9-15,2s-7-9-17-5
		c-11,4-12,8-5,11c19,6,14,22-6,22C4748.58,11853.24,4732.58,11844.24,4722.58,11833.24z"/>
	<path d="M3127.58,11743.24c0-5,5-10,11-10c5,0,7,5,4,10c-3,6-8,10-11,10C3129.58,11753.24,3127.58,11749.24,3127.58,11743.24z"/>
	<path d="M4752.58,11743.24c3-5,8-10,11-10c2,0,4,5,4,10c0,6-5,10-11,10C4751.58,11753.24,4749.58,11749.24,4752.58,11743.24z"/>
	<path d="M3113.58,11714.24c-4-5-1-11,5-13c7-2-3-12-22-21c-20-10-27-17-16-17c9,0,17-6,17-14c0-12,5-12,30-3c38,14,46,35,21,59
		C3125.58,11725.24,3120.58,11727.24,3113.58,11714.24z"/>
	<path d="M3054.58,11637.24c-3-3-3-13,1-22c5-15,4-15-13-2c-16,14-17,13-11-8c6-19,4-22-18-22c-16,0-26-6-26-15c0-20,46-20,54,1
		c5,14,9,14,23,3c14-12,15-11,9,7c-5,15-2,24,9,28c15,5,15,8,1,21C3067.58,11645.24,3063.58,11646.24,3054.58,11637.24z"/>
	<path d="M2987.58,11603.24c0-5,4-10,9-10c6,0,13,5,16,10c3,6-1,10-9,10C2994.58,11613.24,2987.58,11609.24,2987.58,11603.24z"/>
	<path d="M2867.58,11578.24c0-8,5-15,10-15c6,0,10,7,10,15s-4,15-10,15C2872.58,11593.24,2867.58,11586.24,2867.58,11578.24z"/>
	<path d="M2880.58,11544.24c-11-11-23-18-26-15s-7,1-10-3c-3-5,12-10,34-10c39-1,47,9,31,35
		C2903.58,11560.24,2896.58,11558.24,2880.58,11544.24z"/>
	<path d="M2944.58,11526.24c-10-3-16-10-14-16c5-15-22-36-46-37c-42,0-65-58-44-107c9-20,11-20,25-6c13,13,13,16,1,24
		c-11,7-11,9,3,9c9,0,20-5,23-10c9-15,27-1,21,16c-3,7,0,16,6,20s8,3,4-4c-3-6-2-13,3-16c12-8,22,20,14,39c-7,20,27,47,43,34
		c8-6,14-4,18,6c3,10-1,15-12,15c-16,1-16,1,1,11C3027.58,11526.24,2998.58,11540.24,2944.58,11526.24z"/>
	<path d="M2822.58,11483.24c-3-5-2-10,4-10c5,0,13,5,16,10c3,6,2,10-4,10C2833.58,11493.24,2825.58,11489.24,2822.58,11483.24z"/>
</g>
</svg>
