<?xml version="1.0" encoding="utf-8"?>
<!-- Generator: Adobe Illustrator 29.5.1, SVG Export Plug-In . SVG Version: 9.03 Build 0)  -->
<svg version="1.0" id="Layer_1" xmlns="http://www.w3.org/2000/svg" xmlns:xlink="http://www.w3.org/1999/xlink" x="0px" y="0px"
	 viewBox="0 0 486.63 659.56" style="enable-background:new 0 0 486.63 659.56;" xml:space="preserve">
<g transform="translate(0.000000,1640.000000) scale(0.100000,-0.100000)">
	<path d="M2657.58,15037.99c-10-2-19-9-19-15c-1-7-3-27-5-46c-3-26-1-32,11-27c13,4,13,2,5-14c-8-15-6-21,7-29c17-10,15-11-19-15
		c-7,0-15-12-17-26c-1-14-8-28-14-32c-8-5-5-13,9-25c19-18,22-53,3-53c-5,0-9-7-9-15s5-15,10-15c14,0,12-26-3-42c-7-7-12-33-11-58
		c1-28-5-52-14-62c-14-16-13-18,1-18c20,0,21-4,6-33c-14-25-19-106-8-113c4-2,3-19-2-37c-17-56-21-117-8-133c6-8,7-14,2-14
		c-8,0-12-18-14-67c-1-13-6-20-14-17c-7,3-16,1-20-5c-3-6-1-11,5-11s10-8,8-17c-1-10,1-23,5-29c4-7,0-17-8-24c-17-14-21-35-5-25
		c6,3,10-1,10-9c0-19,11-21,28-4c19,19,15,41-7,35c-17-4-18-2-8,14c7,11,17,17,23,15c7-3,14,8,16,26c3,20,0,32-9,35
		c-11,5-9,11,11,29c29,27,48,31,40,9c-4-10,0-15,15-15c12,0,21-4,21-10c0-20,21-9,30,16c8,19,7,31-2,42c-10,12-10,16,0,19
		c6,3,12,9,12,14c0,6-4,7-10,4c-6-4-10,6-10,24c0,24,4,29,16,24c14-5,14-3,3,15c-9,15-10,27-2,44c5,13,8,34,6,48s-4,43-6,64
		c-1,28-7,41-21,46c-17,6-18,7-3,13c9,3,17,2,17-4s5-7,10-4c6,4,4,12-5,21c-20,20-20,45,0,38c9-4,15,0,15,9s-9,19-20,22
		c-16,5-18,10-10,25c7,12,7,27,0,45c-7,17-7,24,0,20c6-3,10,1,10,9c0,9-6,16-12,16c-7,0-5,5,5,11c15,9,16,13,5,26
		c-17,20-12,112,7,132c13,15,12,20-5,49c-24,40-24,37-1,59c19,18,19,19-7,34C2686.58,15034.99,2666.58,15039.99,2657.58,15037.99z
		 M2639.58,14825.99c0-5-4-10-10-10c-5,0-10,5-10,10c0,6,5,10,10,10C2635.58,14835.99,2639.58,14831.99,2639.58,14825.99z
		 M2679.58,14604.99c0-6-4-7-10-4c-5,3-10,1-10-5s-4-8-10-5c-16,10-11,21,10,22C2670.58,14613.99,2679.58,14609.99,2679.58,14604.99
		z M2639.58,14565.99c0-5-7-10-15-10s-15,5-15,10c0,6,7,10,15,10S2639.58,14571.99,2639.58,14565.99z M2701.58,14433.99
		c4-20,0-23-29-24c-18-1-30,2-27,7s-2,6-10,3c-27-10-18,3,16,24C2687.58,14466.99,2695.58,14465.99,2701.58,14433.99z
		 M2646.58,14346.99c-1-25-6-37-14-34c-14,5-14,42,0,61C2646.58,14391.99,2647.58,14389.99,2646.58,14346.99z M2640.58,14295.99
		c6,0,7-5,4-11c-4-6,1-17,11-25c11-9,13-12,5-8c-10,5-13,3-9-7c6-15-16-42-25-32c-4,3-3,18,0,34c3,17,1,29-5,29c-5,0-13,7-16,16
		c-5,12-2,15,10,10C2623.58,14298.99,2635.58,14295.99,2640.58,14295.99z"/>
	<path d="M3809.58,14625.99c-8-5-24-10-36-10s-26-11-34-25c-9-18-19-23-32-19c-18,5-56-22-45-33c12-11-14-43-36-43
		c-15,0-29-13-46-41c-13-25-35-46-52-52c-16-6-29-15-29-20c0-4,5-5,10-2c6,3,10,2,10-3s-13-15-29-22c-19-7-28-17-24-26
		c3-8,0-14-6-14s-11-7-11-16c0-13-7-15-30-10c-17,3-30,1-30-4c0-6,5-10,10-10c6,0,10-4,10-10c0-5-7-10-15-10s-19-9-25-20
		s-21-20-34-20c-20,0-22-4-18-27c5-25,4-27-11-14c-14,11-20,11-34,0c-31-25-53-49-45-49c4,0-1-5-11-11c-9-6-15-15-11-20
		c3-6-2-17-12-24c-15-12-16-16-5-24c8-5,9-11,3-15c-6-3-13-3-15,1c-3,5-20,8-38,7c-22-1-33-6-35-18c-3-23-24-47-35-40
		c-5,3-10,0-10-5c-1-6-2-17-3-23c-1-7-12-13-26-13c-35,0-37-28-3-55c27-21,27-22,9-36c-25-18-31-18-46,1c-10,13-9,15,9,15
		c27,0,27,17,1,25c-11,4-18,11-15,16c4,5,2,9-3,9s-12-9-15-21c-3-11-14-23-25-26c-14-3-18-11-15-24c4-13,0-19-10-19c-9,0-21-9-28-21
		c-7-14-17-19-30-16c-13,4-19,0-20-11c-5-62-3-99,4-115s6-17-9-9c-11,6-27,6-43,1c-23-8-26-15-26-56c0-28-5-48-12-50
		c-7-3-13-11-13-19c0-18-8-18-27,2c-15,15-17,14-28-6c-8-15-15-19-19-11c-4,6-2,11,3,11c6,0,11,6,11,13c0,6,11,25,25,41s25,35,25,41
		c0,7,7,15,15,19c20,7,20,46,0,46c-12,0-13,4-5,19c14,28,13,31-15,31c-14,0-28-7-31-15c-5-11-10-13-19-5c-6,5-15,7-18,4
		c-3-4-4,6-1,22c7,41,24,55,24,20c0-24,3-26,23-20c27,8,23,4,31,32c4,12,3,22-2,22c-17,0-21,54-6,78c14,21,14,23-2,20
		c-10-2-18,4-20,15c-2,15,0,16,12,6c8-6,16-10,18-8c6,7-13,49-23,49c-5,0-7,9-4,20s9,20,14,20s9,7,9,15s-6,15-12,15c-10,0-10,2,0,9
		c11,6,10,10-4,15c-15,6-16,8,0,24c18,21,21,42,5,42c-5,0-8,3-6,8c3,4-11,7-31,7c-35,0-37-2-39-33c-2-42,13-50,21-11
		c3,17,10,28,16,24c15-9,12-36-7-57c-13-14-14-21-5-30c16-16,15-43-3-58c-20-16-19-34,1-26c8,3,12,2,9-4s-1-10,4-10c6,0,11-4,11-10
		c0-5-7-10-16-10c-8,0-13,4-10,8c3,5-8,9-24,9c-22,0-30-5-30-18c0-10-5-21-12-25c-7-5-5-11,7-21c22-16,2-18-26-2c-20,10-20,11-2,24
		c17,13,17,14,1,15c-22,0-23,28-2,51c9,10,14,28,11,41l-4,23l-8-22c-4-12-13-19-19-17c-7,3-19-3-27-12c-11-13-11-18-1-21
		c17-6,15-42-3-49c-8-4-15-10-15-16c0-5,3-7,8-5c4,3,13-1,20-9c11-12,9-14-12-14c-20,0-24-4-19-17c4-11,8-12,11-5c4,13,68,17,76,4
		c2-4-2-16-10-27c-14-18-14-18-27,0c-19,25-37,10-37-31c0-19-4-34-10-34c-5,0-10-11-10-25s6-25,13-25c8,0,7-4-3-10c-13-9-13-11,0-21
		s13-10-1-6c-9,3-21-4-28-15c-11-18-11-20,3-15c20,8,48-2,40-14c-3-5-17-9-32-9l-27-1l23-19c19-16,20-20,8-27c-14-7-14-12-1-36
		c8-15,9-25,4-21c-7,4-9-1-4-15c4-15,2-21-9-21c-19,0-27,13-31,52c-5,39-13,47-28,28c-7-8-26-17-43-18c-26-3-33,1-38,20
		c-5,18-8,20-15,9c-7-10-31-13-105-9c-77,3-97,1-101-11c-5-12-8-11-18,3c-7,10-20,17-28,16c-28-4-39,0-39,15c0,18-17,20-23,3
		c-3-10-9-10-26,0c-28,16-31,15-31-8c0-11,5-20,10-20c6,0,10-5,10-11c0-5-5-7-12-3c-6,4-17-1-24-10c-6-9-15-13-18-8c-3,6,0,12,8,15
		c7,3,13,19,14,35c0,26-3,30-21,28c-12-1-32-8-43-14c-19-10-23-9-28,13l-6,25l-21-21c-19-19-22-19-38-5c-22,20-37,20-45,1
		c-7-20-26-19-26,2c0,12-7,8-25-13c-16-18-23-22-19-10c10,25-10,35-62,29c-34-3-46-1-50,11c-7,19-40,21-50,4c-5-8-11-6-20,7
		c-7,10-19,15-27,12s-24,1-35,9c-13,9-23,11-27,4c-3-5-15-10-26-10s-19-7-19-16c0-11-6-13-19-9c-12,3-28-1-40-12c-21-17-30-39-11-28
		c5,3,23-7,40-24c22-21,28-31,19-37c-7-4-15-2-17,4c-2,7-12,12-22,12s-20,6-22,12c-3,9-9,8-21-4c-22-22-22-25,11-42
		c19-11,22-15,10-16c-10,0-18-4-18-10c0-13,0-13,50,5c37,13,41,13,36,0c-7-19,1-19,21,0c18,19,31,11,15-8c-17-21-1-30,19-11
		c20,18,39,11,39-13c0-9,6-13,14-10c10,4,12,0,9-14c-6-22,12-26,21-4c3,8,10,15,16,15c5,0,10-7,10-15c0-16,16-21,22-6c2,5,18,3,37-5
		c33-14,33-15,15-29c-10-8-14-15-7-15c6,0,15,5,18,11c4,6,13,8,21,5s14,0,14,7c1,7,9,2,19-10c12-15,22-18,32-12c22,13,39,11,39-7
		c0-8,4-13,9-10s12-1,15-10c8-20,26-8,26,17c0,10,7,19,15,19c17,0,20-25,5-35c-7-4-6-13,1-26c10-19,11-20,23-3c15,20,55,14,80-12
		c9-8,20-12,26-9c24,15,45-5,45-42c-1-31-4-39-23-41c-12-2-22-10-22-18s-4-12-10-9c-5,3-10-1-10-11c0-13-3-14-15-4
		c-15,12-16,11-19-22c-1-7-11-23-23-37c-13-13-23-30-23-37c0-17-1-17-34-5c-18,7-28,6-36-4c-7-8-17-12-24-8c-6,4-5-1,3-10
		c11-14,11-20,0-34c-12-15-12-16,4-10c12,5,17,1,17-13c0-32-25-23-40,15c-16,40-25,38-34-10c-5-26-13-36-31-41c-13-3-26-12-29-20
		s-11-14-18-14c-19,0-38-46-25-59c15-15-8-14-33,1c-16,10-23,8-44-15c-14-15-27-31-28-35c-2-4-6-6-10-4c-5,1-8-2-8-7s-12-12-27-16
		c-16-4-22-10-15-12c17-6,15-23-3-23c-8,0-15,6-16,13c0,6-4,2-9-10c-7-16-14-21-26-16c-13,5-16,3-11-10c8-21-12-34-24-16
		c-5,8-9,9-9,4c0-6,5-16,10-21c6-6,8-18,5-27c-6-13-9-13-27,5c-11,11-23,17-26,13c-4-3,0-10,8-15c17-10,17-10-36-43
		c-23-14-45-23-50-19c-4,4-4,2,0-5c7-14-8-25-37-27c-20-1-38-26-18-26c6,0,8-7,5-15c-4-10,0-15,11-15c9,0,14,4,11,8
		c-2,4,15,14,40,21c24,7,42,17,39,21c-6,10,30,42,38,33c4-3,7-15,7-25c0-13,4-17,13-12c7,5,6,0-3-11c-13-16-15-16-18-2
		c-4,19-18,22-27,8c-3-5-1-12,5-16c11-7,4-25-10-25c-5,0-11,8-13,18c-4,16-5,16-6,0c-1-12-9-18-23-18c-17,0-19-3-10-9
		c11-7,11-9-2-14c-9-4-16-2-16,4s-7,9-15,5c-9-3-20,3-27,14c-13,21-48,28-48,9c0-5,5-7,10-4c6,3,10,1,10-4c0-6-13-11-29-11
		c-22,0-30-6-35-25c-4-14-13-25-20-25c-8,0-17-11-20-25c-4-16-16-27-33-31c-15-4-37-18-48-30c-12-13-25-21-28-18s-11-3-18-14
		s-19-18-26-15s-13,1-13-5c0-14,26-33,33-25c4,3,19,8,34,9c26,3,26,2,8-9c-11-6-33-11-50-12c-33-1-115-48-115-67c0-6-3-8-7-5
		c-3,4-12,2-20-4c-9-9-13-8-13,0c0,24-18,9-24-20c-3-17-10-28-16-24c-6,3-13-1-16-9c-3-9-12-16-20-16s-14-5-14-11s6-9,13-6
		c6,2,22-4,34-15c21-19,43-18,43,3c0,6-9,7-20,4c-28-9-25,4,2,14c16,6,26,4,33-6c8-11,15-9,37,12c27,25,48,32,48,16c0-13,39-21,46-9
		c4,6,0,14-7,19c-10,6-11,9-1,9c6,0,12,9,12,21c0,11,4,18,9,15s7-16,4-27c-6-20-3-21,23-15c16,4,36,15,44,25c9,10,21,16,28,13
		c6-2,19,3,27,12c14,13,19,13,51,0c28-12,35-12,32-2c-7,19,19,40,44,36c14-2,30,5,39,16c12,15,18,16,24,6c5-8,4-11-3-6
		c-6,3-13,2-16-3s4-11,17-15c34-9,40-7,28,8c-10,12-13,92-3,82c2-2,15,7,30,21s34,22,44,20c11-3,24,3,31,14c8,10,17,16,20,13
		c4-4,9,1,13,10c5,13,9,14,20,5s15-7,20,5c6,15,9,15,30-5c21-19,24-20,30-6c3,9,10,14,16,11c5-3,12,4,15,15c5,20,7,21,23,6
		c15-14,21-14,39-3c12,7,21,18,21,25c0,12,6,14,50,17c8,1,20,4,27,9c6,4,19,4,29,0c16-6,16-7,0-19c-12-8-14-14-6-19c6-4,17-2,25,5
		c11,9,12,7,8-9c-4-15-13-21-33-21c-16,0-30,5-32,12c-2,6-10,8-17,4c-9-6-9-13,3-31c13-19,13-24,1-28c-18-8-37,16-29,37
		c4,11,1,16-11,16c-9,0-13-4-10-10c3-5,1-10-4-10c-6,0-11,5-11,11c0,5-5,7-11,4c-6-4-8-13-5-21s-1-14-10-14c-8,0-17-7-20-15
		c-5-12-10-13-20-4c-11,9-18,8-29-1c-19-16-19-46,0-53c16-7,29,8,20,23c-7,11,8,14,19,3c13-13,36-11,36,3s27,19,87,15
		c23-2,35,3,43,19c10,18,14,19,28,8c9-7,13-8,9-2c-4,7,0,17,8,24c12,10,15,10,15,0c0-9,7-7,20,5c11,10,20,13,20,8c0-6,7-14,16-17
		c11-4,18,1,21,15c4,12,11,18,20,15c8-4,27-9,41-12l27-6l-21,19c-27,23-39,59-22,69c6,4,14,2,16-4c7-23,22-12,22,17
		c0,35,13,46,30,26c14-17,40-20,40-5c0,6-5,10-11,10c-5,0-7,5-3,11s20,8,40,4c21-3,34-2,34,5c0,5-4,10-10,10c-5,0-10,5-10,11
		s7,9,15,6c8-4,17-2,20,3c13,21,24,10,15-14c-5-13-6-27-2-32c4-4,2-4-5,0c-6,3-14,2-18-3c-3-6-12-8-19-5s-16-2-19-10
		c-4-9-13-16-22-16c-8,0-15-5-15-11s-8-8-19-4c-13,4-24-1-33-13c-7-11-16-20-20-21c-18-3-11-16,10-19c12-2,22,2,22,8c0,7,8,9,20,5
		s20-2,20,5c0,6,5,8,10,5c15-9,12-36-5-55c-13-14-12-18,5-33c11-9,21-15,21-12c1,3,2,11,3,18c1,6,7,11,14,9c7-1,12,5,12,14
		c0,11,5,14,16,10c13-5,15-2,11,14c-3,13,0,20,9,20c8,0,14,8,14,18c0,9,14,25,30,34c26,15,30,15,30,2c0-8-5-25-11-36
		c-8-16-8-23,2-30c9-6,5-7-12-3c-22,6-28,2-39-24c-8-19-20-31-31-31s-19-5-19-11c0-7,10-9,25-5c14,4,25,2,25-4c0-5-5-10-11-10
		c-11,0-39-24-39-34c0-3,16-6,35-6c19,0,35,5,35,10c0,6,6,10,14,10s16,12,18,26l3,25l23-21c21-20,31-47,13-36c-17,11-33-23-40-86
		c-1-4-8-5-16-2c-11,4-13,2-9-9c3-8,1-18-5-22c-14-8,5-46,22-44c26,3,35-2,40-22c4-15,2-19-8-15c-16,6-30-10-16-18c11-7,5-65-9-81
		c-6-8-6-15,2-23c9-9,9-12-2-12c-7,0-10-3-7-7c4-3,2-12-4-19c-7-9-7-19,1-34c9-16,8-25,0-36c-7-7-10-21-6-29c3-8,1-15-4-15
		c-6,0-10,8-10,18c0,14-2,15-10,2c-5-8-10-23-10-33c0-14,5-17,21-12c15,5,22,2,26-15c4-14,11-19,21-15c12,4,14-2,9-35
		c-5-42,0-48,23-27c7,6,4-4-8-24c-16-26-21-49-19-81c2-34-1-44-10-41c-7,3-13,0-13-6s6-11,13-11c9,0,9-2-1-9c-11-7-10-9,3-14
		c14-6,14-9-1-31c-8-14-13-30-9-35c3-6,1-19-5-30c-7-13-7-22,0-26c6-4,7-12,3-18c-10-17-15-38-14-69c1-15-3-29-9-33
		c-5-3-10-15-10-25s-4-20-9-22c-5-1-6-17-4-35c3-21,12-33,26-37c17-4,19-8,9-18c-18-18-15-25,13-32s25-31-6-39c-10-3-19-11-19-17
		c0-7,7-10,15-7c22,9,28-10,8-22c-16-9-16-12-3-21s11-14-10-32c-24-21-24-21-2-15c26,6,30-14,7-37c-22-22-19-56,5-56
		c11,0,20-7,20-15s5-15,11-15s9,7,5,15c-3,9,3,19,15,26c11,6,18,17,15,24c-2,7,2,19,10,25c17,15,18,40,2,40c-9,0-9,3,1,9
		c17,11,25,51,11,51c-6,0-10-7-10-15c0-13-4-12-21,4c-15,14-19,25-14,38c7,16,9,15,14-7l7-25l27,27c15,15,27,32,27,37c0,6,6,8,14,5
		c25-10,26,13,1,26c-14,7-25,17-25,22c0,4-7,8-16,8c-12,0-14-8-10-36c4-22,2-33-4-29c-5,3-10,15-10,26c0,10-7,19-15,19
		c-17,0-20,16-5,25c6,3,10,19,10,35s5,32,10,35c6,3,10,17,10,31s4,23,9,19c15-9,24,34,11,50c-14,16-5,35,16,35c17,0,16-3,5,36
		c-8,28-6,33,16,43c13,6,22,15,19,20s1,12,9,15c12,4,13,10,5,25c-15,28-13,33,11,26c17-6,20-3,17,12c-2,11-12,18-26,17
		c-12,0-22,3-22,8c0,4,5,8,11,8c8,0,8,4,0,14c-10,11-7,17,11,30c29,21,42,20,34,0c-5-13-4-14,7-6c8,7,17,9,20,5c4-3,7-2,7,3
		c0,6,6,18,13,28c12,17,14,17,20,2c4-9-2-23-14-35c-12-11-18-24-15-30c4-6-2-19-12-29c-15-15-19-32-18-71c0-28-3-51-8-51
		c-4,0-6-8-3-19c3-12-4-23-24-35c-30-18-37-44-18-63c8-8,1-20-24-45c-27-28-32-38-23-50c18-25,69-20,82,7c9,19,9,25-2,29
		c-17,7,0,73,28,103c11,12,17,26,13,32c-3,6-2,11,4,11c5,0,9,22,8,50c-2,47-1,50,26,56c32,7,31,27-1,32c-21,3-21,3-1,23
		c10,10,24,19,30,19s9,7,5,15c-3,8-2,15,2,15c5,0,7,14,6,30c-1,21,3,30,13,30c9,0,11,5,6,13c-14,22-11,37,6,37c13,0,18,9,18,33
		c2,58,14,96,29,90c19-7,18,11-2,28c-14,11-14,13,0,21c9,5,16,15,16,22c0,8,7,16,15,20c10,3,14,14,11,30c-2,13-2,27,2,30
		c3,4,7,16,9,28s8,25,14,28c5,4,7,14,3,23c-4,11-1,17,8,17c8,0,23,7,34,15c19,14,19,15-2,21c-27,7-21,54,7,54c22,0,26,29,7,49
		c-11,10-8,16,12,32l25,19l-21,18c-21,18-21,19-3,30c15,9,17,9,13-2c-3-7,3-16,12-20c23-9,25-5,14,33c-5,18-6,39-3,47s0,14-6,14
		s-11,5-11,11c0,5,4,8,9,5c16-10,41,5,41,24c0,11,4,21,9,25c5,3,8,19,6,35s0,32,6,35c5,4,7,10,4,15s-1,11,5,15c5,3,10,14,10,24
		s6,24,14,30c8,7,12,21,9,31c-4,15,0,20,16,20c12,0,21,6,20,13c-1,6-1,28,0,49c1,35,2,36,36,35c19-1,35-5,35-9s5-8,11-8s9,7,5,15
		c-3,9,0,15,9,15c8,0,15-7,15-15s7-15,15-15c22,0,31,31,14,44c-9,6-18,19-22,29c-3,9-13,17-22,17c-30,0-14,18,28,32
		c31,10,42,18,40,32c-1,10,7,28,18,39c10,12,19,24,19,29c0,4,7,8,15,8c20,0,19-10-2-26c-15-11-16-15-4-23c11-7,9-10-8-16
		c-11-3-21-12-21-20c0-7-8-16-17-19c-11-5-13-10-7-14s13-17,17-30c4-19,2-22-14-17c-18,6-19,5-7-14c26-42,68-39,68,5c0,13,4,24,9,24
		s7-19,5-43c-4-43-3-44,26-44c16,0,27,4,24,8c-2,4,10,7,27,7c17-1,33-7,36-15c3-7,10-13,15-13c6,0,5,6-2,15c-14,16-9,17,136,19l70,1
		l-10,30c-6,16-13,32-16,35s-7,19-8,35c-1,19,1,25,6,17c13-19,41-4,35,19c-3,10-1,19,5,19c21,0,16-36-8-58c-14-13-19-20-11-16
		c11,6,13,1,8-24c-4-18-2-32,3-32c4,0,10-7,12-16c2-11,15-18,36-20c28-3,32-1,32,19c0,14-6,24-14,24s-12-7-9-16c2-9-1-7-8,4
		s-19,26-26,33c-17,18-18,38,0,24c7-6,23-9,35-5c13,3,22,1,22-6c0-18,15-12,25,11c6,12,18,26,28,32c14,9,21,7,33-8c12-17,12-22,0-35
		c-8-9-15-20-15-26c0-5-5-11-12-14c-8-2-10,2-6,13c10,24-13,16-31-12c-13-20-12-22,4-28c11-3,27-10,37-15c13-7,19-5,23,6
		c6,15,35,21,47,9c3-3,27-7,52-9c47-3,47-3,41,26c-3,17-1,29,5,29s4,7-5,15c-20,20-32,19-15-2c12-15,12-16-4-10c-10,4-23,7-28,7
		c-6,0-7,9-4,20c5,17,2,20-24,20c-17,0-30,3-30,8c5,29-4,40-36,46c-21,4-35,13-35,21s-6,15-14,15c-7,0-21,11-30,25
		c-10,15-22,22-31,19c-9-4-15,0-15,10c0,9-4,16-9,16s-12,11-15,25c-4,14-12,25-19,24c-37-5-48,1-42,22c6,18,4,20-14,14
		c-15-5-21-2-21,9c0,9-7,17-15,17c-8,1-21,2-27,3c-7,0-14,11-16,22c-3,23-32,37-71,34c-15-1-22,3-19,11c2,7-4,21-14,31s-18,25-18,33
		s-4,15-8,15s-27,18-51,40c-23,22-47,40-52,40s-9,5-9,11c0,13,25,39,39,39c6,0,13,11,17,25c3,14,12,25,20,25c17,0,18,26,2,36
		c-13,8-48,13-48,7c0-2,5-12,11-22c10-15,8-22-8-38c-11-11-23-27-25-34c-3-8-9-10-14-6s-3,12,4,16c9,6,7,12-8,26c-28,25-26,61,4,69
		c16,4,28,19,40,51c17,44,46,62,46,29c0-13,3-14,14-4c11,9,13,18,5,37c-9,25,0,42,24,43c5,0,5,6,1,13c-6,9-5,9,8,0c18-15,32-5,17,13
		c-7,9-5,18,9,32c11,11,23,30,27,41c4,12,15,30,26,40s21,35,23,57s4,42,5,46s8,5,16,2c18-7,20,12,3,19c-16,7,11,29,28,23
		c6-3,10,6,8,19c-1,16,4,26,16,30c10,3,25,19,32,35c7,17,17,29,23,28c15-3,77,60,71,71c-4,5,3,12,13,16c12,4,18,12,14,21
		c-3,7,0,14,6,14s12,10,12,23c1,16,2,18,6,5c2-10,19-22,36-26c30-8,31-9,10-16c-13-4-23-14-23-22c0-16,4-17,28-5c9,5,29,14,45,22
		c19,9,24,15,15,21c-10,6-10,8,0,8c6,0,12,7,12,15s5,15,10,15c6,0,10,9,10,19s7,22,16,25c9,4,14,13,10,21c-6,17,9,21,19,5
		c4-6,11-8,16-4c6,4,6,11-2,20c-9,11-9,14,1,14c8,0,10,3,7,7c-4,3-2,12,5,20c8,10,8,17,0,25c-16,16-15,25,2,25c8,0,14-5,13-10
		s3-11,10-14c15-6,37,33,23,42c-5,3-10,14-10,24c0,21,27,24,34,4c3-8,10-12,15-8c6,3,8,11,5,18c-3,8,6,25,19,39c17,19,23,35,21,55
		c-4,26-4,26,5,6c7-15,16-21,26-17c18,7,20,21,3,26c-7,3-13,13-13,23C3844.58,14632.99,3829.58,14638.99,3809.58,14625.99z
		 M3653.58,14360.99c3-9,0-15-9-15c-8,0-15-5-15-12c0-6-6-3-14,7c-8,11-12,23-10,27
		C3614.58,14381.99,3647.58,14376.99,3653.58,14360.99z M3609.58,14327.99c0-4-9-14-20-22s-20-20-20-27s-5-13-11-13s-8-9-4-20
		c7-22-19-29-28-7c-8,20-3,32,10,29c12-3,15,1,17,31C3555.58,14321.99,3609.58,14350.99,3609.58,14327.99z M3300.58,14098.99
		c12-16,12-17-1-7c-8,5-27,10-42,9c-15,0-24,3-22,7C3244.58,14121.99,3286.58,14115.99,3300.58,14098.99z M3259.58,14067.99
		c0-4-9-15-20-25c-17-14-20-14-20-2c0,8,7,15,16,15c8,0,12,5,9,10c-3,6-1,10,4,10
		C3254.58,14075.99,3259.58,14072.99,3259.58,14067.99z M3194.58,14007.99c16-11,12-37-5-37c-8,0-16,10-18,23
		C3168.58,14015.99,3176.58,14021.99,3194.58,14007.99z M3109.58,13954.99c0-8,5-8,15,1c13,10,15,9,15-9c0-19-2-20-22-10
		c-13,7-24,12-25,11c-9-6-23,0-23,8c0,6,9,10,20,10S3109.58,13960.99,3109.58,13954.99z M3099.58,13917.99c0-5-8-17-19-26
		c-17-15-19-15-25-1c-10,28-7,35,19,35C3088.58,13925.99,3099.58,13921.99,3099.58,13917.99z M2669.58,13875.99c0-5-4-10-10-10
		c-5,0-10,5-10,10c0,6,5,10,10,10C2665.58,13885.99,2669.58,13881.99,2669.58,13875.99z M2979.58,13826.99c0-5-6-14-14-20
		c-16-13-32,2-21,19C2952.58,13837.99,2979.58,13838.99,2979.58,13826.99z M2984.58,13795.99c3-5,1-10-4-10c-6,0-11,5-11,10
		c0,6,2,10,4,10C2976.58,13805.99,2981.58,13801.99,2984.58,13795.99z M2939.58,13791.99c0-2-7-7-16-10c-8-3-12-2-9,4
		C2920.58,13795.99,2939.58,13799.99,2939.58,13791.99z M2582.58,13757.99c-2-10-13-18-24-18c-21,0-26,21-6,29
		C2576.58,13778.99,2587.58,13775.99,2582.58,13757.99z M2886.58,13743.99c-3-8-6-5-6,6c-1,11,2,17,5,13
		C2888.58,13759.99,2889.58,13750.99,2886.58,13743.99z M2889.58,13721.99c0-3-4-8-10-11c-5-3-10-1-10,4c0,6,5,11,10,11
		C2885.58,13725.99,2889.58,13723.99,2889.58,13721.99z M2659.58,13701.99c0-3-4-8-10-11c-5-3-10-1-10,4c0,6,5,11,10,11
		C2655.58,13705.99,2659.58,13703.99,2659.58,13701.99z M2672.58,13623.99c8-5,6-8-5-8c-10,0-18,3-18,8c0,4-3,18-5,32l-6,25l11-25
		C2655.58,13642.99,2665.58,13627.99,2672.58,13623.99z M2826.58,13639.99c-3-3-12-4-19-1c-8,3-5,6,6,6
		C2824.58,13645.99,2830.58,13642.99,2826.58,13639.99z M2643.58,13600.99c3-9,0-15-9-15c-8,0-15,7-15,15s4,15,9,15
		S2639.58,13608.99,2643.58,13600.99z M2900.58,13548.99c-8-15-10-15-11-2c0,17,10,32,18,25
		C2909.58,13568.99,2906.58,13558.99,2900.58,13548.99z M1914.58,13548.99c-4-10-7-26-7-35c1-20-18-25-19-5c0,9-2,9-6-1
		c-6-15-23-6-23,14c0,8,7,14,15,14c9,0,18,7,21,15c4,8,11,15,16,15C1917.58,13565.99,1918.58,13557.99,1914.58,13548.99z
		 M1489.58,13545.99c12-8,9-10-13-10c-16,0-26,4-22,10C1462.58,13557.99,1470.58,13557.99,1489.58,13545.99z M1439.58,13535.99
		c0-5-2-10-4-10c-3,0-8,5-11,10c-3,6-1,10,4,10C1434.58,13545.99,1439.58,13541.99,1439.58,13535.99z M1383.58,13519.99
		c13-5,14-9,5-20c-16-20-28-17-26,6c1,11,2,20,3,20S1375.58,13522.99,1383.58,13519.99z M1504.58,13487.99c-4-16-1-29,7-34
		c9-7,8-8-5-4c-10,3-23,6-28,6c-15,0-10,30,5,36c9,3,12,12,9,21c-5,11-3,14,6,9C1506.58,13516.99,1508.58,13503.99,1504.58,13487.99
		z M1659.58,13505.99c-8-5-17-7-19-4c-3,3,1,9,9,14s17,7,19,4C1671.58,13516.99,1667.58,13510.99,1659.58,13505.99z
		 M1430.58,13506.99c7,11,9,11,9,1c0-7,4-11,8-8c4,2,9-5,9-17c2-14-1-17-6-9c-4,7-14,10-22,7c-10-4-15,2-16,17c0,13,1,17,4,9
		C1421.58,13495.99,1423.58,13495.99,1430.58,13506.99z M2209.58,13505.99c8-5,12-12,9-15c-8-8-39,5-39,16
		S2190.58,13517.99,2209.58,13505.99z M2339.58,13496.99c0-10-7-24-15-31c-13-10-15-9-15,12s-4,25-25,20c-14-2-25,0-25,4
		c0,5,18,10,40,11C2332.58,13514.99,2339.58,13511.99,2339.58,13496.99z M2259.58,13475.99c0-5-2-10-4-10c-3,0-8,5-11,10
		c-3,6-1,10,4,10C2254.58,13485.99,2259.58,13481.99,2259.58,13475.99z M2409.58,13465.99c0-11-4-20-10-20c-5,0-10,9-10,20
		s5,20,10,20C2405.58,13485.99,2409.58,13476.99,2409.58,13465.99z M2834.58,13475.99c-3-5-11-10-16-10c-6,0-7,5-4,10
		c3,6,11,10,16,10C2836.58,13485.99,2837.58,13481.99,2834.58,13475.99z M1561.58,13457.99c-7-2-12-11-12-20c0-12-3-13-11-5
		c-17,17-3,44,18,36C1566.58,13464.99,1568.58,13460.99,1561.58,13457.99z M2050.58,13442.99c-10-9-11-8-5,6c3,10,9,15,12,12
		S2057.58,13449.99,2050.58,13442.99z M1584.58,13426.99c-7-22-27-30-22-9c2,15,21,37,25,33
		C1589.58,13448.99,1588.58,13437.99,1584.58,13426.99z M2124.58,13435.99c-3-5-12-10-18-10c-7,0-6,4,3,10
		C2128.58,13447.99,2132.58,13447.99,2124.58,13435.99z M2819.58,13435.99c0-5-5-10-11-10c-5,0-7,5-4,10c3,6,8,10,11,10
		C2817.58,13445.99,2819.58,13441.99,2819.58,13435.99z M2916.58,13413.99c-3-7-5-2-5,12s2,19,5,13
		C2918.58,13431.99,2918.58,13419.99,2916.58,13413.99z M1796.58,13413.99c-3-8-6-5-6,6c-1,11,2,17,5,13
		C1798.58,13429.99,1799.58,13420.99,1796.58,13413.99z M1933.58,13426.99c4-5-3-7-14-4c-23,6-26,13-6,13
		C1921.58,13435.99,1930.58,13431.99,1933.58,13426.99z M2369.58,13425.99c0-5-2-10-4-10c-3,0-8,5-11,10c-3,6-1,10,4,10
		C2364.58,13435.99,2369.58,13431.99,2369.58,13425.99z M2470.58,13421.99c-8-10-9-16-1-21c16-10-7-45-29-45c-36,0-42,56-8,70
		C2468.58,13439.99,2484.58,13438.99,2470.58,13421.99z M1643.58,13404.99c-27-11-34-10-34,0c0,11,31,20,44,13
		C1658.58,13414.99,1654.58,13408.99,1643.58,13404.99z M1697.58,13380.99c-14-31-23-25-14,10c4,14,11,23,16,20
		C1705.58,13407.99,1704.58,13394.99,1697.58,13380.99z M1999.58,13399.99c0-2-7-4-15-4s-15,4-15,10c0,5,7,7,15,4
		C1992.58,13405.99,1999.58,13401.99,1999.58,13399.99z M2239.58,13405.99c0-5-2-10-4-10c-3,0-8,5-11,10c-3,6-1,10,4,10
		C2234.58,13415.99,2239.58,13411.99,2239.58,13405.99z M1869.58,13375.99c0-5-4-10-10-10c-5,0-10,5-10,10c0,6,5,10,10,10
		C1865.58,13385.99,1869.58,13381.99,1869.58,13375.99z M2899.58,13375.99c0-5-5-10-11-10c-5,0-7,5-4,10c3,6,8,10,11,10
		C2897.58,13385.99,2899.58,13381.99,2899.58,13375.99z M2931.58,13363.99c-7-7-12-8-12-2c0,14,12,26,19,19
		C2940.58,13377.99,2937.58,13369.99,2931.58,13363.99z M1919.58,13365.99c-8-5-19-10-25-10c-5,0-3,5,5,10s20,10,25,10
		C1930.58,13375.99,1927.58,13370.99,1919.58,13365.99z M2024.58,13356.99c3-5,2-12-3-15s-9,1-9,9
		C2012.58,13367.99,2015.58,13369.99,2024.58,13356.99z M2739.58,13343.99c0-19-2-20-10-8c-13,19-13,30,0,30
		C2735.58,13365.99,2739.58,13355.99,2739.58,13343.99z M2067.58,13337.99c-10-2-18-8-18-13s-7-9-15-9c-12,0-12,3,3,18
		c9,10,24,16,32,13C2081.58,13342.99,2081.58,13340.99,2067.58,13337.99z M1979.58,13335.99c0-5-7-7-15-4c-8,4-15,8-15,10s7,4,15,4
		S1979.58,13341.99,1979.58,13335.99z M2149.58,13303.99c0-5-7-3-15,6c-8,8-15,18-15,22c0,3,7,1,15-6
		S2149.58,13308.99,2149.58,13303.99z M2885.58,13326.99c-4-5-1-12,4-14c6-3,5-4-2-3c-15,3-23,26-8,26
		C2885.58,13335.99,2888.58,13331.99,2885.58,13326.99z M2710.58,13288.99c-12-20-14-14-5,12c4,9,9,14,11,11
		C2719.58,13309.99,2716.58,13298.99,2710.58,13288.99z M2962.58,13293.99c4,1,7-7,7-18s-5-20-11-20s-9-7-5-15c3-8,1-15-5-15
		c-7,0-9,10-5,25c4,14,2,25-4,25c-5,0-10-5-10-12c0-21-12,0-14,26c-3,23-1,24,18,13
		C2945.58,13296.99,2957.58,13292.99,2962.58,13293.99z M2135.58,13277.99c-4-3-14,2-24,12c-16,18-16,18,6,6
		C2130.58,13289.99,2138.58,13281.99,2135.58,13277.99z M2894.58,13266.99c-3-6-11-11-17-11s-6,6,2,15
		C2893.58,13287.99,2905.58,13283.99,2894.58,13266.99z M2054.58,13254.99c-6-19-4-21,19-17c30,6,35-14,10-47c-12-16-17-17-23-7
		c-7,12-12,12-30,1c-11-8-21-19-21-26s-6-13-14-13c-23,0-6,40,21,51c19,7,23,14,18,29c-4,12-1,27,5,35
		C2056.58,13281.99,2061.58,13279.99,2054.58,13254.99z M2686.58,13253.99c-3-8-6-5-6,6c-1,11,2,17,5,13
		C2688.58,13269.99,2689.58,13260.99,2686.58,13253.99z M3054.58,13265.99c-3-5-12-7-20-3c-21,7-19,13,6,13
		C3051.58,13275.99,3058.58,13271.99,3054.58,13265.99z M2009.58,13249.99c0-8-4-12-10-9c-5,3-10,10-10,16c0,5,5,9,10,9
		C2005.58,13265.99,2009.58,13258.99,2009.58,13249.99z M3082.58,13246.99c-5-3-12-14-16-24c-6-15-10-16-27-5c-26,16-26,31,0,23
		c13-4,22-1,26,9c3,9,11,13,16,10C3087.58,13255.99,3087.58,13250.99,3082.58,13246.99z M2439.58,13245.99c0-5-2-10-4-10
		c-3,0-8,5-11,10c-3,6-1,10,4,10C2434.58,13255.99,2439.58,13251.99,2439.58,13245.99z M2779.58,13235.99c0-5-5-10-11-10
		c-5,0-7,5-4,10c3,6,8,10,11,10C2777.58,13245.99,2779.58,13241.99,2779.58,13235.99z M2924.58,13226.99c3-8,1-18-6-21
		c-6-4-11-11-12-16s-7-8-14-6s-14-5-14-15c-1-10-2-25-3-33c0-8-10-16-21-17c-11-2-14,0-7,3c6,3,12,15,12,27s-4,18-8,12
		c-4-5-16-12-26-13c-18-3-19-2-5,15c20,26,43,42,51,37c5-3,8,0,8,5c0,6-7,11-15,11c-13,0-14,3-3,14
		C2877.58,13247.99,2917.58,13245.99,2924.58,13226.99z M2659.58,13215.99c-6-11-15-20-20-20c-16,0-11,18,8,29
		C2671.58,13238.99,2671.58,13238.99,2659.58,13215.99z M3119.58,13215.99c-20-13-33-13-25,0c3,6,14,10,23,10
		C3132.58,13225.99,3132.58,13223.99,3119.58,13215.99z M2257.58,13193.99c-6-18-25-21-25-3c0,8,7,15,15,15
		C2254.58,13205.99,2259.58,13200.99,2257.58,13193.99z M3049.58,13185.99c0-5-5-10-11-10c-5,0-7,5-4,10c3,6,8,10,11,10
		C3047.58,13195.99,3049.58,13191.99,3049.58,13185.99z M2299.58,13175.99c0-5-2-10-4-10c-3,0-8,5-11,10c-3,6-1,10,4,10
		C2294.58,13185.99,2299.58,13181.99,2299.58,13175.99z M3099.58,13155.99c0-5-2-10-4-10c-3,0-8,5-11,10c-3,6-1,10,4,10
		C3094.58,13165.99,3099.58,13161.99,3099.58,13155.99z M2039.58,13146.99c0-6-4-13-10-16c-5-3-10,1-10,9c0,9,5,16,10,16
		C2035.58,13155.99,2039.58,13151.99,2039.58,13146.99z M2183.58,13140.99c-4-8-15-15-25-15s-19-7-19-15s-4-15-9-15
		c-20,0,2,37,27,47c15,6,28,11,29,12S2186.58,13148.99,2183.58,13140.99z M2402.58,13134.99c-4-15-9-17-17-9s-7,13,4,20
		c8,5,16,10,17,10C2406.58,13155.99,2405.58,13146.99,2402.58,13134.99z M3064.58,13145.99c3-5,2-10-4-10c-5,0-13,5-16,10
		c-3,6-2,10,4,10C3053.58,13155.99,3061.58,13151.99,3064.58,13145.99z M1969.58,13112.99c0-22-3-27-13-19c-13,11-53-9-41-21
		c3-3-4-3-17,0c-18,5-21,3-16-11c5-13,2-17-10-14c-29,5-25,26,6,33c17,4,31,13,31,20c0,18,25,42,44,42
		C1964.58,13142.99,1969.58,13133.99,1969.58,13112.99z M2259.58,13124.99c0-11-4-18-10-14c-5,3-7,12-3,20
		C2253.58,13151.99,2259.58,13149.99,2259.58,13124.99z M2807.58,13123.99c18-18,15-49-3-42c-8,4-15,2-15-4s6-13,13-15
		c6-3-3-10-20-17c-18-7-33-18-33-26s-10-18-22-23c-14-5-17-10-10-15c7-4,12-11,12-16c0-15-38-21-57-9c-17,10-16,14,22,55
		c23,24,47,44,53,44c19,0,14,20-5,21c-15,1-15,2-2,6c9,2,22,15,29,28C2784.58,13138.99,2790.58,13140.99,2807.58,13123.99z
		 M3152.58,13088.99c-6-19-42-52-55-53c-16,0-7,31,10,37c9,4,21,12,25,20C3144.58,13111.99,3159.58,13108.99,3152.58,13088.99z
		 M2219.58,13069.99c0-8-4-12-10-9c-5,3-10,10-10,16c0,5,5,9,10,9C2215.58,13085.99,2219.58,13078.99,2219.58,13069.99z
		 M2363.58,13061.99c-3-9-10-14-15-11c-8,6-35-34-31-47c1-5-2-8-8-8c-21,0-8,40,21,65
		C2364.58,13087.99,2373.58,13088.99,2363.58,13061.99z M1989.58,13065.99c0-5-7-10-16-10c-8,0-12,5-9,10c3,6,10,10,16,10
		C1985.58,13075.99,1989.58,13071.99,1989.58,13065.99z M2071.58,13053.99c-6-6-16-7-22-3c-9,6-9,9,1,16
		C2067.58,13076.99,2084.58,13066.99,2071.58,13053.99z M2984.58,13064.99c12-18-4-59-20-53c-8,4-15,1-15-5s-6-10-12-8
		c-7,1-12-4-10-10c1-8-8-13-20-13c-21,1-22,2-5,14c9,7,17,19,17,25c0,7,5,9,10,6c6-3,10-1,10,4c0,6,7,11,16,11c11,0,15,6,11,20
		C2961.58,13076.99,2973.58,13083.99,2984.58,13064.99z M3069.58,13023.99c0-49-5-47-13,5c-3,20-2,37,4,37
		C3065.58,13065.99,3069.58,13046.99,3069.58,13023.99z M2383.58,13030.99c-4-15-2-25,4-25s12,10,14,23c4,27,22,26,26-3
		c2-13-2-20-12-20c-9,0-16-4-16-10c0-5-7-10-15-10s-15-7-15-15s-4-15-10-15c-5,0-10-7-10-15c0-19-14-19-29-1c-10,12-8,17,10,26
		c16,9,18,14,9,20c-10,6-7,12,9,26c11,10,21,24,21,31s5,13,10,13C2385.58,13055.99,2387.58,13044.99,2383.58,13030.99z
		 M3214.58,13045.99c3-6-1-7-9-4c-18,7-23-21-6-31c29-18-21-50-53-33c-14,7-15,11-5,22c7,8,17,13,23,13c5-1,11,8,13,21
		C3180.58,13055.99,3203.58,13063.99,3214.58,13045.99z M3347.58,13038.99c-8-10-6-17,8-28c12-9,14-14,6-15c-10,0-10-5-1-22
		c8-15,8-23,1-26c-5-1-8-13-6-25s2-16-2-9c-7,15-34,16-34,1c0-5-4-7-10-4c-5,3-10,16-10,28c0,18,2,19,10,7c9-13,11-13,20,0
		c5,8,9,20,9,25c0,6-3,4-6-3c-4-10-9-7-20,8c-10,15-23,20-38,18c-12-3-31,2-41,10c-18,13-18,14,5,7c21-6,23-5,18,15c-4,14-2,20,6,17
		c7-2,21-1,32,4c11,4,30,7,42,6C3353.58,13051.99,3355.58,13048.99,3347.58,13038.99z M1837.58,13010.99c11-11-8-17-33-11
		c-30,8-24,27,7,21C1822.58,13017.99,1834.58,13013.99,1837.58,13010.99z M2279.58,13021.99c0-3-4-8-10-11c-5-3-10-1-10,4
		c0,6,5,11,10,11C2275.58,13025.99,2279.58,13023.99,2279.58,13021.99z M1996.58,12989.99c-3-3-12-4-19-1c-8,3-5,6,6,6
		C1994.58,12995.99,2000.58,12992.99,1996.58,12989.99z M3409.58,12970.99c0-22,3-25,27-19c26,7,26,6,20-35c-6-51-10-56-34-42
		c-17,10-17,10,0,11c9,0,17,5,17,10c0,6-8,11-17,11c-17,1-17,2,0,6c9,2,17,9,17,15c0,5-6,8-14,5c-17-7-49,30-42,49
		C3392.58,13004.99,3409.58,12997.99,3409.58,12970.99z M1802.58,12955.99c3-11,1-20-4-20s-9,9-9,20s2,20,4,20
		S1799.58,12966.99,1802.58,12955.99z M2249.58,12971.99c0-2-7-6-15-10c-8-3-15-1-15,4c0,6,7,10,15,10
		S2249.58,12973.99,2249.58,12971.99z M2307.58,12913.99c-4-25-28-37-28-14c0,9-4,16-10,16c-5,0-10-7-10-15c0-22-31-18-37,5
		s-23,27-23,5c0-8-4-15-9-15s-7,9-4,19c5,19,43,37,43,20c0-15,20-10,42,11c19,18,23,18,31,5
		C2306.58,12941.99,2309.58,12925.99,2307.58,12913.99z M2878.58,12910.99c-13-13-14-12-13,13c4,46,5,48,16,24
		C2890.58,12929.99,2889.58,12921.99,2878.58,12910.99z M3115.58,12950.99c-6-17,9-21,19-5c11,17,25,11,25-11c0-11-4-17-10-14
		c-5,3-10-1-10-10s-9-19-20-22s-20-12-20-19c0-16-5-17-49-8c-31,6-31,7-11,21c11,8,20,20,20,26c0,7,9,18,20,25c12,7,18,17,15,22
		c-3,6,1,10,10,10C3115.58,12965.99,3119.58,12960.99,3115.58,12950.99z M2669.58,12927.99c0-4-9-8-20-9s-18,2-15,8
		C2641.58,12937.99,2669.58,12938.99,2669.58,12927.99z M1785.58,12898.99c-2-10-13-19-24-21c-27-4-28,6-4,24
		C1780.58,12919.99,1788.58,12918.99,1785.58,12898.99z M2526.58,12889.99c-9-9-28,6-21,18c4,6,10,6,17-1
		C2528.58,12900.99,2530.58,12893.99,2526.58,12889.99z M2837.58,12898.99c-2-10,2-17,9-16c7,2,17-7,24-18c8-15,8-19,0-15
		c-7,5-9,1-5-8c3-9,14-16,23-17c10,0,8-3-7-10c-29-11-42-4-42,22c0,10-7,19-15,19s-12,6-10,15c3,8,7,22,10,30
		C2830.58,12921.99,2841.58,12919.99,2837.58,12898.99z M1689.58,12890.99c0-1-11-5-24-7c-16-3-23-1-19,7
		C1649.58,12900.99,1689.58,12900.99,1689.58,12890.99z M2149.58,12895.99c0-5-4-10-10-10c-5,0-10,5-10,10c0,6,5,10,10,10
		C2145.58,12905.99,2149.58,12901.99,2149.58,12895.99z M2029.58,12885.99c0-5-6-10-13-10c-8,0-27-11-43-25s-33-25-38-25s1,8,12,19
		c12,10,22,23,22,29c0,10,19,18,48,21C2023.58,12894.99,2029.58,12891.99,2029.58,12885.99z M3232.58,12875.99c6-23-3-32-21-21
		c-13,8-6,41,8,41C3223.58,12895.99,3229.58,12886.99,3232.58,12875.99z M3571.58,12843.99c-7-7-12-8-12-2s3,14,7,17c3,4,9,5,12,2
		C3580.58,12857.99,3577.58,12849.99,3571.58,12843.99z M1619.58,12839.99c0-8-5-12-10-9c-6,4-8,11-5,16
		C1613.58,12860.99,1619.58,12857.99,1619.58,12839.99z M1749.58,12840.99c0-12-19-12-23,0c-4,9-1,12,9,8
		C1742.58,12845.99,1749.58,12841.99,1749.58,12840.99z M3286.58,12839.99c-3-3-12-4-19-1c-8,3-5,6,6,6
		C3284.58,12845.99,3290.58,12842.99,3286.58,12839.99z M3205.58,12807.99c-22-5-30,3-21,18c5,8,11,7,22-2
		C3221.58,12811.99,3220.58,12810.99,3205.58,12807.99z M2242.58,12793.99c-9-18-16-36-15-40c1-5-5-8-13-8s-15-5-15-11c0-5-4-7-10-4
		c-5,3-8,14-7,25c4,24,27,51,38,44c5-3,9,2,9,10c0,9,7,16,15,16C2258.58,12825.99,2257.58,12821.99,2242.58,12793.99z
		 M2293.58,12809.99c5-14,4-15-9-4c-17,14-19,20-6,20C2283.58,12825.99,2290.58,12818.99,2293.58,12809.99z M3069.58,12815.99
		c0-5-2-10-4-10c-3,0-8,5-11,10c-3,6-1,10,4,10C3064.58,12825.99,3069.58,12821.99,3069.58,12815.99z M1551.58,12793.99
		c-7-7-12-8-12-2c0,14,12,26,19,19C1560.58,12807.99,1557.58,12799.99,1551.58,12793.99z M1683.58,12796.99c3-5-3-11-15-14
		c-16-4-18-3-8,9C1673.58,12807.99,1676.58,12808.99,1683.58,12796.99z M1615.58,12783.99c5-8,2-9-9-5c-12,5-17,1-17-13
		c0-24-6-25-26-5c-14,13-14,15,0,15c9,0,16,5,16,10C1579.58,12799.99,1606.58,12798.99,1615.58,12783.99z M1529.58,12770.99
		c0-8-9-15-20-15c-13,0-18,5-14,15c4,8,12,15,20,15S1529.58,12778.99,1529.58,12770.99z M1869.58,12775.99c0-5-5-10-11-10
		c-5,0-7,5-4,10c3,6,8,10,11,10C1867.58,12785.99,1869.58,12781.99,1869.58,12775.99z M2699.58,12766.99c-13-11-29-17-34-13
		c-6,3,3,12,19,18C2725.58,12789.99,2728.58,12788.99,2699.58,12766.99z M1518.58,12729.99c3-2-1-10-7-16c-9-9-12-9-12,0
		c0,7-9,12-19,12c-11,0-22,4-25,9C1449.58,12743.99,1509.58,12738.99,1518.58,12729.99z M2533.58,12730.99c-4-8-10-15-16-15
		c-5,0-6-5-2-12s3-8-4-4c-9,5-8,12,1,26C2526.58,12748.99,2541.58,12752.99,2533.58,12730.99z M1909.58,12721.99c0-3-4-8-10-11
		c-5-3-10-1-10,4c0,6,5,11,10,11C1905.58,12725.99,1909.58,12723.99,1909.58,12721.99z M1429.58,12675.99c0-5-2-10-4-10
		c-3,0-8,5-11,10c-3,6-1,10,4,10C1424.58,12685.99,1429.58,12681.99,1429.58,12675.99z M1494.58,12675.99c3-5,1-10-4-10
		c-6,0-11,5-11,10c0,6,2,10,4,10C1486.58,12685.99,1491.58,12681.99,1494.58,12675.99z M2719.58,12680.99c0-3-9-14-21-26
		c-17-17-23-18-32-9c-7,8-7,10-1,7s17,3,24,14C2702.58,12684.99,2719.58,12692.99,2719.58,12680.99z M2495.58,12638.99
		c-4-10-8-20-8-23c-1-8-32-29-36-25c-2,2,6,17,18,33c14,18,19,35,15,44c-6,10-5,10,5,1
		C2496.58,12661.99,2499.58,12649.99,2495.58,12638.99z M2649.58,12665.99c0-5-2-10-4-10c-3,0-8,5-11,10c-3,6-1,10,4,10
		C2644.58,12675.99,2649.58,12671.99,2649.58,12665.99z M2545.58,12640.99c1-9-6-15-19-15c-20,1-20,2-4,11c9,6,14,16,11,22
		c-4,7-3,8,1,4C2539.58,12658.99,2544.58,12648.99,2545.58,12640.99z M2202.58,12625.99c16-19,15-20-3-30c-29-15-40-4-27,25
		c7,14,12,25,12,25S2192.58,12636.99,2202.58,12625.99z M1364.58,12625.99c-3-5-10-10-16-10c-5,0-9,5-9,10c0,6,7,10,16,10
		C1363.58,12635.99,1367.58,12631.99,1364.58,12625.99z M1399.58,12610.99c0-8-7-15-15-15c-13,0-14,3-3,15
		C1397.58,12628.99,1399.58,12628.99,1399.58,12610.99z M1868.58,12595.99c-21-14-32,1-12,15c12,9,19,10,22,3
		C1880.58,12607.99,1875.58,12599.99,1868.58,12595.99z M2553.58,12600.99c-6-16-24-21-24-7c0,11,11,22,21,22
		C2555.58,12615.99,2556.58,12608.99,2553.58,12600.99z M1333.58,12589.99c15-40-3-47-21-9c-9,20-8,25,2,25
		C1321.58,12605.99,1330.58,12598.99,1333.58,12589.99z M2100.58,12587.99c-7-2-18,1-23,6c-8,8-4,9,13,5
		C2103.58,12594.99,2108.58,12590.99,2100.58,12587.99z M2303.58,12590.99c-4-8-8-15-10-15s-4,7-4,15s4,15,10,15
		C2304.58,12605.99,2306.58,12598.99,2303.58,12590.99z M2679.58,12585.99c0-5-2-10-4-10c-3,0-8,5-11,10c-3,6-1,10,4,10
		C2674.58,12595.99,2679.58,12591.99,2679.58,12585.99z M1369.58,12575.99c0-5-5-10-11-10c-5,0-7,5-4,10c3,6,8,10,11,10
		C1367.58,12585.99,1369.58,12581.99,1369.58,12575.99z M2149.58,12575.99c0-5-2-10-4-10c-3,0-8,5-11,10c-3,6-1,10,4,10
		C2144.58,12585.99,2149.58,12581.99,2149.58,12575.99z M2269.58,12540.99c0-13,3-31,7-40c5-14,2-16-15-11c-17,6-23,2-29-23
		c-7-26-10-28-25-17s-15,15-3,37c8,13,18,32,21,42c3,9,11,17,16,17c6,0,8,7,5,14c-4,10-1,13,9,9
		C2262.58,12565.99,2269.58,12552.99,2269.58,12540.99z M2454.58,12545.99c-3-5-11-10-16-10c-6,0-7,5-4,10c3,6,11,10,16,10
		C2456.58,12555.99,2457.58,12551.99,2454.58,12545.99z M1829.58,12483.99c0-16-15-40-24-39c-30,4-46,0-40-11c6-10,5-10-8-1
		c-8,7-18,10-21,6c-4-3-7-1-7,5c0,7,7,12,15,12s15,5,15,10c0,11,35,28,58,29C1823.58,12495.99,1829.58,12489.99,1829.58,12483.99z
		 M2409.58,12475.99c0-5-4-10-10-10c-5,0-10,5-10,10c0,6,5,10,10,10C2405.58,12485.99,2409.58,12481.99,2409.58,12475.99z
		 M1119.58,12455.99c32,0,46-23,24-41c-13-10-17-10-25,2s-10,12-8-1c1-8-3-27-10-41c-10-20-18-25-37-21c-13,2-24,8-24,13s11,7,24,3
		c15-3,25-1,29,8c8,21,0,72-12,76c-6,2-8,9-4,15c5,8,8,8,11-1C1089.58,12460.99,1103.58,12455.99,1119.58,12455.99z
		 M2509.58,12451.99c0-3-4-8-10-11c-5-3-10-1-10,4c0,6,5,11,10,11C2505.58,12455.99,2509.58,12453.99,2509.58,12451.99z
		 M1023.58,12350.99c4-10-1-15-14-15s-18,5-14,15c4,8,10,15,14,15S1019.58,12358.99,1023.58,12350.99z M961.58,12299.99
		c-3-18-7-22-13-13c-4,7-3,19,3,26C966.58,12330.99,967.58,12329.99,961.58,12299.99z M2248.58,12294.99c-16-10-23-4-14,10
		c3,6,11,8,17,5C2257.58,12305.99,2256.58,12300.99,2248.58,12294.99z M2440.58,12306.99c-7-5-10-14-7-20c4-6,2-11-3-11
		c-6,0-11,9-11,20c0,12,7,20,18,20C2450.58,12315.99,2451.58,12313.99,2440.58,12306.99z M2254.58,12246.99c3-6-4-15-15-21
		c-16-8-20-8-20,3C2219.58,12253.99,2242.58,12264.99,2254.58,12246.99z M2403.58,12206.99c-22-21-27-21-18,3c3,9,13,16,22,16
		C2420.58,12225.99,2419.58,12222.99,2403.58,12206.99z M832.58,12192.99c16-11,15-13-11-23c-27-10-28-10-24,13
		C802.58,12208.99,808.58,12210.99,832.58,12192.99z M949.58,12190.99c0-8-2-15-4-15s-6,7-10,15c-3,8-1,15,4,15
		C945.58,12205.99,949.58,12198.99,949.58,12190.99z M2386.58,12123.99c-15-9-19-4-11,16c5,14,9,15,15,5
		C2395.58,12136.99,2393.58,12127.99,2386.58,12123.99z M2249.58,12125.99c-6-11-16-17-22-14c-7,5-5,12,7,21
		C2259.58,12150.99,2262.58,12149.99,2249.58,12125.99z M2524.58,12115.99c3-5,1-10-4-10c-6,0-11,5-11,10c0,6,2,10,4,10
		C2516.58,12125.99,2521.58,12121.99,2524.58,12115.99z M2244.58,12041.99c1-25-1-46-6-46s-6-13-3-29s1-32-5-35c-5-4-8-13-4-21
		c3-8,0-15-7-15s-10-7-6-15c3-8,1-15-4-15c-6,0-10-9-10-19c0-11-4-23-10-26c-6-4-10,5-10,19s-5,26-11,26c-8,0-9,4,0,13
		c6,8,9,16,6,19s2,21,10,41c8,21,11,37,6,37s-8,6-7,13c10,45,20,67,32,67c8,0,14,10,14,22
		C2229.58,12116.99,2241.58,12087.99,2244.58,12041.99z M2353.58,12053.99c-4-18-7-44-7-58c1-14-3-31-9-37c-8-10-6-13,8-14
		c18,0,18-1-1-8c-25-10-41-3-26,12c6,6,11,30,11,53c0,24,5,46,10,49c8,5,7,11-1,21c-9,11-8,14,6,14
		S2359.58,12079.99,2353.58,12053.99z M2513.58,12069.99c13-5,14-9,5-20c-6-8-9-21-5-29c3-8,2-15-3-15c-11,0-32,50-26,61
		C2491.58,12077.99,2493.58,12077.99,2513.58,12069.99z M2483.58,11943.99c-9-15-35,5-28,21c3,9,8,25,9,36c5,33,7,32,15-10
		C2483.58,11968.99,2485.58,11947.99,2483.58,11943.99z M2457.58,11890.99c-9-9-30,14-23,25c6,9,10,8,17-4
		C2457.58,11901.99,2459.58,11892.99,2457.58,11890.99z M2437.58,11839.99c-12-26-28-32-28-10c0,27,12,45,25,40
		C2445.58,11864.99,2445.58,11858.99,2437.58,11839.99z M2195.58,11778.99c6-35-13-36-25-2c-9,26-8,30,6,27
		C2185.58,11801.99,2194.58,11790.99,2195.58,11778.99z M2419.58,11788.99c0-7-4-13-9-13s-13,6-19,13c-8,10-6,13,9,13
		C2410.58,11801.99,2419.58,11795.99,2419.58,11788.99z M2375.58,11698.99c-15-14-30-22-34-18s-2,10,5,12s10,10,7,17
		c-3,8,2,16,10,19c9,4,16,17,17,29c1,21,1,21,11-5C2400.58,11728.99,2397.58,11721.99,2375.58,11698.99z M2136.58,11160.99
		c0-8-4-15-9-15c-10,0-11,14-1,23C2135.58,11178.99,2136.58,11177.99,2136.58,11160.99z"/>
	<path d="M2724.58,14445.99c-3-5,1-10,10-10s13,5,10,10c-3,6-8,10-10,10S2727.58,14451.99,2724.58,14445.99z"/>
	<path d="M3365.58,14268.99c-6-14-5-15,5-6c7,7,10,15,7,18S3368.58,14278.99,3365.58,14268.99z"/>
	<path d="M3474.58,14142.99c-4-14-12-25-19-24c-6,1-10-6-8-16c2-9-3-26-11-38c-14-20-15-20-21,3c-7,22-7,22-15,3c-5-11-7-23-4-27
		c2-4-7-20-21-35s-24-29-22-32c15-37,31-61,39-58c5,1,11,22,13,46c5,55,11,63,37,56c16-5,18-4,8,3c-11,8-8,13,13,27
		c14,9,24,21,21,25c-5,9,32,60,43,59c22-4,42,2,42,12c0,7-12,9-36,4c-25-4-39-2-45,6
		C3483.58,14165.99,3478.58,14161.99,3474.58,14142.99z"/>
	<path d="M2660.58,13999.99c0-11,3-14,6-6c3,7,2,16-1,19C2662.58,14016.99,2659.58,14010.99,2660.58,13999.99z"/>
	<path d="M2584.58,13935.99c-3-5-2-10,4-10c5,0,13,5,16,10c3,6,2,10-4,10C2595.58,13945.99,2587.58,13941.99,2584.58,13935.99z"/>
	<path d="M3306.58,13925.99c-8-10-17-26-19-37c-2-10-11-17-21-15s-17-3-17-12c0-10,8-13,25-10c18,3,25,0,25-11c0-8,5-15,11-15
		c5,0,7-4,4-10c-3-5-1-10,5-10c8,0,9,7,5,18c-12,32-16,92-5,92c5,0,11-4,11-10c1-5,3-14,4-20c1-5,3-14,4-20c2-16,18-12,25,6
		C3381.58,13917.99,3336.58,13959.99,3306.58,13925.99z"/>
	<path d="M2564.58,13815.99c4-6,11-8,16-5c14,9,11,15-7,15C2565.58,13825.99,2561.58,13820.99,2564.58,13815.99z"/>
	<path d="M3237.58,13812.99c-12-10-14-17-6-31c13-23-7-39-38-31c-18,4-22-1-28-34c-3-22-12-42-18-44c-10-4-10-6,0-6c6-1,12-8,12-18
		c0-15-2-15-19,1c-11,10-21,13-25,7c-4-5-2-13,4-16c8-5,7-11-1-21c-9-11-8-18,2-31c7-10,10-15,5-11s-18,2-30-4c-11-7-24-12-28-13
		c-14,0-20-15-6-15c9,0,18-7,22-15c3-8,10-15,15-15c6,0,7,7,4,17c-5,12-3,14,7,8c8-5,22,3,41,25c36,41,36,48,2,44l-28-4l28,11
		c21,8,27,16,24,30c-3,11-2,17,3,14c12-7,33,23,27,39c-4,10-1,13,9,9c9-3,14,2,14,16c0,12,5,18,13,16c10-4,47,59,47,80
		C3289.58,13830.99,3254.58,13824.99,3237.58,13812.99z"/>
	<path d="M2769.58,13746.99c0-5,6-12,13-14c7-3,5-6-5-6c-11-1-18-9-18-19c0-15,8-19,36-20c33-1,36,1,30,21c-3,12-6,28-6,35
		c0,6-11,12-25,12S2769.58,13751.99,2769.58,13746.99z"/>
	<path d="M1154.58,13646.99c-7-12,12-24,25-16c6,3,10,1,10-4c0-16-46-13-60,4c-16,19-33,9-27-16c3-10,2-18-2-17c-25,3-31-3-19-21
		c6-10,18-17,25-14c11,4,12-1,7-21c-6-25-5-27,21-20c19,5,26,3,21-4c-10-16,11-24,33-12c13,7,22,7,26,0c3-5,11-10,16-10c6,0,8,4,4,9
		c-3,5-1,12,5,16c5,3,7,19,3,35c-5,27-3,30,21,30c14,0,26,2,26,4s3,11,6,20c5,12,0,14-25,11c-17-2-35-6-40-9c-5-4-13,0-18,7
		C1200.58,13638.99,1161.58,13657.99,1154.58,13646.99z M1186.58,13580.99c0-8-4-15-9-15c-10,0-11,14-1,23
		C1185.58,13598.99,1186.58,13597.99,1186.58,13580.99z M1227.58,13537.99c6-18-15-14-22,4c-4,10-1,14,6,12
		C1217.58,13551.99,1225.58,13543.99,1227.58,13537.99z"/>
	<path d="M1869.58,13589.99c0-8,5-12,10-9c6,4,8,11,5,16C1875.58,13610.99,1869.58,13607.99,1869.58,13589.99z"/>
	<path d="M1069.58,13525.99c0-5,5-10,11-10c5,0,7,5,4,10c-3,6-8,10-11,10C1071.58,13535.99,1069.58,13531.99,1069.58,13525.99z"/>
	<path d="M3024.58,13395.99c-4-12-5-24-2-27c3-2,8,5,12,17s5,24,2,27C3033.58,13414.99,3028.58,13407.99,3024.58,13395.99z"/>
	<path d="M1819.58,13085.99c0-5-7-10-15-10s-15-4-15-10c0-17,25-11,38,10c7,12,8,20,2,20
		C1824.58,13095.99,1819.58,13091.99,1819.58,13085.99z"/>
	<path d="M1629.58,12951.99c0-2,7-6,15-10c8-3,15-1,15,4c0,6-7,10-15,10S1629.58,12953.99,1629.58,12951.99z"/>
	<path d="M2959.58,12775.99c-12-7-12-12-2-22c14-14,35,1,24,19C2976.58,12780.99,2968.58,12781.99,2959.58,12775.99z"/>
	<path d="M3344.58,12755.99c3-5,8-10,11-10c2,0,4,5,4,10c0,6-5,10-11,10C3343.58,12765.99,3341.58,12761.99,3344.58,12755.99z"/>
	<path d="M3455.58,12756.99c-3-5,1-11,9-15c9-3,15,0,15,9C3479.58,12766.99,3463.58,12770.99,3455.58,12756.99z"/>
	<path d="M2069.58,12465.99c0-5,4-10,9-10c6,0,13,5,16,10c3,6-1,10-9,10C2076.58,12475.99,2069.58,12471.99,2069.58,12465.99z"/>
	<path d="M1925.58,12421.99c3-9,11-16,16-16c13,0,5,23-10,28C1924.58,12435.99,1921.58,12431.99,1925.58,12421.99z"/>
	<path d="M1409.58,12385.99c0-5,5-10,11-10c5,0,7,5,4,10c-3,6-8,10-11,10C1411.58,12395.99,1409.58,12391.99,1409.58,12385.99z"/>
	<path d="M1406.58,12354.99c-12-7-15-14-8-22c7-9,2-12-15-12c-13,0-24,4-24,8c0,5-6,5-12,0c-7-4-21-6-32-4c-10,1-22-3-27-11
		c-4-7-16-13-26-13c-12,0-19-9-21-27c-3-22,0-27,12-22c9,3,13,10,10,15c-3,6,9,8,29,6c25-3,34,0,31,8c-6,14,54,27,61,14
		c3-4,13-6,23-4c9,2,20,4,24,4c8,1,8,71,0,71C1427.58,12365.99,1416.58,12360.99,1406.58,12354.99z"/>
	<path d="M1284.58,12245.99c3-5,11-10,16-10c6,0,7,5,4,10c-3,6-11,10-16,10C1282.58,12255.99,1281.58,12251.99,1284.58,12245.99z"/>
	<path d="M1119.58,12199.99c0-8,5-12,10-9c6,4,8,11,5,16C1125.58,12220.99,1119.58,12217.99,1119.58,12199.99z"/>
	<path d="M2069.58,11895.99c0-5,5-10,10-10c6,0,10,5,10,10c0,6-4,10-10,10C2074.58,11905.99,2069.58,11901.99,2069.58,11895.99z"/>
	<path d="M2114.58,11755.99c-3-5-1-10,4-10c6,0,11,5,11,10c0,6-2,10-4,10C2122.58,11765.99,2117.58,11761.99,2114.58,11755.99z"/>
	<path d="M2289.58,11601.99c0-8,31-36,41-36c5,0,9,5,9,10c0,6-7,10-15,10s-15,5-15,10c0,6-4,10-10,10
		C2294.58,11605.99,2289.58,11603.99,2289.58,11601.99z"/>
	<path d="M2220.58,11196.99c-12-8-12-12,2-25c15-15,17-15,26,2C2263.58,11201.99,2248.58,11213.99,2220.58,11196.99z"/>
	<path d="M2219.58,11051.99c0-9,5-16,10-16c6,0,10,4,10,9c0,6-4,13-10,16C2224.58,11063.99,2219.58,11059.99,2219.58,11051.99z"/>
</g>
</svg>
