<?xml version="1.0" encoding="utf-8"?>
<!-- Generator: Adobe Illustrator 29.5.1, SVG Export Plug-In . SVG Version: 9.03 Build 0)  -->
<svg version="1.0" id="Layer_1" xmlns="http://www.w3.org/2000/svg" xmlns:xlink="http://www.w3.org/1999/xlink" x="0px" y="0px"
	 viewBox="0 0 698.97 772.12" style="enable-background:new 0 0 698.97 772.12;" xml:space="preserve">
<g transform="translate(0.000000,1640.000000) scale(0.100000,-0.100000)">
	<path d="M3680.2,15300.76c-5-8-2-9,9-5c10,3,17,2,17-3c0-6,4-10,10-10c5,0,7,7,4,15
		C3713.2,15315.76,3690.2,15317.76,3680.2,15300.76z"/>
	<path d="M3677.2,15272.76c-8-4-13-19-13-34c0-14-4-23-9-20s-9,0-9-5c0-6,4-11,9-11s12-7,15-16c4-12,2-15-9-10c-15,5-20-9-16-48
		c0-10-4-25-10-32c-9-11-8-14,5-14s12-5-8-23c-14-13-23-27-19-30c3-4,1-7-5-7c-8,0-9-7-2-26c7-18,7-23-2-18c-8,5-9,0-6-14
		c4-12,1-22-4-22c-7,0-6-5,1-14c9-11,8-17-4-30c-12-12-14-20-5-36c8-15,8-20-1-20c-7,0-9-9-5-26c5-18,3-24-5-18c-8,4-9,3-5-5
		c4-6,2-19-5-27c-10-12-10-15,2-12c8,2,14-4,14-12s-6-14-12-12c-16,3-17-14-2-23c7-5,5-13-6-25c-10-11-12-20-6-24s5-19-5-41
		c-10-26-11-36-2-41c7-4,14-2,16,4c5,17,22,15,22-3c0-8,5-15,11-15c7,0,9,10,7,25c-3,14-1,25,3,25c5,0,9,9,9,20s-7,20-15,20
		c-19,0-19,17-1,52c11,20,11,28,3,32c-8,3-7,5,2,5c11,1,11,4,1,16c-7,9-9,22-5,32c5,10,7,21,7,26c-1,4,5,7,13,7s14,3,14,8
		c-3,17,2,35,8,29c3-4,7-34,8-67c2-45-1-60-11-60c-8,0-14-4-14-10c0-5,7-10,15-10c13,0,22-38,16-73c-4-27-2-78,4-111c6-26,5-37-2-33
		c-12,7-10-73,2-110c5-15,3-23-4-23c-5,0-8,7-5,15c4,8,1,15-5,15s-11-5-11-12c0-6-3-8-7-4c-5,4-9,26-10,49c0,23-2,50-2,60
		c-1,20-21,23-21,3c0-9-7-12-20-9c-22,6-28-12-7-20c6-3,2-6-10-6c-14-1-27-12-37-31c-8-16-11-30-7-30s7-15,7-34c-1-19-5-32-10-29
		c-4,3-5-4-2-15c5-14,0-27-13-39c-21-19-21-20-1-57l19-38l-27,7c-22,5-25,4-14-6c14-16,16-55,2-64c-6-3-7-17-4-31c4-15,2-24-6-24
		c-6,0-9-4-5-9c3-5,1-12-4-15c-5-4-10-19-10-34c0-42-7-66-19-70c-6-2-9-9-6-16c3-8-2-16-12-20c-11-4-13-10-6-19c17-21,21-67,6-67
		c-8,0-14-4-14-9s-8-12-17-14c-14-4-13-5,4-6c18-1,22-6,21-26c-1-13-8-27-16-30c-7-3-11-9-8-14c4-5,2-20-3-34s-7-28-4-31
		c13-13,11-56-2-56c-19,0-27-17-20-41c5-15,10-17,20-9s17,3,33-23c29-50,37-80,21-75c-8,3-19,20-25,39c-12,35-44,53-44,25
		c0-9,5-16,11-16s8-13,5-35c-4-20-2-35,4-35c7,0,7-7,0-20c-5-11-15-29-20-40c-7-14-7-20,1-20c7,0,5-8-5-19c-13-15-14-20-4-24
		c10-3,10-7,1-17s-7-17,10-30c12-10,22-28,22-41c0-14,5-23,13-21c15,3,15-4,0-31c-7-12-12-29-13-37c0-18-27-20-32-3c-2,6,5,21,15,31
		c12,12,16,24,11,29s-10,21-11,36c-2,21-8,27-25,27c-12,0-25-4-28-10c-3-5-2-10,2-10c11,0,9-81-2-100c-5-8-4-15,3-18c6-2,8-10,5-18
		s0-21,7-29c11-13,10-14-4-9c-9,3-16,1-16-5s5-11,10-11c6,0,10-5,10-11c0-5-6-7-12-3c-7,4-5-2,6-14c10-12,22-20,25-17
		c15,8,30-12,24-33c-6-23-23-31-23-9c0,6-11,12-24,12c-22,0-23-2-10-16c12-13,9-17-29-34c-23-10-50-20-59-20c-10-1-26-9-37-19
		c-13-12-21-14-26-6c-3,5-11,8-16,5c-7-5-7-18,1-55c0-3,5,3,11,13c5,9,17,17,24,17c8,0,15,5,15,10c0,6,26,10,58,10c51-1,55-2,34-13
		c-12-7-19-16-16-20c7-7-10-11-33-8c-7,1-13-3-13-8c0-6-11-22-25-37s-25-31-25-36s-6-8-12-5c-7,2-25-4-39-14s-29-16-32-13
		s-8-4-12-16c-5-17-10-19-21-9c-11,9-14,9-14,0c0-7-6-11-12-9c-7,1-23-3-36-10c-12-7-26-10-31-7s-16-1-24-9s-17-12-20-9s-18-4-33-16
		c-28-22-50-28-39-11c3,6,2,10-3,10c-6,0-13-8-16-17c-6-14-9-15-15-4c-6,9-10,7-14-9c-4-17-10-20-34-14c-26,7-27,6-13-11
		c14-16,13-17-8-11c-16,5-22,3-22-7c0-7-6-14-14-14s-12,6-9,14c7,17-12,17-30-2c-8-8-17-11-21-8c-3,4-6,1-6-6s-6-11-14-8
		c-20,8-28-4-14-20c8-11,8-17-2-26s-11-9-6,1c15,26-12,40-54,30c-33-9-40-15-40-36c0-13,8-31,18-38c21-16,4-18-34-4
		c-26,10-26,11-8,24c15,12,16,16,5,30c-12,14-15,13-31-6c-15-19-20-20-34-9s-16,11-16-3c0-9-4-16-10-16c-5,0-10-8-10-17
		c0-15-2-15-9-4c-11,17-41,7-41-14c0-9,10-19,22-24c13-5,17-10,11-14s-20,4-31,18c-21,26-44,34-40,13c2-9-10-13-32-14
		c-34,0-85-11-104-22c-5-3,1-9,14-14c16-6,30-4,46,7c15,10,25,11,29,4c4-6,4-13,1-16c-3-4-6-1-6,6s-5,9-10,6c-6-4-8-16-5-28
		c5-16,4-18-3-8c-7,9-19,11-36,7c-14-3-26-2-26,2c0,5-11,7-25,4c-18-3-25,0-25,12c0,9-8,16-17,16c-17,1-17,1,0,11c9,5,22,7,27,4
		c6-3,12,0,15,7c4,9,18,12,45,10c26-3,40,0,40,8c0,6-4,9-10,5c-5-3-21-3-35,1c-18,4-23,9-15,14c7,4,20,5,30,3c10-3,22,1,26,9
		c11,17,14,68,4,68c-14,0-32-29-25-41c5-8,1-9-13-5c-14,5-24,1-31-11c-5-10-13-15-17-11c-8,9-64-19-64-32c0-6-5-9-12-8
		c-23,5-19-32,6-55c26-24,36-44,16-32c-5,3-10,2-10-3c0-15-32-24-44-12c-8,8-4,12,12,16c30,8,28,24-3,24c-24,0-25,3-19,34
		c5,30,3,34-13,31c-10-2-27-4-38-5s-14-4-7-7c18-7,4-23-20-23c-15,0-19-5-14-17c3-10-5-4-19,12c-24,29-25,29-25,7c0-15-7-26-19-29
		c-13-3-18-10-13-21c5-14,3-15-9-5c-16,13-79,15-79,2c0-5-17-17-37-28c-21-11-32-20-24-21c8,0,12-2,9-5s-18,1-33,9
		c-28,15-50,13-40-4c7-12-19-19-54-15c-23,3-31,0-31-11c0-10-9-14-27-12s-27-1-26-9c2-7-3-13-11-13c-7,0-19-7-26-15
		c-9-11-17-12-30-5c-27,15-33,12-27-11c4-15-1-22-19-29c-13-5-24-15-24-22c0-9-3-8-10,2c-8,12-10,11-10-7c0-12,5-25,10-28
		c6-4,8-11,5-16c-4-5,0-9,9-9c8,0,16-4,18-9s15-13,30-16c24-6,29-3,38,19c5,14,16,26,25,26c8,0,15,6,15,14c0,12-7,13-32,5
		c-17-5-34-6-37-4c-2,3,1,5,8,5s10,3,8,8c-3,4-1,18,4,31c7,17,13,21,22,14c29-24,88-3,66,23c-7,9-8,14-1,14c6,0,17,3,26,6
		c11,4,16,1,16-10c0-15,10-20,27-13c4,1,6,10,5,20c-4,21,7,22,35,2c20-14,23-14,32,3c6,11,8,21,6,24c-3,3,18,5,46,6
		c51,1,76,10,52,19c-20,7-15,23,7,23c12,0,20-7,20-16c0-13,3-14,15-4c8,7,12,16,10,21c-3,4,4,7,15,6s20-8,20-17c0-13,1-13,10,0
		c5,8,7,24,3,35c-5,17-4,18,10,7c9-8,13-21,10-30c-4-11,2-8,15,7c12,13,22,19,22,12s10-10,25-7c14,3,23,1,20-5c-4-5-13-9-21-9
		s-17-7-20-15c-4-8-12-15-20-15s-14-7-14-16c0-12-6-15-21-11c-16,4-20,2-16-12c5-19-23-26-34-8c-10,14-49-2-43-18c4-10,0-12-16-8
		c-13,3-19,11-16,19s-1,14-8,14c-20,0-29-30-11-36c11-4,4-12-22-25c-29-15-39-16-52-6c-10,8-13,9-8,0c5-7-1-13-15-16
		c-17-3-14-5,10-6c18,0,31-5,28-10c-4-5,9-6,29-1c22,5,35,4,35-2s7-7,16-4c12,4,15,2,11-8c-5-12,4-10,34,6c34,17,42,19,50,7
		c4-8,6-24,2-36c-3-14-1-23,6-23c6,0,11,5,11,10c0,6,5,10,10,10c7,0,7-6,1-19c-6-10-7-21-4-25c3-3-3-6-15-6s-21,5-19,11
		c1,6-4,14-10,16c-7,3-13,0-13-7s-12-4-31,7c-24,13-33,15-36,6c-5-14-53-18-53-5c0,12-51,31-67,25c-13-5-15-2-9,13c5,12,4,16-3,9
		c-5-5-13-23-17-39c-7-27-6-29,21-23c32,6,57-1,50-13c-3-5-1-11,5-15c5-3,10,2,10,12c0,14,2,15,9,4c5-8,7-20,4-28c-3-7,0-13,6-13
		s11,4,11,10c0,16,51,24,60,9c10-15,70-22,70-8c0,5,9,9,20,9s20-4,20-10c0-5,12-13,28-16c15-4,33-11,40-17c11-8,12-5,6,18l-7,28
		l31-23c18-13,35-19,43-15c9,6,11,3,6-9c-4-9-3-14,2-11s12,1,16-4c3-6,19-3,40,9c30,17,35,17,46,4c7-9,23-14,36-11c12,2,24-1,26-7
		c2-5,11,5,20,23s14,37,12,41c-3,5,4,12,16,15c19,6,50-11,70-39c4-5,12-5,18-2c6,4,11,0,11-8c0-9-1-16-2-16c-2,0-21,7-43,14
		c-42,15-65,7-65-20c0-16,16-19,25-4c10,17,25,11,25-9c0-17,4-18,28-12c15,5,36,5,47,0c30-11,35-11,35,6c0,8,7,15,16,15
		c13,0,14-3,5-14c-8-9-8-16-2-20c5-4,12-2,16,4c8,12,45-10,45-27c0-7,5-13,11-13s9,9,6,19c-3,15,2,20,25,25c16,3,39,17,52,31
		c13,13,26,22,29,19c4-4-5-15-18-26c-32-25-34-53-2-44c12,3,26,6,31,6c4,0,6,9,3,21c-5,18-2,20,16,15c12-3,27-6,34-6c6,0,9-9,6-20
		c-4-17-8-18-20-8c-10,8-17,8-21,1c-4-5-12-12-19-14c-9-3-9-8-2-19c8-11,12-12,16-2c6,14,33,16,33,2c0-19,18-10,25,13
		c4,13,8,17,12,10c2-7,16-13,29-13s24-5,24-11c0-8,5-8,15,1c15,12,37,3,57-25c5-6,14-1,23,13c9,12,21,22,27,22c7,0,4-6-6-13
		c-17-13-17-14-2-20c10-4,19-1,22,8c8,21,36,19,32-2c-2-13,4-18,25-18c15-1,27,3,27,7s-7,8-15,8s-15,4-15,10c0,5,11,9,25,8
		c20-2,23-6,19-25c-4-14-2-23,5-23c10,0,15,14,12,34c-1,5,6,6,15,2c9-3,22-2,29,4c19,16,65,1,75-24c6-15,2-27-11-42
		c-11-11-16-24-12-29c5-4,0-5-9-2c-12,4-18,1-18-9c0-24-30-75-40-69c-5,3-14-3-19-14c-13-24-14-34-2-27c5,3,11-1,15-9
		c3-8,10-15,16-15s9,4,6,9s1,12,9,15c12,4,13,2,5-13c-5-11-15-21-22-24c-10-4-11-7,0-18c6-7,12-18,12-24c0-5-5-3-10,5
		c-9,13-11,13-19,0c-5-8-7-18-5-22c3-4-4-8-15-8c-12,0-20-5-18-11c1-6-3-13-10-16s-10,3-7,15c7,26-17,44-34,26c-7-8-8-14-2-14
		c5,0,10-7,10-15s-6-14-12-12c-7,1-13-5-13-14s-6-23-14-32c-17-21-7-37,19-30c11,3,20,1,20-5c0-20,42-8,53,15c6,13,15,23,20,23
		c6,0,6-5,0-12c-14-17-13-52,0-39c6,6,10,31,11,56c0,55,7,57,23,8c11-35,10-39-18-65c-17-17-26-34-23-43c4-10,0-15-10-15
		s-16,9-16,23c0,33-7,37-41,23c-26-9-33-8-43,7c-15,20-35,23-37,5c-1-7-3-24-4-38c-4-36,4-48,26-43c11,3,19,0,19-6c0-7-3-10-8-7
		c-4,2-23,1-42-3c-24-5-36-13-40-29c-3-13-8-23-12-23c-15,2-52-43-40-47c17-5,15-22-3-22c-10,0-12-6-8-17c6-15,4-16-9-5
		c-21,17-31,1-18-32c7-19,6-25-3-23c-7,1-12-8-11-20c0-15-5-23-17-23c-16,0-29-19-29-41c0-26,60,18,73,54c7,18,37,24,37,7
		c0-5-6-7-13-4c-8,3-13-4-14-18c-2-17,0-19,7-8c14,22,23,5,10-19c-6-12-18-21-26-21c-11,0-13-6-9-21c5-14,0-27-14-40
		c-12-11-21-24-21-29c0-6-6-10-13-10c-9,0-12,10-9,32c4,26,2,30-12,25c-9-4-14-3-11,2s1,12-4,15c-18,11-21-12-6-40c17-33,11-46-9-18
		c-14,18-15,18-22-10c-4-17-2-31,4-35c12-7-19-41-37-41c-4,0-13-12-20-27c-10-21-9-28,1-34c11-7,11-9,0-9c-15,0-6-40,12-52
		c17-12-3-9-25,2c-10,6-19,7-19,2c0-12,34-42,48-42c6,0,15-8,20-17c8-14,14-11,43,22c19,21,34,45,34,54s7,16,15,16c9,0,14-7,12-19
		c-3-17-1-18,12-7c25,21,41,2,16-21c-12-11-19-27-16-35s6-19,6-24c0-6,5-7,10-4c6,4,8,10,5,15c-3,4,9,20,26,34c16,14,27,31,24,37
		c-5,7,3,10,21,7c23-2,28,1,26,15c-2,9,1,17,7,17c5,0,19,20,31,45c14,29,30,47,46,51c13,3,26,15,30,26c4,13,9,17,16,10
		c10-10,58,6,58,20s-22,20-30,8c-5-9-8-8-12,2c-12,30,42,65,74,47c10-5,14-2,15,13c1,11,11,29,23,40c17,16,24,17,35,8c9-8,15-8,15-2
		s-6,12-12,15c-10,3-8,10,6,25c10,12,22,20,25,17c4-2,8,6,8,17c2,16-2,19-20,14c-12-3-25-6-29-6c-5,0-8-11-8-24c0-18-7-26-27-31
		c-15-3-33-14-40-23c-11-15-14-15-23-2c-7,11-5,17,10,24c11,5,20,15,20,23c0,7,7,13,15,13s19,9,25,20s17,20,25,20c7,0,16,6,18,13
		c4,8,8,9,14,1c17-23,44-24,66-2c18,17,19,20,4,15c-12-5-16-3-11,5c5,7-1,9-17,5c-37-9-52,4-40,36c7,17,16,25,25,21c11-4,13,0,9,17
		c-5,17-3,21,9,17c8-4,21-2,28,2c11,7,11,11,0,24c-11,14-10,16,4,10c9-3,16-2,16,4s10,8,22,4c17-4,20-2,15,11c-5,12-1,17,13,17
		c18,0,16-5-13-43c-17-24-38-42-44-39c-7,2-14,0-14-4c-9-72-10-71,16-66c14,2,25,8,25,13s7,9,15,9c9,0,12,6,8,16c-3,8,4,25,16,38
		c12,12,18,26,14,29c-3,4-2,7,3,7s18,16,28,35c11,20,22,31,26,25c9-15,38-2,45,21c4,10,11,19,16,19s9,17,7,37c-2,28,1,38,13,41
		c11,2,16-3,15-14c-1-22,54-40,66-21c6,9,10,9,16,0c8-13,37-12,49,2c4,4,2,5-6,0c-9-5-12-4-7,3c12,20,36,13,46-13c5-14,14-25,19-25
		c10,0,8-34-3-61c-8-19-50-13-42,6c6,16-3,27-37,44c-33,17-58,2-34-20c8-7,12-21,10-30c-8-29,93-52,104-23c3,8,9,14,14,14
		c13,0,39-55,41-87c1-15,7-36,14-46c6-10,10-26,7-36c-3-12,2-20,16-24c21-5,30-37,11-37c-6,0-10-8-8-17c2-11-6-19-21-23
		c-14-3-26-11-29-18c-3-9,3-10,21-3c19,7,28,6,37-5c10-11,9-14-2-14c-10,0-13-8-10-30c2-17,8-30,13-30s9-6,9-14s6-16,13-19
		c9-3,7-10-6-25c-11-11-16-26-12-31c10-17,25-13,25,7c0,12,4,10,13-8c11-20,11-26,0-28c-7-2-13-8-13-14c0-5,7-8,15-5
		c19,8,30-10,15-28c-7-8-7-15-1-19s8-13,4-21c-3-9,1-15,8-15c11,0,11-3-1-10c-12-8-10-10,10-10c24,0,25-3,24-42c-1-24,0-37,3-30
		c2,6,13,12,23,12c11,0,28,10,39,22c18,19,21,19,27,5c3-10,12-17,20-17s14-7,14-15s5-15,11-15c5,0,7-5,4-10c-7-11-16-71-16-102
		c0-11-8-18-20-18s-19,7-19,19c0,11-6,22-12,25c-7,3-1,4,15,1c15-3,27-1,27,5c0,5-6,10-14,10c-7,0-19,7-26,15c-10,12-10,18,1,31
		c10,13,10,17-2,25c-18,11-46,12-53,0c-8-13,14-71,27-71c7,0,6-5-3-11c-11-8-12-12-2-16c6-2,12-11,12-19s5-14,11-14c5,0,7-5,3-11
		c-3-6,0-16,7-21c10-7,8-8-9-5c-12,3-20,1-16-4c3-5,12-9,20-9s14-8,14-17c1-26,24-53,46-53c17,0,17-1-2-14c-13-10-23-11-31-4
		c-19,15-17-12,3-40c8-12,12-22,8-22c-3,0-1-7,6-15c7-9,10-18,6-22c-3-3-6-1-6,5c0,7-4,12-9,12c-6,0-9-9-8-20c1-10,3-17,5-15
		c10,10,28-21,24-42c-5-27,15-56,35-49c7,3,13,1,13-4c0-6-6-10-13-10c-8,0-22-9-33-21c-14-15-15-20-4-17c8,2,16-4,16-12
		c1-8,3-19,4-25c1-5,2-14,1-18c-1-5,3-6,9-2c5,3,10,12,10,19c0,18,23,36,35,28c10-7,15-26,18-64c1-10,5-18,10-18c4,0,6-4,3-9
		s0-26,8-47c7-22,11-45,9-51c-3-7,0-13,6-13s11,5,11,10c0,6,7,10,16,10c12,0,15,7,12,25c-3,13-2,26,3,27c14,5,15,43,1,40
		c-9-2-12,4-8,15c7,23-3,39-29,46c-13,3-7,5,15,6s30,4,22,9c-9,6-5,12,15,21l28,13l-25,10c-24,9-24,10-7,23c18,13,18,14,1,40
		c-19,29-25,63-13,70c9,6-1,45-12,45c-15,0-10,27,7,41c14,12,14,14-1,25c-20,15-26,44-13,61c5,7,5,14-2,18c-17,10-12,45,5,39
		c9-4,15,0,15,10c0,9-6,16-14,16c-9,0-12,8-8,25c3,16,0,25-8,25c-9,0-9,4-2,13c11,13,12,17,12,47c0,11,7,20,15,20s15,5,15,10
		c0,13-17,13-25,0c-3-5-12-7-20-3c-8,3-15,0-15-6c0-22-15-10-16,13c-1,18,2,22,17,19c22-6,23-4,9,31c-5,14-6,26-2,26
		c13,0,27,84,22,132c-5,38-3,45,7,36c10-8,13-6,13,6c0,9-6,19-14,22c-11,4-14,19-11,60c3,31,7,60,10,65c4,5-1,9-9,9s-17,4-20,9
		c-4,5,3,7,14,4c27-7,35,17,20,62c-10,31-9,39,4,54c23,26,20,50-9,57c-31,8-33,21-3,20c14-1,22,5,23,19c1,11,5,30,9,43
		c8,25-11,32-20,7c-4-8-12-15-20-15c-18,0-18,16,0,23c9,4,12,14,9,29c-5,23-5,23,11,3c13-17,17-18,25-5c7,10,6,17-4,23
		c-8,4-15,20-15,34c0,22,2,24,15,13c9-7,19-10,23-6s0,13-9,19c-29,22-47,149-18,131c5-3,9,8,9,25c0,16-6,32-12,34c-9,4-10,6-1,6
		c8,1,9,10,3,31c-5,18-5,30,1,30c21,0,7,18-18,25l-28,7l23,18c26,21,29,40,5,40c-14,0-14,3,3,22c10,12,14,18,8,15c-15-9-25,28-11,42
		c7,7,4,16-11,30c-13,11-20,25-16,34c3,8,0,18-6,22c-8,5-6,11,6,19c10,8,14,18,9,26c-6,10-9,9-16-1c-7-12-9-12-9,0c0,7,11,22,25,33
		c33,26,32,34-6,42c-17,3-28,10-24,16c3,5,1,10-4,10c-6,0-11-8-11-17c0-13-3-14-11-6c-9,9-8,18,5,38c15,23,15,27,1,41
		c-20,21-19,36,3,32c10-2,16,2,14,10c-2,9,4,11,18,7c14-5,18-3,14,8c-7,20,22,40,50,33c14-3,28-1,34,7c12,14,145,23,164,10
		c22-14,148-10,149,5c4,36,3,42-6,45c-5,1-11-8-13-21c-3-19-6-21-18-11c-7,6-20,9-28,6c-18-7-58,21-50,35c4,6,10,5,15-3
		c7-11,9-10,9,4c0,9,7,17,15,17s15,9,15,20c0,12,7,20,16,20c11,0,15,6,11,19c-6,25,23,33,49,13c18-14,18-14-3-9c-15,3-23,1-23-8
		c0-7-7-16-16-19c-8-3-12-10-9-16c4-6,10-8,15-5c4,3,11-3,14-12c6-14,9-13,28,6c14,16,23,19,28,12c10-16,61,4,55,21
		c-7,17,61,82,70,68s-4-51-16-44c-16,10-38-16-45-53c-4-22-11-32-20-29c-8,3-12-2-11-15c1-10,8-19,17-20c10,0,11-2,3-6
		c-7-2-13-11-13-19s-7-14-15-14s-12,6-10,13c7,19-11,41-29,34c-20-8-21-53-2-60c7-3,33-1,57,4c30,7,56,7,84-1s48-8,68-1
		c28,11,31,18,21,45c-8,22-36,20-32-1c2-11-3-18-12-18c-8,0-21-4-27-8c-8-5-13-3-13,3c0,7,9,14,20,17c21,6,26,18,11,28
		c-17,10-8,45,11,45c10,0,18,7,18,15s9,19,20,25s18,15,15,20c-4,6,2,7,11,3c11-4,13-8,6-11c-18-6,17-60,42-65c20-4,20-5-1-12
		c-13-4-23-13-23-20c0-6-9-22-20-35s-20-28-20-34s5-4,10,4c12,19,73,21,66,3c-3-7,1-13,8-13c8,0,16,10,20,23c9,33,8,37-9,37
		c-8,0-15,5-15,11s9,8,23,3c22-7,22-6,3,15s-19,21,4,21c19,0,21,4,16,25c-7,29,1,33,19,8c16-21,120-43,157-32c15,4,30,4,32,0
		c8-12-11-34-23-27c-6,4-11,0-11-8c0-24-46-21-53,4c-3,11-10,20-17,20c-11,0-9-15,8-59c3-9,0-12-9-9c-8,3-14,10-14,16s-6,17-13,24
		s-13,9-12,3c6-28,0-36-15-21c-9,8-21,13-29,10c-17-6-17-34,1-34c7,0,13-5,13-10c0-6,12-9,28-8c20,2,27-1,26-14c-1-10,4-14,12-11
		s14,9,14,14c0,4,10,13,21,20c16,8,27,8,45-1c12-7,30-10,38-7s18,2,22-4s11-6,20,2c16,13,19,39,4,39c-5,0-10-8-10-17c0-15-2-16-10-3
		c-16,25,7,41,37,25c37-19,49-8,23,20c-12,13-19,28-16,34c4,5,2,12-4,16c-6,3-13-1-16-9c-3-9-15-16-25-16c-22,0-23,4-9,31
		c8,15,7,19-5,19c-8,0-15,6-15,13c-1,7-6,4-15-6c-13-18-14-18-24,1c-6,11-7,23-3,27c4,5-1,5-10,2c-20-7-68,13-68,29c0,7-16,15-35,18
		c-24,5-33,11-28,19c5,9,3,9-8,0c-10-8-14-23-11-42c2-16-1-32-7-35c-16-10-51,12-51,32c0,9-14,23-31,31c-16,7-28,15-26,18
		c3,2,20-4,40-13c35-17,67-14,67,6c0,5-8,10-17,11c-11,0-13,3-5,6c6,2,12,12,12,20c0,11-7,14-26,9c-20-5-27-3-31,14
		c-5,18-15,24-35,21c-5,0-8,6-8,15c0,8-4,13-9,10c-12-8-102,39-93,49c4,4-6,5-21,1c-19-4-26-3-22,4c11,18-4,30-28,21s-71,14-62,30
		c3,5-7,12-22,15c-15,4-33,15-40,24c-8,11-21,16-37,13s-32,3-47,18c-13,13-30,23-36,21c-7-2-13,5-13,14c0,13-3,14-15,4
		c-14-12-17-10-19,17c-1,7-6,12-11,10c-6-1-9-6-7-11s-5-3-14,5c-12,9-15,9-10,2c5-9,0-13-14-13c-20,0-20,1-4,25c14,22,14,25,1,25
		c-8,0-17,6-20,13c-5,14,23,77,35,77c7,0,38,52,38,65c0,3-9,5-20,5c-26,0-26,25-1,42c11,8,21,26,23,41s12,33,23,40
		c20,15,13,37-11,37c-8,0-12,5-9,10c5,8,11,7,21-1c19-16,23-10,32,40c4,24,10,41,13,39c3-1,14,4,23,11c17,14,17,16,1,27
		c-9,7-14,18-10,24c5,8,12,6,25-5c11-10,20-12,24-6c4,5-3,15-14,21c-23,12-27,32-5,24c10-4,15,0,15,11c0,9-4,13-10,10
		c-18-11-11,13,15,51c14,20,25,41,25,46c0,4-11,6-25,4c-27-5-30,0-15,24c8,12,10,13,10,1c0-11,5-10,18,5c18,18,18,19-2,36l-21,17
		l23-6c12-3,27-14,33-25c5-10,14-16,20-13c12,8,0,57-18,72c-8,7-10,14-4,17c5,4,12,2,15-3c17-27,80,26,69,57c-5,11-3,13,6,7
		c10-5,11-2,7,13c-7,22,21,65,36,56c8-5,10,1,14,51c1,17,2,36,3,44c1,11,4,11,16,1c18-15,20,1,3,19c-11,10-10,12,1,9c8-2,17,6,19,17
		s15,35,28,55c13,19,24,45,24,58c0,12,7,25,15,28c8,4,12,10,9,15s-10,6-16,3c-7-4-8-2-4,4c4,7,14,12,22,12s14,8,14,19
		c0,10,9,30,20,44s20,32,20,40s7,17,15,21c8,3,15,13,15,21c0,9,5,13,10,10c14-9,1,47-13,56c-5,4,0,16,12,28c17,17,20,25,11,36
		s-6,16,11,25c16,9,18,14,9,20c-9,5-9,9-1,14c6,4,9,12,6,17c-4,5-1,9,5,9c7,0,10,6,7,14c-4,10,0,14,14,11c10-2,19,0,19,6
		c0,5-4,9-10,9c-11,0-1,30,17,48c6,7,10,19,7,27c-4,8-1,15,5,15s8,7,5,15c-4,8-1,15,5,15s8,7,5,15c-4,10,0,15,12,16c11,0,14,3,7,6
		c-10,3-10,10-2,25c13,24-2,45-23,32c-7-5-19-9-27-9s-19-9-25-20s-17-24-25-29s-9-11-4-15c9-5-127-147-135-141c-2,1-6-1-9-4
		c-4-3-1-6,6-6s9-5,6-10c-4-6-11-8-16-5c-5,4-9-1-9-9c0-9-6-13-15-10c-11,4-16-5-21-35c-5-33-13-45-37-57c-23-13-27-18-16-25
		s11-9-3-9c-22,0-33-19-20-32c16-16,85,0,78,18c-3,8,1,14,10,14c8,0,17-13,20-30c4-16,10-27,15-24c10,6,12-9,3-19c-11-11-33,4-27,19
		c3,8,0,14-6,14c-11,0-16-19-13-52c1-10-4-18-11-18c-6,0-4-5,7-11c17-10,16-13-13-26c-35-17-39-29-13-36c9-3,1-5-18-6
		c-27-1-31-4-20-11c12-8,9-10-13-10c-16,0-26,4-22,10c3,6,1,10-5,10s-8-10-4-26c6-24,5-25-15-13c-17,12-23,11-37-3
		c-12-12-13-20-6-34c8-15,5-25-14-47c-13-16-24-23-24-17s-11,5-30-5c-36-19-46-19-31-1c9,11,8,15-5,20c-21,8-9,21,19,21
		c16,0,21,5,19,18c-4,24,25,57,50,57c10,0,18,5,18,10c0,9-14,14-32,11c-5,0-8,4-8,9c0,13-21,9-39-8c-11-11-12-15-2-22
		c10-5,6-14-12-32c-14-14-33-28-42-32c-10-3-15-12-11-21c3-8,1-17-4-20c-19-12-10-24,26-35l37-13l-42-19c-36-16-45-17-58-6
		c-12,10-17,10-20,1c-2-7-12-9-21-6s-14,3-10-2c4-4,3-14-3-21c-9-11-6-16,12-23c17-6,27-5,34,3c6,7,20,16,33,20c16,6,22,3,22-8
		c0-9-3-15-7-14c-14,5-55-30-49-40c3-5-3-12-14-15c-13-3-20-14-20-30c0-20-4-24-20-20c-26,7-25,15,6,53c15,17,23,34,20,38
		c-4,3-11,1-15-7c-7-10-10-9-14,3c-9,22-30,20-24-3c3-12-1-18-12-17c-9,1-17-8-19-22c-2-12-8-20-13-17c-5,4-9,1-9-5c0-7,8-9,23-4
		c22,7,22,6,3-15c-11-11-25-21-33-21c-16,0-56-44-59-66c-4-27-14-47-21-41c-3,4-15,1-26-5l-21-11l23-18c12-10,22-22,22-26
		c1-15,9-16,9-2c0,9,7,24,15,35c8,10,15,15,14,9c-1-5,1-18,6-28c8-19-11-50-26-41c-5,3-18,0-30-6c-26-14-39-4-16,13c11,8,14,17,8,26
		c-7,11-13,8-26-13c-10-14-24-26-33-26c-13,0-12-3,3-20c10-11,13-20,7-20c-7,0-12,5-12,10c0,6-7,10-17,10c-9,0-13-3-10-6
		c3-4,2-15-4-25c-7-14-6-19,2-19s8-4-1-15c-7-8-16-12-21-10c-8,6-33-31-34-50c-1-24-26-54-40-49c-9,4-15,0-15-10c0-9,5-16,10-16
		c6,0,3-11-6-24c-10-16-21-23-31-19c-13,5-12,8,5,14c12,5,22,13,22,20c0,6-7,9-15,5c-10-4-15,1-15,14c0,11-4,20-9,20c-6,0-6,12,0,32
		c12,42,12,41-8,34c-16-6-16-6,0,12c19,21,23,37,6,26c-8-4-8,0,0,15c7,11,8,21,4,21c-15,0-32,93-21,114c10,19-7,40-24,30
		c-4-3-4,6,2,20c12,32-6,45-28,21c-16-17-16-17,1-12c11,4,16,3,12-3c-3-6-12-10-20-10c-7,0-15-3-18-7c-2-5-2-1,0,7c2,10-1,9-11-4
		c-14-18-15-18-13,2c0,12,10,24,22,27c18,6,18,8,2,12c-9,2-24,18-32,34c-15,28-15,29,7,30c16,1,18,3,6,6c-22,6-31,36-23,74
		c5,22,4,29-4,25c-6-4-11-1-12,6c-4,45-3,55,3,76c6,16,4,22-7,22c-8,0-15,7-15,15s5,15,10,15c23,0,8,21-19,26c-20,4-28,11-24,21
		c3,8,0,13-8,11c-9-2-15,9-17,32c-3,33-3,34,15,17c25-22,51-24,34-3c-10,12-8,13,8,9c25-6,29,18,6,37c-11,9-12,17-4,31
		c6,13,6,19,0,19s-8,7-5,15c4,8,1,15-5,15s-11,7-11,15c0,9,6,12,16,8c13-5,15-2,9,18c-10,32-12,34-30,19c-20-16-19-6,1,25
		c13,20,14,25,3,25c-12,0-12,2,0,9c8,5,11,16,8,24c-3,9-1,17,5,19c8,3,8,10-1,25c-14,27-15,66-1,58c6-3,10,1,10,9s-8,20-17,25
		c-14,8-15,11-3,11c10,1,9,4-5,10c-11,5-15,9-8,9c7,1,10,9,7,19c-5,16-5,16,9-1c13-16,15-13,11,30c-2,29-7,47-14,45c-7-1-9,5-5,18
		c4,12,2,20-6,20c-9,0-9,3,1,15c6,8,10,20,7,27c-2,7,3,21,12,32c15,18,15,18-8,11c-18-6-22-4-15,6c4,8,8,49,9,92c0,58,4,80,15,87
		s12,12,4,18c-15,9-12,214,3,219c6,2,9,12,6,23s-11,16-19,13c-18-7-18,2,1,21C3708.2,15273.76,3697.2,15285.76,3677.2,15272.76z
		 M3663.2,15120.76c-3-7-5-2-5,12s2,19,5,13C3665.2,15138.76,3665.2,15126.76,3663.2,15120.76z M3657.2,15038.76c-8-10-9-16-1-21
		c12-8,14-55,1-55s-19,68-7,80C3665.2,15057.76,3670.2,15054.76,3657.2,15038.76z M3671.2,14942.76c3-6-1-7-9-4c-19,7-20,0-6-26
		c6-11,6-21,1-24s-11,4-14,15c-4,14-10,18-19,13c-7-4-4,2,6,14C3651.2,14954.76,3662.2,14957.76,3671.2,14942.76z M3566.2,14420.76
		c0-9,4-8,10,2c9,13,11,13,20,0c6-10,5-17-5-23c-8-4-15-14-15-21c0-17-27-29-35-16c-3,5,3,14,12,20c13,8,14,13,6,16
		c-15,7-17,34-3,34C3562.2,14432.76,3566.2,14426.76,3566.2,14420.76z M3656.2,14348.76c0-3-4-8-10-11c-5-3-10-1-10,4
		c0,6,5,11,10,11C3652.2,14352.76,3656.2,14350.76,3656.2,14348.76z M4696.2,14324.76c0-5-7-9-15-9s-12,4-9,9c3,4,9,8,15,8
		C4692.2,14332.76,4696.2,14328.76,4696.2,14324.76z M3656.2,14280.76c0-5-4-8-10-8c-5,0-10,10-10,23c0,18,2,19,10,7
		C3651.2,14294.76,3656.2,14284.76,3656.2,14280.76z M3579.2,14215.76c-4-10-9-11-18-3s-15,8-20,0c-9-15-25-2-18,16c3,9,12,12,24,9
		c12-4,19-2,19,7c0,10,2,10,9-1C3580.2,14235.76,3582.2,14223.76,3579.2,14215.76z M3668.2,14243.76c-11-7-11-9,1-14
		c20-7,11-47-10-47c-13,0-13,3-3,15c9,10,9,15,1,15c-6,0-11,9-11,20c0,12,7,20,18,20
		C3677.2,14252.76,3678.2,14250.76,3668.2,14243.76z M3597.2,14183.76c-11-7-9-11,5-20c11-6,14-11,8-11s-17,7-25,16
		c-10,13-10,17,1,24c8,5,17,7,19,4C3608.2,14193.76,3604.2,14187.76,3597.2,14183.76z M3541.2,14120.76c6-4,2-8-7-8
		c-10,0-18,7-18,17c0,9,3,12,8,7C3528.2,14131.76,3536.2,14124.76,3541.2,14120.76z M3626.2,14113.76c0-17,5-33,10-36c6-4,8-11,5-16
		c-4-5-1-9,5-9c7,0,8-6,1-19c-12-22,6-34,37-26c9,3,4-1-11-8c-23-11-26-16-14-25c8-7,17-9,20-5c4,3,7-3,7-15s-5-22-11-22
		c-5,0-8,4-4,9c3,6-5,15-17,22c-20,11-21,10-10-3c7-9,10-22,6-31c-4-12-1-14,15-10c23,6,30-14,8-23c-8-3-13-18-12-37
		c3-44,14-67,33-67c13,0,11-4-6-16c-24-16-30-36-9-33c30,4,33-4,32-86c0-80-5-99-20-75c-4,6-11,7-17,4c-7-4-8-2-4,5
		c12,19,16,71,5,71c-6,0-7,5-4,10c3,6,0,10-8,10c-19,0-50,36-43,49c4,6,2,20-4,32c-8,14-9,24-2,31c11,11,5,39-12,50c-8,5-8,8,0,8
		c7,0,11,10,11,23c-1,12,2,35,6,50c5,19,4,26-2,22c-7-4-8,2-2,17s4,32-5,51c-9,16-10,27-4,27c12,0,9,22-5,32c-6,5-5,8,4,8
		c11,0,11,3,1,15s-10,15,0,15c7,0,10,7,6,15c-3,8-1,15,4,15C3622.2,14142.76,3626.2,14129.76,3626.2,14113.76z M3561.2,14072.76
		c3-5,1-10-4-10c-6,0-11,5-11,10c0,6,2,10,4,10C3553.2,14082.76,3558.2,14078.76,3561.2,14072.76z M3523.2,14030.76c-3-8-6-5-6,6
		c-1,11,2,17,5,13C3525.2,14046.76,3526.2,14037.76,3523.2,14030.76z M4596.2,13962.76c0-5-4-10-10-10c-5,0-10,5-10,10
		c0,6,5,10,10,10C4592.2,13972.76,4596.2,13968.76,4596.2,13962.76z M4626.2,13921.76c0-5-7-9-15-9c-9,0-12,6-9,15
		C4608.2,13942.76,4626.2,13938.76,4626.2,13921.76z M4575.2,13880.76c-1-31-1-31-8-8c-5,14-6,28-4,33
		C4572.2,13920.76,4576.2,13911.76,4575.2,13880.76z M3476.2,13872.76c0-5-4-10-10-10c-5,0-10,5-10,10c0,6,5,10,10,10
		C3472.2,13882.76,3476.2,13878.76,3476.2,13872.76z M4537.2,13859.76c-9-12-5-16,20-21c20-4,28-10,23-18c-6-9-9-9-12,0
		c-6,18-22,14-22-5c-1-25-22-51-37-46s-17-13-3-22c6-4,2-15-9-27c-11-11-17-26-15-32c3-7-7-25-21-40s-25-34-25-42c0-7-4-14-10-14
		c-5,0-9-4-7-9c1-5-10-20-25-34c-16-14-28-24-28-21s-9,0-20-6s-17-17-14-24c3-8,1-24-5-35c-8-13-8-22-1-26c15-9,2-25-21-25
		c-22,0-22,0-9-34c10-28,1-39-20-25c-13,8-13,10-1,18s12,12,2,25c-8,9-10,16-6,16s2,6-4,14c-10,12-8,13,8,9c25-6,39,20,22,41
		c-9,11-9,15,1,18c7,3,13,18,13,34c1,21,9,33,28,42c15,7,28,21,29,30c4,45,17,72,34,72c8,0,14,5,14,10c0,6-4,10-8,10c-5,0-9,7-9,15
		s4,12,9,9c4-3,11,2,14,10c3,9,10,14,14,11c9-6,33,21,36,40c1,7,12,27,24,43c12,17,20,35,16,40c-3,6,2,12,11,14
		C4547.2,13880.76,4551.2,13875.76,4537.2,13859.76z M3691.2,13832.76c3-5,1-10-4-10c-6,0-11,5-11,10c0,6,2,10,4,10
		C3683.2,13842.76,3688.2,13838.76,3691.2,13832.76z M4656.2,13822.76c0-5-2-10-4-10c-3,0-8,5-11,10c-3,6-1,10,4,10
		C4651.2,13832.76,4656.2,13828.76,4656.2,13822.76z M4386.2,13802.76c0-5-2-10-4-10c-3,0-8,5-11,10c-3,6-1,10,4,10
		C4381.2,13812.76,4386.2,13808.76,4386.2,13802.76z M4270.2,13767.76c-4-8-11-15-18-15c-6-1,2-6,18-13l28-12l-26-14
		c-14-8-26-18-26-23c0-4-7-8-15-8s-15,5-15,11s-6,9-12,6c-7-2-11-11-10-18c2-8,0-11-4-6c-4,4-9,16-11,25c-2,14,4,18,27,16
		c17-1,30,2,30,7s-5,9-10,9c-11,0,30,48,42,49C4272.2,13782.76,4273.2,13775.76,4270.2,13767.76z M4586.2,13778.76c0-3-4-8-10-11
		c-5-3-10-1-10,4c0,6,5,11,10,11C4582.2,13782.76,4586.2,13780.76,4586.2,13778.76z M4401.2,13762.76c-3-5-12-7-20-3
		c-21,7-19,13,6,13C4398.2,13772.76,4405.2,13768.76,4401.2,13762.76z M3506.2,13747.76c0-2-5-15-11-28c-8-17-17-23-30-20
		c-25,7-24,23,1,23c11,0,20,7,20,15s5,15,10,15C3502.2,13752.76,3506.2,13750.76,3506.2,13747.76z M4576.2,13738.76c0-9-30-14-35-6
		c-4,6,3,10,14,10C4567.2,13742.76,4576.2,13740.76,4576.2,13738.76z M4561.2,13702.76c3-5,1-10-4-10c-6,0-11,5-11,10c0,6,2,10,4,10
		C4553.2,13712.76,4558.2,13708.76,4561.2,13702.76z M4531.2,13692.76c3-5,1-10-4-10c-6,0-11,5-11,10c0,6,2,10,4,10
		C4523.2,13702.76,4528.2,13698.76,4531.2,13692.76z M3426.2,13667.76c0-8-4-15-10-15c-5,0-10,7-10,15s5,15,10,15
		C3422.2,13682.76,3426.2,13675.76,3426.2,13667.76z M3493.2,13641.76c2-12-1-18-7-14c-5,3-10,16-10,27
		C3476.2,13680.76,3489.2,13670.76,3493.2,13641.76z M3646.2,13617.76c0-6-6-17-12-24c-10-11-10-13,0-7c15,9,16-6,0-22
		c-9-9-8-12,6-12c15,0,16-3,7-14s-9-19,1-35c11-18,10-22-6-34c-13-9-17-20-12-32c3-10,2-23-4-30c-8-9-6-14,6-19c10-4,21-1,26,6
		c5,9,8,8,8-6c0-15-5-17-26-12c-24,6-25,5-19-24c7-31,1-35-29-24c-11,4-13,10-7,18c13,15,17,49,8,63c-4,6-3,14,3,18c5,3,10,11,10,16
		c0,6-3,8-7,6c-10-6-10,44,0,60c4,6,4,18,1,26s2,29,10,46c20,38,20,39-1,44c-10,3-6,4,10,4
		C3634.2,13628.76,3646.2,13623.76,3646.2,13617.76z M4293.2,13580.76c-3-7-5-2-5,12s2,19,5,13
		C4295.2,13598.76,4295.2,13586.76,4293.2,13580.76z M3446.2,13598.76c0-9-30-14-35-6c-4,6,3,10,14,10
		C3437.2,13602.76,3446.2,13600.76,3446.2,13598.76z M3476.2,13598.76c0-3-4-8-10-11c-5-3-10-1-10,4c0,6,5,11,10,11
		C3472.2,13602.76,3476.2,13600.76,3476.2,13598.76z M4141.2,13543.76c-3-6-11-8-17-5c-6,4-5,9,3,15
		C4143.2,13563.76,4150.2,13557.76,4141.2,13543.76z M4248.2,13543.76c-5-3-13-16-17-29s-9-21-12-18c-9,9,19,66,29,60
		C4255.2,13552.76,4255.2,13547.76,4248.2,13543.76z M4106.2,13538.76c0-2,3-11,6-20c4-11,1-16-11-16c-11,0-15-5-12-14
		c3-8-1-20-9-26c-8-7-14-11-15-9c-7,43-7,69,1,64c6-3,13,1,16,9C4087.2,13540.76,4106.2,13549.76,4106.2,13538.76z M3466.2,13528.76
		c0-2-7-6-15-10c-8-3-15-1-15,4c0,6,7,10,15,10S3466.2,13530.76,3466.2,13528.76z M3713.2,13526.76c-3-3-12-4-19-1c-8,3-5,6,6,6
		C3711.2,13532.76,3717.2,13529.76,3713.2,13526.76z M4286.2,13502.76c-18-11-24-6-16,16c5,14,9,15,19,5
		C4298.2,13514.76,4298.2,13509.76,4286.2,13502.76z M3485.2,13468.76c1-5-5-3-13,4c-8,6-12,19-9,27c6,14,8,14,14-3
		C3481.2,13486.76,3485.2,13473.76,3485.2,13468.76z M4452.2,13485.76c-10-10-19,5-10,18c6,11,8,11,12,0
		C4456.2,13496.76,4455.2,13488.76,4452.2,13485.76z M3732.2,13478.76c0-14-5-21-9-17s-5,15-1,24
		C3731.2,13509.76,3734.2,13506.76,3732.2,13478.76z M4038.2,13410.76c-6-6-19-8-29-4s-13,10-7,14s14,16,18,27c8,19,8,19,19-3
		C4046.2,13428.76,4046.2,13418.76,4038.2,13410.76z M4136.2,13417.76c-7-8-18-15-24-15c-8,0-8,3,0,8c6,4,14,16,18,27
		c6,13,10,16,13,7C4146.2,13437.76,4142.2,13425.76,4136.2,13417.76z M3480.2,13433.76c3-5-5-12-19-15c-14-4-25-13-25-20
		c0-9-7-12-19-9s-17,11-14,20c3,8,11,12,19,9c7-3,18,2,24,10C3460.2,13444.76,3472.2,13446.76,3480.2,13433.76z M4246.2,13438.76
		c0-3-4-8-10-11c-5-3-10-1-10,4c0,6,5,11,10,11C4242.2,13442.76,4246.2,13440.76,4246.2,13438.76z M3836.2,13417.76c0-8-7-15-15-15
		c-26,0-18,20,13,29C3835.2,13432.76,3836.2,13425.76,3836.2,13417.76z M4416.2,13401.76c0-16-22-53-39-66c-13-9-14-14-3-24
		c14-15,16-33,2-24c-6,3-13-1-16-9c-3-9-10-16-15-16c-13,0-7,50,8,62c7,6,13,17,13,25c0,7,7,16,16,20c8,3,13,11,10,18
		c-2,7-2,16,1,19C4403.2,13416.76,4416.2,13413.76,4416.2,13401.76z M3466.2,13378.76c0-20-29-84-30-65c0,31,12,79,21,79
		C3462.2,13392.76,3466.2,13386.76,3466.2,13378.76z M4257.2,13332.76c12,0-24-36-42-42c-8-3-14-13-14-23c0-12-9-21-23-25
		c-13-3-22-7-21-10c11-27-49-87-77-76c-19,7-18,26,1,26c8,0,15,7,15,16c0,10,7,14,23,12c18-2,21,1,19,20c-2,12,2,22,8,22s8,5,5,10
		c-3,6,1,13,9,16c9,3,16,17,16,29c0,13,5,27,11,30c6,4,8,14,5,22c-4,10-2,13,8,10c8-3,20,1,28,10c11,14,13,13,16-15
		C4246.2,13346.76,4251.2,13332.76,4257.2,13332.76z M4006.2,13372.76c0-5-2-10-4-10c-3,0-8,5-11,10c-3,6-1,10,4,10
		C4001.2,13382.76,4006.2,13378.76,4006.2,13372.76z M4106.2,13357.76c0-8-4-15-10-15c-5,0-10,7-10,15s5,15,10,15
		C4102.2,13372.76,4106.2,13365.76,4106.2,13357.76z M3869.2,13286.76c12-13,8-24-8-18c-11,5-13,2-8-12c4-12,3-15-6-10
		c-7,5-10,15-7,23s1,23-4,33s-7,26-3,36c5,15,9,12,17-13C3856.2,13307.76,3864.2,13290.76,3869.2,13286.76z M3507.2,13319.76
		c-10-9-11-8-5,6c3,10,9,15,12,12S3514.2,13326.76,3507.2,13319.76z M3649.2,13313.76c-13-8-23-51-13-51c4,0,10-7,13-14
		c4-10,1-13-8-10c-7,3-23-4-34-15c-12-12-21-17-21-12s7,14,15,21c15,13,11,35-6,25c-5-4-9,10-9,30c0,22,4,34,10,30c6-3,10-14,10-23
		c0-12,5-9,17,10c9,15,21,24,26,21S3654.2,13317.76,3649.2,13313.76z M3416.2,13310.76c0-17-12-32-27-35c-19-4-16,14,3,21
		c8,3,12,10,9,16c-3,5-1,10,4,10C3411.2,13322.76,3416.2,13316.76,3416.2,13310.76z M3760.2,13254.76c-3-26-12-52-21-59
		c-12-9-13-16-5-25c12-15,11-93-2-105c-5-4-6,15-4,45c4,39,2,52-7,48c-8-3-12,6-11,24c1,16,5,25,11,22s5,1-2,9c-10,12-8,19,8,33
		c16,13,18,21,10,29c-6,6-11,19-11,29c0,16,3,17,20,8S3765.2,13294.76,3760.2,13254.76z M3946.2,13306.76c0-8-5-12-10-9
		c-6,4-8,11-5,16C3940.2,13327.76,3946.2,13324.76,3946.2,13306.76z M4290.2,13297.76c-4-8-8-15-10-15s-4,7-4,15s4,15,10,15
		C4291.2,13312.76,4293.2,13305.76,4290.2,13297.76z M4044.2,13275.76c-5-7-14-10-19-7c-16,10-9,23,10,21
		C4050.2,13288.76,4052.2,13285.76,4044.2,13275.76z M3428.2,13260.76c-7-7-12-8-12-2c0,14,12,26,19,19
		C3437.2,13274.76,3434.2,13266.76,3428.2,13260.76z M3516.2,13272.76c0-5-4-10-10-10c-5,0-10,5-10,10c0,6,5,10,10,10
		C3512.2,13282.76,3516.2,13278.76,3516.2,13272.76z M3936.2,13252.76c0-5-4-10-9-10c-6,0-13,5-16,10c-3,6,1,10,9,10
		C3929.2,13262.76,3936.2,13258.76,3936.2,13252.76z M4271.2,13252.76c3-5-1-10-9-10s-18,5-21,10c-3,6,1,10,9,10
		S4268.2,13258.76,4271.2,13252.76z M4313.2,13235.76c-4-3,1-12,11-19c15-11,14-15-18-43c-19-17-42-30-50-30c-12,1-11,2,1,6
		c10,2,19,13,22,24s11,18,19,17c14-3,14,5,3,35c-5,11-2,17,6,17C4314.2,13242.76,4316.2,13239.76,4313.2,13235.76z M3650.2,13205.76
		c4-9,2-21-4-27c-12-12-15-8-24,22C3613.2,13227.76,3640.2,13232.76,3650.2,13205.76z M4213.2,13166.76c-3-3-12-4-19-1c-8,3-5,6,6,6
		C4211.2,13172.76,4217.2,13169.76,4213.2,13166.76z M3649.2,13156.76c3-3-3-14-14-25s-17-24-14-29c7-12-12-23-25-15c-8,5-8,11-1,19
		c6,7,8,22,4,34c-4,18-1,22,19,22C3632.2,13162.76,3645.2,13159.76,3649.2,13156.76z M4071.2,13132.76c3-5-1-10-9-10
		c-9,0-16,5-16,10c0,6,4,10,9,10C4061.2,13142.76,4068.2,13138.76,4071.2,13132.76z M4212.2,13118.76c18,5,24,2,24-10
		c0-9-6-13-15-10c-8,4-17-1-21-10c-3-9-10-13-15-10s-6,10-3,16c4,6,1,14-6,18c-8,5-9,13-4,21c7,11,9,10,12-4
		C4187.2,13116.76,4194.2,13114.76,4212.2,13118.76z M4277.2,13069.76c-15-15-21-5-14,22c5,21,7,21,16,6
		C4285.2,13086.76,4284.2,13076.76,4277.2,13069.76z M3397.2,13070.76c9-14-2-59-12-52c-5,3-9-1-10-8c0-10-2-10-6,0
		c-2,6-11,12-19,12c-12,0-12,4-4,20s8,20-4,20c-10,0-13,6-10,15C3338.2,13093.76,3385.2,13088.76,3397.2,13070.76z M4041.2,13072.76
		c3-5,1-10-4-10c-6,0-11,5-11,10c0,6,2,10,4,10C4033.2,13082.76,4038.2,13078.76,4041.2,13072.76z M3614.2,13046.76c0-18-3-22-9-13
		c-11,18-11,39,0,39C3610.2,13072.76,3614.2,13060.76,3614.2,13046.76z M4215.2,13026.76c-15-37-17-56-5-71c12-19-9-16-24,2
		s-57,20-63,3c-2-7-7-10-11-7c-12,12,5,38,21,32c13-5,15-2,11,15c-4,15-1,22,8,23c8,1,20,2,27,3c6,0,12,6,12,11c0,20,17,37,27,27
		C4223.2,13059.76,4222.2,13044.76,4215.2,13026.76z M3536.2,13053.76c0-5-6-12-12-14c-10-4-9-8,2-16c16-11,8-27-9-16
		c-17,10-13,55,4,55C3529.2,13062.76,3536.2,13058.76,3536.2,13053.76z M4126.2,13048.76c0-7-9-16-20-19c-22-6-29,18-7,26
		C4120.2,13064.76,4126.2,13062.76,4126.2,13048.76z M3746.2,13048.76c0-3-4-8-10-11c-5-3-10-1-10,4c0,6,5,11,10,11
		C3742.2,13052.76,3746.2,13050.76,3746.2,13048.76z M4002.2,13033.76c0-16-3-17-14-9c-12,10-7,19,13,28
		C4002.2,13052.76,4002.2,13043.76,4002.2,13033.76z M4256.2,13028.76c0-2-7-7-16-10c-8-3-12-2-9,4
		C4237.2,13032.76,4256.2,13036.76,4256.2,13028.76z M3406.2,12967.76c0-5-5-3-10,5s-10,20-10,25c0,6,5,3,10-5
		S3406.2,12973.76,3406.2,12967.76z M3650.2,12990.76c-4-6-10-25-14-42l-7-31l-11,25c-7,19-6,29,6,43
		C3641.2,13004.76,3661.2,13009.76,3650.2,12990.76z M3969.2,12977.76c-3-9-8-14-10-11c-3,3-2,9,2,15
		C3970.2,12997.76,3976.2,12994.76,3969.2,12977.76z M4253.2,12970.76c-3-8-6-5-6,6c-1,11,2,17,5,13
		C4255.2,12986.76,4256.2,12977.76,4253.2,12970.76z M3579.2,12956.76c-3-9,0-20,8-25c9-6,10-9,2-9c-6,0-15,5-18,10c-7,11,0,40,9,40
		C3583.2,12972.76,3583.2,12965.76,3579.2,12956.76z M4056.2,12947.76c-21-22-48-26-34-4c3,5,9,7,14,4c4-3,13,2,20,10s15,15,18,15
		S4069.2,12961.76,4056.2,12947.76z M4176.2,12928.76c-6-8-19-12-27-9c-14,6-14,8,3,14
		C4182.2,12945.76,4189.2,12943.76,4176.2,12928.76z M3370.2,12906.76c8-21,8-21-10-28c-12-4-15-2-10,9c3,8,1,15-5,15s-7,5-4,10
		C3350.2,12927.76,3363.2,12924.76,3370.2,12906.76z M4192.2,12890.76c5-7,3-8-6-3c-8,5-18,1-26-10c-8-10-17-16-20-12
		c-9,9,15,37,32,37C4179.2,12902.76,4188.2,12897.76,4192.2,12890.76z M3513.2,12877.76c0-8-4-12-9-9c-4,3-8,9-8,15c0,5,4,9,8,9
		C3509.2,12892.76,3513.2,12885.76,3513.2,12877.76z M4086.2,12867.76c0-8-4-15-10-15c-5,0-10,7-10,15s5,15,10,15
		C4082.2,12882.76,4086.2,12875.76,4086.2,12867.76z M4312.2,12832.76c17,0,24-6,24-20c0-11,5-20,10-20c6,0,10,5,10,10
		c0,6,8,10,19,10c23,0,59-69,42-79c-6-4-34-6-63-5c-70,3-68,2-68,15c0,6,7,9,15,5c10-3,15,1,15,13c0,25-26,34-44,16
		c-8-8-19-15-24-15c-14,0-10,29,6,35c8,3,12,12,8,22c-4,9-1,20,6,24c7,5,15,4,16-1C4286.2,12836.76,4299.2,12832.76,4312.2,12832.76
		z M4171.2,12820.76c-4-13-13-29-19-36c-10-10-13-6-14,22c-1,30,2,36,19,36C4173.2,12842.76,4176.2,12838.76,4171.2,12820.76z
		 M3396.2,12818.76c0-8-7-16-15-20c-13-4-14-2-5,14C3389.2,12835.76,3396.2,12838.76,3396.2,12818.76z M4422.2,12697.76
		c18-13,18-14-5-8c-17,4-22,3-17-5c4-7,3-12-3-12s-19-16-29-36s-21-35-25-35c-34,5-57-1-51-11c5-10,4-10-7,0c-15,14-2,46,20,48
		c6,1,21,2,34,4c12,1,16,4,10,7c-21,8-15,23,12,33c14,5,25,14,25,20C4386.2,12716.76,4399.2,12715.76,4422.2,12697.76z
		 M3366.2,12683.76c0-17-18-21-24-6c-3,9,0,15,9,15C3359.2,12692.76,3366.2,12688.76,3366.2,12683.76z M4083.2,12667.76
		c-4-8-11-15-17-15c-7,0-7,6,0,21C4079.2,12696.76,4092.2,12692.76,4083.2,12667.76z M3271.2,12662.76c-3-5-10-10-16-10
		c-5,0-9,5-9,10c0,6,7,10,16,10C3270.2,12672.76,3274.2,12668.76,3271.2,12662.76z M4580.2,12647.76c3-9,0-12-9-9c-7,3-16,12-19,19
		c-3,9,0,12,9,9C4568.2,12663.76,4577.2,12654.76,4580.2,12647.76z M4005.2,12596.76c-13-14-29-22-36-20c-7,3-13-1-13-10s5-12,12-8
		s8,3,4-4s-13-12-21-12c-7,0-17-9-20-20s-10-20-15-20s-6,7-3,17c4,11,3,14-5,9c-7-4-12-2-12,3c0,6,9,11,19,11c23,0,36,16,22,25
		c-16,9-1,35,20,35c10,0,19,7,19,15c0,9,10,19,23,24C4030.2,12653.76,4034.2,12627.76,4005.2,12596.76z M4490.2,12636.76
		c9-3,16-13,16-20c0-12-4-12-20-4c-11,6-20,15-20,20C4466.2,12644.76,4469.2,12644.76,4490.2,12636.76z M4636.2,12585.76
		c0-7-7-13-15-13s-15-5-15-11c0-5-5-7-10-4c-8,5-8,11-1,19c6,7,8,16,4,20s-1,11,7,16
		C4621.2,12621.76,4636.2,12608.76,4636.2,12585.76z M4236.2,12597.76c11-13,10-14-4-9c-9,3-16,10-16,15
		C4216.2,12616.76,4222.2,12614.76,4236.2,12597.76z M4513.2,12566.76c-23-24-38-24-19-1c7,8,9,17,6,20c-4,3,3,5,14,4
		C4534.2,12588.76,4534.2,12588.76,4513.2,12566.76z M4756.2,12582.76c0-5-5-10-11-10c-5,0-7,5-4,10c3,6,8,10,11,10
		C4754.2,12592.76,4756.2,12588.76,4756.2,12582.76z M3210.2,12573.76c3-5-1-11-9-15c-8-3-15-1-15,5s-5,7-12,3s-8-3-4,4
		C3179.2,12584.76,3203.2,12586.76,3210.2,12573.76z M4316.2,12564.76c0-8-8-10-24-6c-21,5-25,1-31-25c-4-17-12-31-18-31
		c-14,0-77-57-77-70c0-5-9-12-20-15s-20-13-20-22c0-10-6-13-16-9c-9,4-23,1-31-6c-13-10-14-8-11,12c1,14,12,29,24,34
		c11,5,28,22,37,38c10,18,21,26,31,22c11-4,14,0,11,16s0,20,11,16c16-6,44,15,44,33c0,16,32,30,62,28
		C4304.2,12578.76,4316.2,12571.76,4316.2,12564.76z M4860.2,12556.76c5-14,4-15-9-4c-17,14-19,20-6,20
		C4850.2,12572.76,4857.2,12565.76,4860.2,12556.76z M3256.2,12558.76c0-3-4-8-10-11c-5-3-10-1-10,4c0,6,5,11,10,11
		C3252.2,12562.76,3256.2,12560.76,3256.2,12558.76z M4730.2,12527.76c-4-8-10-12-15-9c-14,8-10,24,6,24
		C4730.2,12542.76,4733.2,12536.76,4730.2,12527.76z M3536.2,12512.76c8-5,11-10,5-10c-5,0-17,5-25,10s-10,10-5,10
		C3517.2,12522.76,3528.2,12517.76,3536.2,12512.76z M4481.2,12512.76c-3-5-13-10-21-10s-12,5-9,10c3,6,13,10,21,10
		S4484.2,12518.76,4481.2,12512.76z M4786.2,12507.76c19-22,8-25-12-3c-10,10-14,18-9,18S4779.2,12515.76,4786.2,12507.76z
		 M3336.2,12496.76c0-14-3-14-15-4c-8,7-15,14-15,16s7,4,15,4S3336.2,12505.76,3336.2,12496.76z M3876.2,12503.76c0-6-4-13-10-16
		c-5-3-10,1-10,9c0,9,5,16,10,16C3872.2,12512.76,3876.2,12508.76,3876.2,12503.76z M3714.2,12482.76c-7-11-18-20-25-20s-16,0-20-1
		c-4,0-9,4-11,10c-2,5,12,14,30,20c18,5,34,10,36,10C3725.2,12502.76,3721.2,12493.76,3714.2,12482.76z M3577.2,12482.76
		c5,0,9-7,9-16c0-8,4-13,9-9c5,3,13,0,16-6c4-6-2-13-14-16c-11-3-23-14-26-24c-4-10-11-19-16-19c-6,0-7,10-4,23c6,17,5,19-5,10
		c-13-12-40-7-40,7c0,4,10,10,22,13c17,5,19,9,10,20c-14,16-4,30,16,22C3561.2,12484.76,3572.2,12482.76,3577.2,12482.76z
		 M4748.2,12460.76c-7-7-12-8-12-2c0,14,12,26,19,19C4757.2,12474.76,4754.2,12466.76,4748.2,12460.76z M5007.2,12465.76
		c13-16,12-17-3-4c-10,7-18,15-18,17C4986.2,12486.76,4994.2,12481.76,5007.2,12465.76z M4303.2,12450.76c-3-8-6-5-6,6
		c-1,11,2,17,5,13C4305.2,12466.76,4306.2,12457.76,4303.2,12450.76z M2591.2,12452.76c-3-5-11-10-16-10c-6,0-7,5-4,10
		c3,6,11,10,16,10C2593.2,12462.76,2594.2,12458.76,2591.2,12452.76z M4416.2,12452.76c0-5-5-10-11-10c-5,0-7,5-4,10c3,6,8,10,11,10
		C4414.2,12462.76,4416.2,12458.76,4416.2,12452.76z M3490.2,12437.76c3-8,1-15-3-15c-5,0-11,7-15,15c-3,8-1,15,3,15
		C3480.2,12452.76,3486.2,12445.76,3490.2,12437.76z M3641.2,12410.76c-20-24-23-33-14-44s9-14,0-14c-18,0-25,29-11,45
		c7,8,9,15,5,15c-5,0,0,9,10,20C3660.2,12464.76,3669.2,12443.76,3641.2,12410.76z M4860.2,12444.76c3-5-1-9-9-9s-15,4-15,9
		c0,4,4,8,9,8C4851.2,12452.76,4857.2,12448.76,4860.2,12444.76z M3396.2,12431.76c0-6,9-9,19-6c11,3,28-3,40-15c23-20,29-37,8-20
		c-16,14-57,4-57-13c0-12-49-39-57-31c-3,3,2,12,11,21c20,20,20,22,1,22c-8,0-11-5-8-10c4-6,0-8-9-4c-9,3-21,0-27-6c-7-7-14-8-21-1
		c-14,14,3,35,31,37c13,0,30,9,37,19C3379.2,12444.76,3396.2,12448.76,3396.2,12431.76z M4242.2,12427.76c-3-9,0-15,9-15s12-6,9-15
		c-5-12-10-13-20-4c-8,6-14,8-14,4c0-5-3-6-6-3c-6,7,13,48,22,48C4246.2,12442.76,4246.2,12435.76,4242.2,12427.76z
		 M5086.2,12416.76c0-2-7-4-15-4s-15,4-15,10c0,5,7,7,15,4C5079.2,12422.76,5086.2,12418.76,5086.2,12416.76z M2446.2,12407.76
		c-7-9-15-13-19-10c-3,3,1,10,9,15C2457.2,12426.76,2460.2,12424.76,2446.2,12407.76z M4406.2,12411.76c0-6-5-7-12-3c-7,5-8,3-3-6
		c16-26,12-60-7-60c-11,0-15,5-12,15c4,8,2,15-3,15c-6,0-15,11-20,23c-10,22-9,24,23,25
		C4391.2,12421.76,4406.2,12417.76,4406.2,12411.76z M2476.2,12392.76c0-5-4-10-10-10c-5,0-10,5-10,10c0,6,5,10,10,10
		C2472.2,12402.76,2476.2,12398.76,2476.2,12392.76z M2672.2,12365.76c-10-10-19,5-10,18c6,11,8,11,12,0
		C2676.2,12376.76,2675.2,12368.76,2672.2,12365.76z M2886.2,12372.76c0-5,7-10,16-10c8,0,12-5,9-10c-4-7-13-7-26,0
		c-20,11-26,30-9,30C2882.2,12382.76,2886.2,12378.76,2886.2,12372.76z M2986.2,12367.76c0-8-4-15-9-15c-13,0-22,16-14,24
		C2974.2,12387.76,2986.2,12382.76,2986.2,12367.76z M3591.2,12373.76c9-16-9-20-23-5c-10,12-10,14,2,14
		C3578.2,12382.76,3587.2,12378.76,3591.2,12373.76z M4334.2,12365.76c-5-25-28-28-28-4c0,12,6,21,16,21
		C4331.2,12382.76,4336.2,12375.76,4334.2,12365.76z M3254.2,12366.76c29-8,28-22-2-34c-13-5-26-12-28-17c-3-4-3-2-1,5
		c1,7-2,22-7,33C3204.2,12374.76,3213.2,12377.76,3254.2,12366.76z M4186.2,12365.76c0-5-5-15-10-23c-8-12-10-11-10,8
		c0,12,5,22,10,22C4182.2,12372.76,4186.2,12369.76,4186.2,12365.76z M3172.2,12343.76c-10-11-15-25-11-31c3-6,1-9-7-8
		c-8,2-12-4-10-14c2-13-4-18-20-20c-33-2-39-3-79-21c-51-23-74-17-75,20c0,22,4,29,13,26c8-3,23,3,33,12c12,11,20,13,20,7
		c0-7,5-12,10-12c6,0,10,11,10,23c0,14,6,24,15,24c11,0,12-4,4-14c-9-10-7-13,10-13c13,0,21,6,21,16c0,12,7,15,30,12c17-3,33-1,36,4
		c3,4,8,8,11,8S3181.2,12353.76,3172.2,12343.76z M4216.2,12341.76c0-6-4-7-10-4c-5,3-10,11-10,16c0,6,5,7,10,4
		C4212.2,12354.76,4216.2,12346.76,4216.2,12341.76z M3466.2,12348.76c0-11-19-15-25-6c-3,5,1,10,9,10
		C3459.2,12352.76,3466.2,12350.76,3466.2,12348.76z M2306.2,12323.76c6-11,6-22,1-25s-11,5-13,19
		C2288.2,12347.76,2292.2,12349.76,2306.2,12323.76z M2881.2,12332.76c3-5,2-10-4-10c-5,0-13,5-16,10c-3,6-2,10,4,10
		C2870.2,12342.76,2878.2,12338.76,2881.2,12332.76z M3426.2,12327.76c0-8,6-12,14-9s17,0,21-6c5-7-7-10-39-8c-44,3-62,20-33,31
		C3412.2,12345.76,3426.2,12342.76,3426.2,12327.76z M2139.2,12312.76c-3-11-7-20-9-20s-4,9-4,20s4,20,9,20
		S2142.2,12323.76,2139.2,12312.76z M3949.2,12302.76c-19-22-26-21-17,4c3,9,12,16,20,16
		C3963.2,12322.76,3962.2,12318.76,3949.2,12302.76z M4116.2,12301.76c0-6-4-7-10-4c-5,3-10,11-10,16c0,6,5,7,10,4
		C4112.2,12314.76,4116.2,12306.76,4116.2,12301.76z M2020.2,12296.76c3-8,2-12-4-9s-10,10-10,16
		C2006.2,12317.76,2013.2,12314.76,2020.2,12296.76z M2206.2,12302.76c0-5-2-10-4-10c-3,0-8,5-11,10c-3,6-1,10,4,10
		C2201.2,12312.76,2206.2,12308.76,2206.2,12302.76z M2786.2,12300.76c0-12-44-21-48-9c-2,6-8,11-13,11c-4,0-6-8-3-17c5-15,4-16-5-3
		c-18,25-13,30,29,27C2768.2,12308.76,2786.2,12304.76,2786.2,12300.76z M3312.2,12286.76c-8-8-22-14-31-14c-14,0-12,4,6,19
		C3314.2,12313.76,3334.2,12309.76,3312.2,12286.76z M2110.2,12286.76c8-22,8-24-7-24c-7,0-13,9-14,20
		C2087.2,12306.76,2101.2,12309.76,2110.2,12286.76z M2873.2,12282.76c17,0,13-22-5-28c-7-2-12,4-12,13s-4,13-10,10c-6-4-7,1-3,11
		c4,11,8,13,11,6C2856.2,12287.76,2864.2,12282.76,2873.2,12282.76z M2940.2,12288.76c-9-23-33-28-27-5c3,10,11,19,19,19
		C2939.2,12302.76,2943.2,12296.76,2940.2,12288.76z M3908.2,12280.76c4-11,13-15,23-12c10,4,15,0,15-10c0-9,4-16,10-16
		c5,0,7-7,4-15c-4-8-15-15-26-15c-13,0-18-5-15-13c5-14-27-40-37-30c-11,11-6,41,7,46c8,4,9,8,1,14c-14,10-14,72,0,70
		C3896.2,12298.76,3904.2,12289.76,3908.2,12280.76z M3996.2,12244.76c-7-13-9-8-9,23c0,35,1,37,10,17
		C4003.2,12269.76,4002.2,12254.76,3996.2,12244.76z M4031.2,12292.76c3-5,1-10-4-10c-6,0-11,5-11,10c0,6,2,10,4,10
		C4023.2,12302.76,4028.2,12298.76,4031.2,12292.76z M3782.2,12275.76c17-23,17-34,0-27c-9,4-13-2-11-20c3-23,1-24-22-13
		c-15,7-27,7-31,1c-4-5-14-10-23-12c-12-2-15,5-11,28c5,32,20,38,40,18c10-10,15-10,21,1c5,8,7,20,4,28
		C3742.2,12298.76,3767.2,12295.76,3782.2,12275.76z M3813.2,12270.76c-3-8-6-5-6,6c-1,11,2,17,5,13
		C3815.2,12286.76,3816.2,12277.76,3813.2,12270.76z M2651.2,12272.76c9,15,22,12,22-4c0-8-3-15-6-14c-25,2-51-4-51-12
		c0-13,77-13,85-1c3,6,14,8,24,6c11-2,22,3,25,11c10,25,34,16,28-11c-3-17-11-25-24-25c-11,0-26-7-35-15c-9-9-23-13-34-10
		c-11,4-19,2-19-5c0-8-9-10-24-6c-14,3-28,2-31-4c-3-5-33-8-65-6c-39,2-60-1-60-8s-3-7-8,1c-4,7-16,11-27,9s-28,6-38,18
		c-19,21-18,21,10,27c15,3,33,2,39-2c14-11,103-9,110,2c2,4,11,6,19,2c8-3,15,0,15,6s-5,11-12,11c-6,0-3,9,7,20c13,14,21,17,31,9
		C2640.2,12264.76,2646.2,12264.76,2651.2,12272.76z M2824.2,12270.76c18-18,14-28-12-28c-19,0-23,4-19,20
		C2799.2,12285.76,2807.2,12287.76,2824.2,12270.76z M3256.2,12272.76c0-5-4-10-9-10c-6,0-13,5-16,10c-3,6,1,10,9,10
		C3249.2,12282.76,3256.2,12278.76,3256.2,12272.76z M2241.2,12262.76c6-9-8-14-28-11c-4,1-17-4-29-10c-15-8-19-8-13,1
		c6,10,40,28,57,29C2232.2,12272.76,2238.2,12268.76,2241.2,12262.76z M2576.2,12262.76c0-5-7-7-15-4c-8,4-15,8-15,10s7,4,15,4
		S2576.2,12268.76,2576.2,12262.76z M3201.2,12252.76c4-6-5-10-19-10c-27,0-35-15-13-23c7-2,8-8,3-13s-11-4-13,4c-3,6-11,12-20,12
		c-23,0-10,24,18,31C3192.2,12263.76,3194.2,12263.76,3201.2,12252.76z M1671.2,12242.76c3-5,1-10-4-10c-6,0-11,5-11,10
		c0,6,2,10,4,10C1663.2,12252.76,1668.2,12248.76,1671.2,12242.76z M2026.2,12232.76c-8-5-19-10-25-10c-5,0-3,5,5,10s20,10,25,10
		C2037.2,12242.76,2034.2,12237.76,2026.2,12232.76z M3463.2,12223.76c10-16,9-20-4-25c-19-8-34,11-26,31
		C3440.2,12247.76,3449.2,12245.76,3463.2,12223.76z M2906.2,12227.76c0-11-46-45-61-45c-10,0-19-4-21-8c-1-5-18-12-36-15
		c-28-6-33-4-30,11c2,9,11,16,20,14c9-1,18,7,22,20c5,19,8,20,15,9c8-12,12-12,25-2c9,8,16,10,16,7c0-4,8-2,18,3
		C2892.2,12232.76,2906.2,12235.76,2906.2,12227.76z M3086.2,12200.76c0-16-25-8-38,12c-11,18-10,19,13,8
		C3075.2,12214.76,3086.2,12205.76,3086.2,12200.76z M4010.2,12207.76c17-13,17-15,1-31c-11-11-15-28-12-48c5-34-13-59-36-50
		c-8,3-17,19-19,35c-4,23-1,29,11,27c9-2,22,7,29,20c16,32,15,42-3,42c-8,0-15-7-15-17c0-9-3-14-6-10c-9,9,6,47,19,47
		C3986.2,12222.76,3999.2,12215.76,4010.2,12207.76z M2131.2,12202.76c3-5,1-10-4-10c-6,0-11,5-11,10c0,6,2,10,4,10
		C2123.2,12212.76,2128.2,12208.76,2131.2,12202.76z M3036.2,12208.76c0-2-7-7-16-10c-8-3-12-2-9,4
		C3017.2,12212.76,3036.2,12216.76,3036.2,12208.76z M3386.2,12199.76c0-4,4-5,10-2c7,4,7-3,0-19c-5-14-7-27-5-27c17-5,26-7,35-8
		c5,0,7-7,4-15c-4-11-10-11-29-2c-13,6-21,14-19,18c2,3,0,9-5,12c-5,4-13,1-16-5c-4-5-14-8-22-5s-11,1-8-4c3-6-1-10-10-10
		s-13,5-10,10c4,6,1,17-5,25c-9,11-9,15-1,15c6,0,11,7,11,15c0,12,9,15,35,13C3370.2,12209.76,3386.2,12204.76,3386.2,12199.76z
		 M3280.2,12155.76c10,4,12,0,9-14c-3-11-10-16-17-12c-6,4-5-1,3-10c12-15,11-17-3-17c-9,0-16,5-16,10c0,6-4,10-10,10
		c-5,0-10-6-10-14c0-7-7-19-16-27c-14-11-15-10-12,6c2,13-4,19-19,20c-13,1-26,5-30,10c-5,4,0,6,9,2c9-3,19,0,22,9c3,8,10,14,16,14
		c15,0,40,25,41,42c0,7,5,2,10-11C3262.2,12159.76,3272.2,12152.76,3280.2,12155.76z M2396.2,12172.76c0-5-2-10-4-10c-3,0-8,5-11,10
		c-3,6-1,10,4,10C2391.2,12182.76,2396.2,12178.76,2396.2,12172.76z M3837.2,12128.76c7,4,10,0,7-11c-1-10-9-20-17-23
		c-10-3-12,0-8,11c3,9,2,19-3,22c-6,4-10,14-9,23c0,12,3,10,10-6C3822.2,12131.76,3831.2,12124.76,3837.2,12128.76z
		 M2511.2,12091.76c4-11-1-29-9-41c-9-12-16-18-16-12s-15,8-35,6c-23-3-35,0-35,8c0,9-10,11-30,7c-34-7-40-1-33,36c4,19,11,27,27,27
		c17,0,18-2,6-10c-12-7-12-12-2-22c9-9,12-9,12,0c0,6,7,9,16,5c10-4,22,1,29,11c8,11,15,13,20,7c3-6,14-11,23-10c14,0,13,3-5,16
		c-13,8-23,20-23,26C2456.2,12160.76,2505.2,12112.76,2511.2,12091.76z M3660.2,12146.76c23-9,20-21-6-20c-12,0-23,7-26,14
		C3624.2,12153.76,3635.2,12155.76,3660.2,12146.76z M3886.2,12131.76c0-14-17-10-23,5c-4,10-1,13,9,9
		C3879.2,12142.76,3886.2,12136.76,3886.2,12131.76z M3631.2,12094.76c-1-2-17-5-33-7c-31-4-31-4-11,16c11,11,17,25,13,32
		c-3,7,3,1,14-13C3626.2,12108.76,3633.2,12096.76,3631.2,12094.76z M3768.2,12118.76c9,5,10,4,3-4c-5-6-23-8-38-5c-20,4-25,8-16,14
		c7,4,19,3,26-2C3750.2,12115.76,3761.2,12114.76,3768.2,12118.76z M2246.2,12110.76c0-17-20-47-20-31c0,6-7,19-16,27
		c-14,15-13,16,10,16C2234.2,12122.76,2246.2,12116.76,2246.2,12110.76z M3396.2,12103.76c0-4-7-8-15-8c-16,0-20,9-9,20
		C3380.2,12123.76,3396.2,12114.76,3396.2,12103.76z M2330.2,12091.76c5-4-4-7-19-6c-16,1-30,8-33,16c-3,10,2,11,19,6
		C2310.2,12103.76,2325.2,12096.76,2330.2,12091.76z M3906.2,12062.76c0-22-4-40-9-40c-6,0-9,18-9,40s4,40,9,40
		S3906.2,12084.76,3906.2,12062.76z M3186.2,12088.76c0-2-8-10-17-17c-16-13-17-12-4,4S3186.2,12096.76,3186.2,12088.76z
		 M3716.2,12088.76c0-2-7-6-15-10c-8-3-15-1-15,4c0,6,7,10,15,10S3716.2,12090.76,3716.2,12088.76z M1434.2,12057.76c-3-3-9,2-12,12
		c-6,14-5,15,5,6C1434.2,12068.76,1437.2,12060.76,1434.2,12057.76z M2010.2,12062.76c17,6,26,6,26,0c0-12,22-9,32,5c5,6,8,5,8-2
		s11-13,25-13s34-6,45-12c17-11,22-10,29,0c6,10,10,8,15-10c5-19,8-20,16-8c11,17,11,16,16-22c1-16-1-28-7-28c-5,0-9,6-9,13
		c0,9-13,12-42,11c-60-3-58-2-58-21c0-14-2-15-12-4c-11,10-10,14,5,22c9,6,17,14,17,19c0,12-30,6-40-9c-6-10-12-11-30-1
		c-12,6-24,9-27,6s-19,4-36,16l-30,22l5-22c7-27,2-28-12-3c-15,29-3,53,20,41C1978.2,12055.76,1994.2,12055.76,2010.2,12062.76z
		 M3716.2,12041.76c0-6-4-7-10-4c-5,3-10,11-10,16c0,6,5,7,10,4C3712.2,12054.76,3716.2,12046.76,3716.2,12041.76z M2936.2,12029.76
		c21-14,27-15,35-4c7,9,17,11,30,6c19-8,19-8-2-15c-13-3-20-10-18-15c3-4-3-13-14-18c-26-14-31-14-31,3c0,20-38,30-55,16
		c-10-9-16-7-24,7c-7,13-13,15-18,6c-10-14-65-5-60,11c2,6,15,10,29,8c15-2,28,1,31,5
		C2848.2,12054.76,2910.2,12048.76,2936.2,12029.76z M3350.2,12046.76c-7-3-9-15-6-27s1-19-3-15c-5,4-14,3-22-3c-10-9-13-7-13,9
		c0,20,24,42,45,41C3357.2,12051.76,3356.2,12048.76,3350.2,12046.76z M4003.2,12032.76c-3-12,1-24,11-30c19-11,8-13-25-4
		c-13,4-23,11-23,16s4,7,9,4s11,3,14,14s8,20,12,20S4006.2,12043.76,4003.2,12032.76z M3290.2,12026.76c3-8,2-12-4-9s-10,10-10,16
		C3276.2,12047.76,3283.2,12044.76,3290.2,12026.76z M3845.2,12023.76c-13-10-30-16-38-13c-11,4-7,9,14,18
		C3864.2,12047.76,3872.2,12045.76,3845.2,12023.76z M3620.2,12007.76c-4-9,0-15,10-15c21,0,20-10-1-26s-47-18-38-4c3,6-1,10-9,10
		c-12,0-14-8-10-32c4-27,3-30-6-15c-6,9-10,25-8,35c1,9-1,23-6,31c-7,11-4,13,11,9c11-3,28,1,38,8
		C3625.2,12026.76,3627.2,12025.76,3620.2,12007.76z M3691.2,12012.76c-3-5-15-10-26-10c-10,0-19,5-19,10c0,6,12,10,26,10
		S3695.2,12018.76,3691.2,12012.76z M3937.2,11999.76c-10-9-11-8-5,6c3,10,9,15,12,12S3944.2,12006.76,3937.2,11999.76z
		 M2416.2,11966.76c0-8-4-14-10-14c-5,0-10,9-10,21c0,11,5,17,10,14C2412.2,11984.76,2416.2,11974.76,2416.2,11966.76z
		 M3824.2,11980.76c-6-18-28-21-28-4c0,9,7,16,16,16S3826.2,11987.76,3824.2,11980.76z M2527.2,11954.76c2,2-2-2-10-9
		c-18-16-32-7-25,15c5,14,4,15-5,2c-5-8-13-11-18-7c-15,16,21,26,38,11C2515.2,11958.76,2525.2,11953.76,2527.2,11954.76z
		 M2822.2,11958.76c1-19-2-23-19-18c-12,3-16,7-9,10c6,2,12,10,12,18C2806.2,11992.76,2821.2,11983.76,2822.2,11958.76z
		 M3983.2,11960.76c-3-8-6-5-6,6c-1,11,2,17,5,13C3985.2,11976.76,3986.2,11967.76,3983.2,11960.76z M4066.2,11962.76
		c0-5-11-12-24-16c-15-3-27-15-29-27c-4-22-4-22-6,0c-1,15,8,27,27,37C4067.2,11974.76,4066.2,11974.76,4066.2,11962.76z
		 M2746.2,11952.76c0-5-5-10-11-10c-5,0-7,5-4,10c3,6,8,10,11,10C2744.2,11962.76,2746.2,11958.76,2746.2,11952.76z
		 M3136.2,11952.76c0-5-4-10-10-10c-5,0-10,5-10,10c0,6,5,10,10,10C3132.2,11962.76,3136.2,11958.76,3136.2,11952.76z
		 M3205.2,11927.76c-6-6-13-5-19,5c-6,9-5,17,3,22C3204.2,11963.76,3218.2,11940.76,3205.2,11927.76z M3661.2,11952.76
		c3-5,1-10-4-10c-6,0-11,5-11,10c0,6,2,10,4,10C3653.2,11962.76,3658.2,11958.76,3661.2,11952.76z M3721.2,11932.76c3-5,1-10-4-10
		c-6,0-11,5-11,10c0,6,2,10,4,10C3713.2,11942.76,3718.2,11938.76,3721.2,11932.76z M3846.2,11916.76c0-20-3-21-24-11
		c-13,7-22,15-20,18c2,4-2,9-8,12c-7,2,2,4,20,3C3840.2,11937.76,3846.2,11933.76,3846.2,11916.76z M3979.2,11902.76
		c-7-8-22,24-16,34c4,5,10,1,13-10C3980.2,11916.76,3982.2,11905.76,3979.2,11902.76z M2844.2,11920.76c23,1,42-3,42-8s-13-7-30-5
		c-16,2-32-1-36-6c-4-7-10-6-19,1c-7,6-17,10-21,9c-20-3-34,2-34,12c0,7,10,9,28,4C2789.2,11923.76,2820.2,11920.76,2844.2,11920.76
		z M4006.2,11877.76c-14-16-6-50,9-40c6,3,9-11,8-35c-1-22-5-40-10-40c-4,0-5,5-2,10c3,6,0,10-7,10c-16,0-40-15-39-24
		c1-16-13-36-26-36c-8,0-13,6-10,13c2,6,9,11,15,10c7-2,10,8,6,25c-6,34,10,88,25,85c6-2,11,6,11,17c0,12,7,20,16,20
		C4015.2,11892.76,4016.2,11889.76,4006.2,11877.76z M3285.2,11855.76c2-2-5-3-16-3s-20,7-20,15c0,12,3,12,16,3
		C3274.2,11863.76,3283.2,11856.76,3285.2,11855.76z M3192.2,11815.76c-10-10-19,5-10,18c6,11,8,11,12,0
		C3196.2,11826.76,3195.2,11818.76,3192.2,11815.76z M3701.2,11832.76c3-5,1-10-4-10c-6,0-11,5-11,10c0,6,2,10,4,10
		C3693.2,11842.76,3698.2,11838.76,3701.2,11832.76z M3269.2,11802.76c-13-10-23-25-23-33s-7-20-15-27c-9-7-13-21-10-31
		c4-11,3-19-2-20c-28-2-47-9-52-18c-4-5-11-7-17-3c-13,8-15,44-2,36c11-7,37,25,38,46c0,8,9,21,20,28c12,7,18,17,15,22
		c-4,6,7,10,24,10s31,5,31,12c0,6,3,8,8,4C3288.2,11824.76,3281.2,11812.76,3269.2,11802.76z M3676.2,11791.76c0-10-6-19-14-19
		c-15,0-29,27-21,40C3650.2,11827.76,3676.2,11811.76,3676.2,11791.76z M3806.2,11772.76c0-5-5-10-11-10c-5,0-7,5-4,10
		c3,6,8,10,11,10C3804.2,11782.76,3806.2,11778.76,3806.2,11772.76z M3166.2,11763.76c0-17-18-21-24-6c-3,9,0,15,9,15
		C3159.2,11772.76,3166.2,11768.76,3166.2,11763.76z M4111.2,11752.76c3-5,2-10-4-10c-5,0-13,5-16,10c-3,6-2,10,4,10
		C4100.2,11762.76,4108.2,11758.76,4111.2,11752.76z M3832.2,11703.76c-4-6-17-11-29-11c-20,0-20,1-2,13c12,10,14,16,7,21
		c-7,4-12,12-12,19c0,6,10,2,21-10C3829.2,11724.76,3835.2,11709.76,3832.2,11703.76z M3530.2,11710.76c10-39,7-45-24-46
		c-52-3-57-5-56-21c1-9-8-16-21-17c-18-1-21,2-13,17c6,10,15,21,20,24c6,4,8,11,5,16c-4,5,1,9,9,9s19,6,23,14c7,12,27,23,44,25
		C3521.2,11732.76,3526.2,11722.76,3530.2,11710.76z M3738.2,11700.76c7-19-22-46-44-40c-20,5-21,37-1,37c6,0,15,3,19,8
		C3723.2,11716.76,3734.2,11714.76,3738.2,11700.76z M3120.2,11677.76c-4-10,0-15,14-15c21,0,72-56,72-78c0-7,5-12,12-12
		c6,0,8-3,4-7c-4-5-14,0-21,11c-14,19-52,15-40-4c4-6-1-7-11-3c-13,5-15,2-9-15c4-14,2-22-5-22c-6,0-10-6-8-12c3-7-5-20-16-29
		c-19-16-21-15-37,15c-14,25-14,32-3,39c7,4,11,14,8,21c-3,8,3,23,13,33c26,26,38,57,19,50c-21-8-28,21-8,32
		C3126.2,11694.76,3126.2,11694.76,3120.2,11677.76z M4096.2,11672.76c0-13-7-20-18-20s-18,8-19,20c-1,14,4,20,18,20
		C4089.2,11692.76,4096.2,11685.76,4096.2,11672.76z M3766.2,11620.76c0-6-7-7-16-4c-8,3-12,2-9-4s-1-10-9-10c-18,0-18,2-10,23
		C3728.2,11641.76,3766.2,11637.76,3766.2,11620.76z M4056.2,11631.76c0-6,7-9,15-6c8,4,17,2,20-3c4-6-6-10-20-10c-22,0-26-4-20-17
		c4-12,3-14-3-8c-5,6-13,20-17,33c-5,16-2,22,9,22C4049.2,11642.76,4056.2,11637.76,4056.2,11631.76z M3844.2,11604.76
		c-10-12-10-14,0-8c6,4,12,2,12-3c0-6-4-11-8-11s-16-13-25-30l-18-30l-21,20c-23,21-18,41,5,22c10-8,16-6,25,9c7,11,10,24,7,29
		c-9,15,4,30,21,23C3854.2,11621.76,3854.2,11617.76,3844.2,11604.76z M3968.2,11605.76c3-10,1-29-4-41c-4-13-6-28-2-33c3-5,1-9-5-9
		c-16,0-23,19-15,38c4,9,6,27,5,40C3944.2,11626.76,3963.2,11630.76,3968.2,11605.76z M3993.2,11590.76c-3-8-6-5-6,6
		c-1,11,2,17,5,13C3995.2,11606.76,3996.2,11597.76,3993.2,11590.76z M3307.2,11569.76c-10-9-11-8-5,6c3,10,9,15,12,12
		S3314.2,11576.76,3307.2,11569.76z M3596.2,11585.76c-1-14-34-50-52-56c-21-7-24,13-8,44
		C3546.2,11591.76,3596.2,11601.76,3596.2,11585.76z M3753.2,11545.76c1-26-11-42-29-43c-12,0-9,28,4,50
		C3745.2,11579.76,3751.2,11577.76,3753.2,11545.76z M3401.2,11552.76c-3-5-14-10-23-10c-15,0-15,2-2,10
		C3396.2,11565.76,3409.2,11565.76,3401.2,11552.76z M4092.2,11530.76c4-6-1-17-11-24c-16-12-17-18-7-40c16-33,7-47-19-33
		c-19,10-20,11-3,23c12,10,14,15,5,20c-9,6-9,11,1,24c11,12,11,16-1,20c-11,4-11,6,0,13
		C4076.2,11545.76,4084.2,11544.76,4092.2,11530.76z M3513.2,11510.76c-3-8-6-5-6,6c-1,11,2,17,5,13
		C3515.2,11526.76,3516.2,11517.76,3513.2,11510.76z M3176.2,11477.76c0-8-6-15-14-15c-17,0-28,14-19,24
		C3155.2,11498.76,3176.2,11492.76,3176.2,11477.76z M3956.2,11451.76c0-5-4-9-10-9c-5,0-10,7-10,16c0,8,5,12,10,9
		C3952.2,11464.76,3956.2,11457.76,3956.2,11451.76z M2996.2,11458.76c0-3-4-8-10-11c-5-3-10-1-10,4c0,6,5,11,10,11
		C2992.2,11462.76,2996.2,11460.76,2996.2,11458.76z M3165.2,11435.76c15-15,14-16-6-11c-13,4-23,2-23-4c0-17-33-37-60-37
		c-15,0-19,3-10,6c8,3,22,15,32,26c15,20,15,22,0,34c-15,11-12,12,17,8C3133.2,11454.76,3155.2,11444.76,3165.2,11435.76z
		 M3426.2,11454.76c0-16-28-47-36-39c-4,4-2,7,4,7c7,0,12,9,12,20s5,20,10,20C3422.2,11462.76,3426.2,11458.76,3426.2,11454.76z
		 M3376.2,11448.76c0-3-4-8-10-11c-5-3-10-1-10,4c0,6,5,11,10,11C3372.2,11452.76,3376.2,11450.76,3376.2,11448.76z
		 M3993.2,11390.76c-6-3-10-31-10-62c0-52-5-61-30-57c-5,1-5-3-2-9c4-6,14-9,22-6s11,1,8-4c-9-15-32-12-39,5c-3,9,1,18,9,22
		c12,4,13,9,4,19c-8,10-8,14,0,14s7,6-1,21c-11,17-10,22,6,35c11,8,14,14,8,14c-9,0-7,8,5,26c15,24,17,25,24,8
		C4000.2,11405.76,3999.2,11394.76,3993.2,11390.76z M3916.2,11412.76c0-5-2-10-4-10c-3,0-8,5-11,10c-3,6-1,10,4,10
		C3911.2,11422.76,3916.2,11418.76,3916.2,11412.76z M3861.2,11402.76c3-5,1-10-4-10c-6,0-11,5-11,10c0,6,2,10,4,10
		C3853.2,11412.76,3858.2,11408.76,3861.2,11402.76z M3871.2,11373.76c3-5,1-12-4-15s-11,1-15,9
		C3846.2,11383.76,3861.2,11388.76,3871.2,11373.76z M2933.2,11355.76c3-7-3-9-16-6c-12,3-21,10-21,15
		C2896.2,11377.76,2928.2,11370.76,2933.2,11355.76z M3076.2,11362.76c0-5-5-10-11-10c-5,0-7,5-4,10c3,6,8,10,11,10
		C3074.2,11372.76,3076.2,11368.76,3076.2,11362.76z M3056.2,11335.76c0-5-5-15-10-23c-8-12-10-11-10,8c0,12,5,22,10,22
		C3052.2,11342.76,3056.2,11339.76,3056.2,11335.76z M3866.2,11322.76c0-11-7-20-15-20s-15,9-15,20s7,20,15,20
		S3866.2,11333.76,3866.2,11322.76z M4072.2,11321.76c0-8-3-21-7-29c-5-9-1-23,9-35c17-20,17-20-5-1c-13,11-23,27-23,38
		c0,10-5,18-11,18c-8,0-7,5,1,15C4051.2,11345.76,4071.2,11342.76,4072.2,11321.76z M2986.2,11267.76c-8-42-12-39-14,8
		c-1,15,2,27,7,27c4,0,5,6,1,13c-5,8-4,9,4,2C2990.2,11311.76,2991.2,11292.76,2986.2,11267.76z M2941.2,11302.76c3-5,1-10-4-10
		c-6,0-11,5-11,10c0,6,2,10,4,10C2933.2,11312.76,2938.2,11308.76,2941.2,11302.76z M2884.2,11281.76c-2-6-8-10-13-10s-11,4-13,10
		s4,11,13,11S2886.2,11287.76,2884.2,11281.76z M3916.2,11271.76c-7-11-14-19-16-16c-7,7,7,37,17,37
		C3923.2,11292.76,3922.2,11283.76,3916.2,11271.76z M3861.2,11272.76c3-5,1-10-4-10c-6,0-11-8-12-17c0-15-2-15-8,2
		C3825.2,11277.76,3845.2,11298.76,3861.2,11272.76z M2946.2,11268.76c0-2-7-9-15-16c-12-10-15-10-15,4c0,9,7,16,15,16
		S2946.2,11270.76,2946.2,11268.76z M2881.2,11231.76c4-6,0-9-11-7c-19,3-34,16-34,31
		C2836.2,11265.76,2873.2,11246.76,2881.2,11231.76z M2806.2,11232.76c0-5-2-10-4-10c-3,0-8,5-11,10c-3,6-1,10,4,10
		C2801.2,11242.76,2806.2,11238.76,2806.2,11232.76z M3986.2,11222.76c0-5-7-10-15-10s-15,5-15,10c0,6,7,10,15,10
		S3986.2,11228.76,3986.2,11222.76z M3931.2,11194.76c-8-8-25,10-19,20c4,6,9,5,15-3
		C3931.2,11204.76,3933.2,11196.76,3931.2,11194.76z M2818.2,11183.76c-10-6-10-14-3-34c7-17,7-27,1-27s-10,9-10,19c0,11-5,23-10,26
		c-7,4-6,13,1,27c8,15,14,17,22,9C2828.2,11194.76,2828.2,11189.76,2818.2,11183.76z M4055.2,11151.76c-8-5-18-4-24,2s-6,12,3,18
		c7,4,12,12,11,17c-4,25,4,25,13,0C4066.2,11166.76,4065.2,11158.76,4055.2,11151.76z M2901.2,11192.76c3-5,1-10-4-10
		c-6,0-11,5-11,10c0,6,2,10,4,10C2893.2,11202.76,2898.2,11198.76,2901.2,11192.76z M3976.2,11182.76c13-8,13-10-2-10
		c-9,0-20,5-23,10C3943.2,11195.76,3956.2,11195.76,3976.2,11182.76z M3896.2,11169.76c0-7-5-19-10-27c-8-13-10-12-10,3
		c0,9-4,17-10,17c-19,0-10,16,10,17C3887.2,11180.76,3896.2,11175.76,3896.2,11169.76z M4116.2,11170.76c0-4-4-8-9-8c-6,0-12,4-15,8
		c-3,5,1,9,9,9S4116.2,11175.76,4116.2,11170.76z M2780.2,11141.76c-8-14-21-11-21,5c0,8,6,12,14,9
		C2780.2,11152.76,2783.2,11146.76,2780.2,11141.76z M3926.2,11107.76c6-15,15-23,24-19c8,3,17,1,21-5c4-7,0-8-10-5
		c-11,5-18,0-22-15c-3-11-10-21-15-21s-5,6,0,17c7,11,5,21-4,31c-14,13-19,42-9,42C3914.2,11132.76,3921.2,11121.76,3926.2,11107.76
		z M4071.2,11112.76c3-5,2-10-4-10c-5,0-13,5-16,10c-3,6-2,10,4,10C4060.2,11122.76,4068.2,11118.76,4071.2,11112.76z
		 M3851.2,10992.76c3-5-1-10-9-10c-9,0-16,5-16,10c0,6,4,10,9,10C3841.2,11002.76,3848.2,10998.76,3851.2,10992.76z
		 M3956.2,10970.76c0-13-23-5-28,10c-2,7,2,10,12,6C3949.2,10983.76,3956.2,10975.76,3956.2,10970.76z M2939.2,10948.76
		c-10-13-21-22-25-20c-4,3-11-4-17-13c-6-10-11-13-11-7c0,13,49,64,62,64C2953.2,10972.76,2949.2,10961.76,2939.2,10948.76z
		 M4108.2,10937.76c4-5,4-13,1-18c-5-9-33,11-33,24C4076.2,10954.76,4099.2,10950.76,4108.2,10937.76z M3962.2,10924.76c1-7,0-8-2-3
		c-3,6-12,7-20,4s-14,0-14,7C3926.2,10947.76,3959.2,10941.76,3962.2,10924.76z M2866.2,10900.76c0-12-1-19-3-17c-1,2-9,12-16,22
		c-12,14-11,17,3,17C2860.2,10922.76,2866.2,10914.76,2866.2,10900.76z M3925.2,10886.76c2-2-5-4-16-4c-12,0-23,7-27,15
		c-5,13-2,14,17,4C3911.2,10895.76,3923.2,10888.76,3925.2,10886.76z M2841.2,10850.76c6-4,2-8-7-8c-10,0-18,7-18,17c0,9,3,12,8,7
		C2828.2,10861.76,2836.2,10854.76,2841.2,10850.76z M2646.2,10826.76c0-14-4-23-9-20c-5,4-12,0-15-6c-3-7-3-2,1,12c3,14,6,30,6,37
		s4,10,9,7C2642.2,10853.76,2646.2,10840.76,2646.2,10826.76z M4093.2,10820.76c-3-8-6-5-6,6c-1,11,2,17,5,13
		C4095.2,10836.76,4096.2,10827.76,4093.2,10820.76z M2816.2,10807.76c0-9-9-15-24-15c-13,0-27-6-29-12c-4-10-8-9-16,2
		c-19,27-15,30,57,39C2810.2,10821.76,2816.2,10815.76,2816.2,10807.76z M3853.2,10770.76c-3-8-6-5-6,6c-1,11,2,17,5,13
		C3855.2,10786.76,3856.2,10777.76,3853.2,10770.76z M4101.2,10782.76c-3-5-11-10-16-10c-6,0-7,5-4,10c3,6,11,10,16,10
		C4103.2,10792.76,4104.2,10788.76,4101.2,10782.76z M2626.2,10732.76c0-5-4-10-10-10c-5,0-10,5-10,10c0,6,5,10,10,10
		C2622.2,10742.76,2626.2,10738.76,2626.2,10732.76z M4106.2,10541.76c0-20-15-26-24-10c-8,13,4,42,15,35
		C4102.2,10563.76,4106.2,10552.76,4106.2,10541.76z M4064.2,10416.76c-4-3-12,5-18,18c-12,22-12,22,6,6
		C4062.2,10430.76,4067.2,10420.76,4064.2,10416.76z M4054.2,10370.76c6-7,10-24,10-38c-1-14,2-32,6-41c5-12,1-18-19-21
		c-14-3-28-1-31,3c-3,5,0,9,7,9c8,0,10,15,6,50C4027.2,10381.76,4034.2,10394.76,4054.2,10370.76z M4096.2,10202.76c-6-4-8-14-4-23
		c5-13,2-16-10-11c-18,7-21,20-6,29c5,3,6,13,3,23c-6,15-5,15,11,3C4101.2,10214.76,4103.2,10206.76,4096.2,10202.76z"/>
	<path d="M3661.2,13702.76c-3-5-1-10,4-10c6,0,11,5,11,10c0,6-2,10-4,10C3669.2,13712.76,3664.2,13708.76,3661.2,13702.76z"/>
	<path d="M4476.2,13742.76c0-5,5-10,10-10c6,0,10,5,10,10c0,6-4,10-10,10C4481.2,13752.76,4476.2,13748.76,4476.2,13742.76z"/>
	<path d="M3626.2,13492.76c0-5,5-10,11-10c5,0,7,5,4,10c-3,6-8,10-11,10C3628.2,13502.76,3626.2,13498.76,3626.2,13492.76z"/>
	<path d="M3011.2,12292.76c-8-13,15-24,27-12c6,6,4,11-6,15C3024.2,12298.76,3014.2,12297.76,3011.2,12292.76z"/>
	<path d="M2441.2,12203.76c-3-5-1-12,5-16c5-3,10,1,10,9C2456.2,12214.76,2450.2,12217.76,2441.2,12203.76z"/>
	<path d="M2448.2,12077.76c3-3,16-8,28-10s20-1,16,2c-4,4-16,8-28,10S2445.2,12080.76,2448.2,12077.76z"/>
	<path d="M3191.2,11712.76c-3-5,1-10,10-10s13,5,10,10c-3,6-8,10-10,10S3194.2,11718.76,3191.2,11712.76z"/>
	<path d="M3606.2,14782.76c0-5,5-10,10-10c6,0,10,5,10,10c0,6-4,10-10,10C3611.2,14792.76,3606.2,14788.76,3606.2,14782.76z"/>
	<path d="M3606.2,14682.76c0-11,4-20,9-20s7,9,4,20s-7,20-9,20S3606.2,14693.76,3606.2,14682.76z"/>
	<path d="M3566.2,14564.76c0-7-4-10-10-7c-5,3-10-1-10-9c0-9,6-16,13-16c6,0,3-6-8-12c-33-19-47-48-22-48c7,0,18,9,25,21
		c8,12,19,18,28,15c25-9,29,24,5,47C3574.2,14568.76,3566.2,14571.76,3566.2,14564.76z"/>
	<path d="M3636.2,14531.76c0-5-5-7-12-3s-8,3-4-4c10-17,36-15,36,3c0,8-4,15-10,15C3641.2,14542.76,3636.2,14537.76,3636.2,14531.76
		z"/>
	<path d="M4682.2,14413.76c-4-7-5-15-2-18c9-9,19,4,14,18C4690.2,14424.76,4688.2,14424.76,4682.2,14413.76z"/>
	<path d="M4580.2,14257.76c-14-14-32-25-40-25c-11,0-13-6-9-20c5-14,2-20-9-20c-24,0-19-19,7-29c17-7,24-4,30,11c6,17,10,18,23,7
		c12-10,15-10,12,2c-2,8,4,13,15,13c9-1,17,4,17,12s-6,14-12,14c-8,0-9,3-3,8c14,10,17,52,4,52
		C4610.2,14282.76,4594.2,14271.76,4580.2,14257.76z M4596.2,14219.76c0-8-3-17-7-20c-9-9-34,13-27,24
		C4570.2,14237.76,4596.2,14234.76,4596.2,14219.76z"/>
	<path d="M4646.2,14267.76c0-8,4-15,9-15s11,7,15,15c3,9,0,15-9,15C4653.2,14282.76,4646.2,14275.76,4646.2,14267.76z"/>
	<path d="M3656.2,14102.76c0-5,5-10,11-10c5,0,7,5,4,10c-3,6-8,10-11,10C3658.2,14112.76,3656.2,14108.76,3656.2,14102.76z"/>
	<path d="M3706.2,14101.76c0-5-4-7-10-4c-5,3-10-3-10-14c0-14,6-21,20-21c11,0,20,4,20,9s3,16,6,25c4,11,1,16-10,16
		C3713.2,14112.76,3706.2,14107.76,3706.2,14101.76z"/>
	<path d="M4513.2,14085.76c-4-3-7-18-7-32v-25l16,23C4537.2,14072.76,4529.2,14102.76,4513.2,14085.76z"/>
	<path d="M3753.2,13991.76c4-13,8-18,11-10c2,7-1,18-6,23C3750.2,14012.76,3749.2,14008.76,3753.2,13991.76z"/>
	<path d="M4381.2,13972.76c-8-13,4-32,16-25c12,8,12,35,0,35C4391.2,13982.76,4384.2,13978.76,4381.2,13972.76z"/>
	<path d="M3768.2,13946.76c-7-8-8-14-3-14c10,0,25,19,20,25C3783.2,13958.76,3775.2,13954.76,3768.2,13946.76z"/>
	<path d="M3786.2,13871.76c0-5,5-7,10-4c6,3,10,8,10,11c0,2-4,4-10,4C3791.2,13882.76,3786.2,13877.76,3786.2,13871.76z"/>
	<path d="M3386.2,13843.76c0-6,5-13,10-16c6-3,10,1,10,9c0,9-4,16-10,16C3391.2,13852.76,3386.2,13848.76,3386.2,13843.76z"/>
	<path d="M3801.2,13812.76c3-5,8-10,11-10c2,0,4,5,4,10c0,6-5,10-11,10C3800.2,13822.76,3798.2,13818.76,3801.2,13812.76z"/>
	<path d="M3806.2,13770.76c0-12,3-18,7-14c11,10,12,36,2,36C3810.2,13792.76,3806.2,13782.76,3806.2,13770.76z"/>
	<path d="M4556.2,13628.76c0-9,5-16,10-16c6,0,10,4,10,9c0,6-4,13-10,16C4561.2,13640.76,4556.2,13636.76,4556.2,13628.76z"/>
	<path d="M4506.2,13502.76c0-5,7-10,15-10s15,5,15,10c0,6-7,10-15,10S4506.2,13508.76,4506.2,13502.76z"/>
	<path d="M4326.2,13102.76c0-5,5-10,10-10c6,0,10,5,10,10c0,6-4,10-10,10C4331.2,13112.76,4326.2,13108.76,4326.2,13102.76z"/>
	<path d="M3074.2,12827.76c-5-6-28-12-50-14c-5-1-8-12-8-26s-3-25-6-25c-11,0-33,28-27,34c4,3,2,6-3,6s-15-9-22-20
		c-7-12-20-19-29-18c-21,4-29-28-13-47c15-17,20-18,40-5c13,9,13,11,0,20s-13,10,0,11c8,1,28,0,44-1c17-1,26,2,22,8
		c-10,17,33,41,66,37c25-4,29-1,26,18C3111.2,12826.76,3087.2,12839.76,3074.2,12827.76z"/>
	<path d="M3179.2,12825.76c9-2,17-9,17-14s5-9,10-9c24,0,7,26-17,27C3173.2,12829.76,3169.2,12828.76,3179.2,12825.76z"/>
	<path d="M2846.2,12722.76c0-6,5-8,11-4c7,4,10,1,7-6c-2-8-14-14-27-15c-15-1-20,3-17,12c8,21-33-4-42-25c-4-10-20-18-36-19
		c-40-3-53-18-32-38c14-15,16-15,16-1c0,15,26,22,72,18c10-1,17,2,17,6c-3,18,2,24,14,14c9-8,19-5,37,8c20,15,23,23,14,36
		C2867.2,12729.76,2846.2,12738.76,2846.2,12722.76z"/>
	<path d="M2732.2,12697.76c-3-9,0-15,9-15c8,0,15,7,15,15s-4,15-9,15S2736.2,12705.76,2732.2,12697.76z"/>
	<path d="M2636.2,12655.76c0-5-15-15-33-22c-19-8-34-20-34-27c0-16,23-19,32-4c3,5,13,6,21,3c19-7,64,16,64,34c0,7-4,13-9,13
		s-16,3-25,6S2636.2,12660.76,2636.2,12655.76z"/>
	<path d="M2751.2,12622.76c3-5,8-10,11-10c2,0,4,5,4,10c0,6-5,10-11,10C2750.2,12632.76,2748.2,12628.76,2751.2,12622.76z"/>
	<path d="M2495.2,12609.76c-9-7-19-22-23-35c-8-25,11-30,46-11c17,9,23,8,30-4c7-14,12-14,41,1c27,14,29,17,12,20c-10,3-21-1-23-7
		c-6-18-22-2-23,22c0,12-3,16-6,9c-4-11-8-10-22,2C2515.2,12617.76,2508.2,12618.76,2495.2,12609.76z"/>
	<path d="M2419.2,12564.76c2-32,47-77,47-47c0,8-5,15-11,15s-9,12-7,27c2,20-2,29-14,31
		C2420.2,12593.76,2417.2,12587.76,2419.2,12564.76z"/>
	<path d="M2371.2,12551.76c-5-16-2-26,9-35c11-8,13-14,7-19c-6-3-11-2-11,3c0,15-30,23-48,12c-14-8-12-9,11-10c28,0,39-24,15-33
		c-7-2-10-7-7-11c10-11,36,4,46,27c13,30,11,79-4,84C2383.2,12571.76,2375.2,12563.76,2371.2,12551.76z"/>
	<path d="M2275.2,12502.76c-15-16-15-19,2-34c11-9,24-16,29-16c6,0,10-5,10-11c0-5,5-7,10-4c18,11,11,35-10,35c-17,0-19,5-14,25
		C2309.2,12526.76,2298.2,12528.76,2275.2,12502.76z"/>
	<path d="M4780.2,12407.76c3-8,1-15-5-15s-8-4-5-9c7-10,56-2,56,10c0,8-32,29-45,29
		C4777.2,12422.76,4776.2,12415.76,4780.2,12407.76z"/>
	<path d="M4446.2,12362.76c0-5,5-10,10-10c6,0,10,5,10,10c0,6-4,10-10,10C4451.2,12372.76,4446.2,12368.76,4446.2,12362.76z"/>
	<path d="M1686.2,12300.76c0-10,9-9,35,2c17,8,16,8-7,7C1698.2,12308.76,1686.2,12304.76,1686.2,12300.76z"/>
	<path d="M4316.2,12301.76c0-11,37-12,43-1c3,4-6,8-19,8C4327.2,12309.76,4316.2,12306.76,4316.2,12301.76z"/>
	<path d="M5078.2,12280.76c5-15,28-23,28-10c0,5-7,13-16,16C5080.2,12290.76,5076.2,12287.76,5078.2,12280.76z"/>
	<path d="M1592.2,12137.76c-3-9-6-18-6-19s9-2,21-3c18-2,19,0,8,15c-8,9-14,18-15,20S1596.2,12146.76,1592.2,12137.76z"/>
	<path d="M1336.2,12092.76c0-5,5-10,11-10c5,0,7,5,4,10c-3,6-8,10-11,10C1338.2,12102.76,1336.2,12098.76,1336.2,12092.76z"/>
	<path d="M1520.2,12085.76c2-28,19-49,44-55c12-4,20-2,16,3c-3,5,2,9,11,9c10,0,15,7,13,18c-3,18-58,26-58,8c0-5-3-6-6-3
		c-4,4-1,13,6,22c10,13,9,15-7,15C1526.2,12102.76,1519.2,12096.76,1520.2,12085.76z"/>
	<path d="M1485.2,12077.76c-10-9,3-56,14-52c6,2,12,8,14,13C1517.2,12051.76,1492.2,12085.76,1485.2,12077.76z"/>
	<path d="M1602.2,12013.76c-4-5-2-12,3-15c5-4,12-2,15,3c4,5,2,12-3,15C1612.2,12020.76,1605.2,12018.76,1602.2,12013.76z"/>
	<path d="M1636.2,12012.76c0-5,5-10,10-10c6,0,10,5,10,10c0,6-4,10-10,10C1641.2,12022.76,1636.2,12018.76,1636.2,12012.76z"/>
	<path d="M2276.2,11912.76c0-5,5-10,11-10c5,0,7,5,4,10c-3,6-8,10-11,10C2278.2,11922.76,2276.2,11918.76,2276.2,11912.76z"/>
	<path d="M2536.2,11892.76c0-5,5-10,10-10c6,0,10,5,10,10c0,6-4,10-10,10C2541.2,11902.76,2536.2,11898.76,2536.2,11892.76z"/>
	<path d="M3066.2,11841.76c0-5,5-7,10-4c6,3,10,8,10,11c0,2-4,4-10,4C3071.2,11852.76,3066.2,11847.76,3066.2,11841.76z"/>
	<path d="M2986.2,11620.76c0-7,3-23,6-35c5-19,9-21,26-12c26,14,20,53-9,57C2995.2,11632.76,2986.2,11628.76,2986.2,11620.76z"/>
	<path d="M2830.2,11366.76c3-9,6-18,6-20s4-4,9-4c6,0,9,9,8,20s-8,20-15,20C2829.2,11382.76,2826.2,11376.76,2830.2,11366.76z"/>
	<path d="M3619.2,11272.76c-2-36,0-40,23-40c15,0,24-6,24-15c0-17,18-19,40-5c13,9,13,12-2,24c-10,7-15,15-12,18c3,4-3,5-13,5
		c-10-1-21-6-25-12c-4-5-8,0-8,13c0,14,6,22,16,22c14,0,14,3,4,15C3642.2,11326.76,3620.2,11315.76,3619.2,11272.76z"/>
	<path d="M3586.2,11291.76c0-5,5-7,10-4c6,3,10,8,10,11c0,2-4,4-10,4C3591.2,11302.76,3586.2,11297.76,3586.2,11291.76z"/>
	<path d="M3176.2,11232.76c-8-5-11-12-8-16c10-9,38,3,38,16C3206.2,11244.76,3196.2,11245.76,3176.2,11232.76z"/>
	<path d="M3691.2,11172.76c-3-5-10-8-14-6c-4,3-13,0-21-6c-13-8-12-9,2-5c10,4,22-3,32-19c18-27,36-32,36-9c0,8,5,15,10,15
		c6,0,10,5,10,12c0,6-3,8-7,5c-3-4-14,0-24,9C3704.2,11178.76,3696.2,11180.76,3691.2,11172.76z"/>
	<path d="M2696.2,10997.76c0-27,6-30,29-16c12,8,12,12,2,25C2708.2,11029.76,2696.2,11026.76,2696.2,10997.76z"/>
	<path d="M4142.2,10725.76c-6-14-5-15,5-6c7,7,10,15,7,18S4145.2,10735.76,4142.2,10725.76z"/>
	<path d="M2687.2,10723.76c-8-5-15-18-16-28s-5-28-9-41c-5-16-3-24,9-29c17-6,38,14,29,29c-3,4,0,8,6,8c7,0,8,6,0,19
		c-5,11-7,27-4,35C2709.2,10734.76,2707.2,10735.76,2687.2,10723.76z"/>
	<path d="M2513.2,10706.76c-3-3-3-13,0-22c5-11,2-14-8-10c-8,3-22-5-33-20c-11-14-14-22-8-18c6,3,13,2,17-4c3-5,1-10-4-10
		c-6,0-11-7-11-15s-6-14-12-12c-7,1-12-4-10-12c2-7-5-22-15-33c-16-18-16-19,3-12c10,4,27,13,37,20c10,6,27,10,38,7c25-7,26-61,2-79
		c-23-16-14-24,15-13c13,5,26,18,29,29c6,23,33,27,33,5c0-8,5-15,10-15c24,0,6,51-20,56c-3,0-18,6-35,13c-16,6-36,14-43,16
		c-16,6-6,25,14,25c8,0,14,7,14,15s4,15,10,15c5,0,7,7,4,15c-4,8-2,15,4,15c5,0,10,11,10,25
		C2554.2,10711.76,2529.2,10722.76,2513.2,10706.76z"/>
	<path d="M2615.2,10635.76c-10-16-16-19-26-11c-8,6-13,7-13,0c0-5,7-15,15-22c11-9,12-15,5-20c-6-4-8-14-4-24c5-13,9-14,20-5
		c8,6,11,16,8,21s1,15,11,21c12,10,14,18,7,37l-9,24L2615.2,10635.76z"/>
	<path d="M2479.2,10537.76c-3-9-2-19,2-23s10-1,12,6c3,6,10,9,16,5c7-4,6,1-2,10C2490.2,10556.76,2487.2,10556.76,2479.2,10537.76z"
		/>
	<path d="M2420.2,10524.76c-7-4-14-16-16-27s-10-19-16-17c-16,3-15-25,1-31c7-2,8-8,3-13s-11-4-13,4c-7,19-23,14-23-7
		c0-11-7-27-16-36c-12-12-13-19-4-30s7-17-9-27c-25-15-27-28-6-28c8,0,15-4,15-10c0-5-7-7-15-4c-9,4-16-3-21-20c-7-28-19-34-27-13
		c-5,12-6,9-7-20c0-3,12-8,27-9c15-2,29-8,31-14c5-15,22-12,22,5c0,8,9,24,21,36c20,20,20,49-1,49c-5,0-10,4-10,8c0,5,7,9,15,9
		s15-4,15-9c0-4,5-8,10-8c6,0,10,9,10,19c0,13,8,21,23,23c17,2,21,8,19,27c-3,18,0,22,12,18c26-10,19,22-6,33c-16,6-6,8,37,4l60-4
		l-35,15c-19,9-37,20-41,26c-3,6-11,4-19-6c-19-23-27-18-27,15c0,18,6,30,14,30c7,0,13,5,13,10
		C2456.2,10534.76,2436.2,10535.76,2420.2,10524.76z M2431.2,10423.76c3-5,1-12-5-16c-5-3-10,1-10,9
		C2416.2,10434.76,2422.2,10437.76,2431.2,10423.76z M2386.2,10381.76c0-6-4-7-10-4c-5,3-10,11-10,16c0,6,5,7,10,4
		C2382.2,10394.76,2386.2,10386.76,2386.2,10381.76z"/>
</g>
</svg>
